<svg width="30" height="22" viewBox="0 0 30 22" fill="none" xmlns="http://www.w3.org/2000/svg">
<path d="M29.7076 4.29306L25.7076 0.293056C25.52 0.105415 25.2655 -5.23096e-09 25.0001 0C24.7348 5.23096e-09 24.4803 0.105415 24.2926 0.293056C24.105 0.480697 23.9996 0.735192 23.9996 1.00056C23.9996 1.26592 24.105 1.52042 24.2926 1.70806L26.5864 4.00056H25.0001C18.8339 4.00056 17.3689 7.51556 16.0776 10.6156C14.9051 13.4293 13.9626 15.6893 9.89263 15.9706C9.63723 14.7581 8.94072 13.6836 7.93815 12.9555C6.93558 12.2274 5.69836 11.8975 4.46636 12.0297C3.23437 12.162 2.09536 12.747 1.27016 13.6713C0.444955 14.5956 -0.00764631 15.7934 9.7757e-05 17.0324C0.00784183 18.2715 0.47538 19.4635 1.31207 20.3774C2.14876 21.2914 3.29499 21.8621 4.52855 21.9789C5.7621 22.0957 6.9951 21.7504 7.98849 21.0098C8.98188 20.2692 9.6649 19.1861 9.90513 17.9706C15.3126 17.6393 16.6976 14.3268 17.9226 11.3843C19.1764 8.37556 20.1664 6.00056 25.0001 6.00056H26.5864L24.2926 8.29306C24.105 8.4807 23.9996 8.73519 23.9996 9.00056C23.9996 9.26592 24.105 9.52042 24.2926 9.70806C24.4803 9.8957 24.7348 10.0011 25.0001 10.0011C25.2655 10.0011 25.52 9.8957 25.7076 9.70806L29.7076 5.70806C29.8006 5.61518 29.8744 5.50489 29.9247 5.3835C29.975 5.2621 30.0009 5.13197 30.0009 5.00056C30.0009 4.86914 29.975 4.73901 29.9247 4.61762C29.8744 4.49622 29.8006 4.38593 29.7076 4.29306ZM5.00013 20.0006C4.40679 20.0006 3.82677 19.8246 3.33342 19.495C2.84007 19.1653 2.45555 18.6968 2.22849 18.1486C2.00143 17.6004 1.94202 16.9972 2.05777 16.4153C2.17353 15.8333 2.45925 15.2988 2.87881 14.8792C3.29837 14.4597 3.83292 14.174 4.41486 14.0582C4.9968 13.9424 5.6 14.0019 6.14818 14.2289C6.69636 14.456 7.16489 14.8405 7.49454 15.3338C7.82418 15.8272 8.00013 16.4072 8.00013 17.0006C8.00013 17.7962 7.68406 18.5593 7.12145 19.1219C6.55884 19.6845 5.79578 20.0006 5.00013 20.0006Z" fill="url(#paint0_linear_4_183)"/>
<defs>
<linearGradient id="paint0_linear_4_183" x1="-6.81833e-09" y1="4.61315" x2="30.1518" y2="4.99089" gradientUnits="userSpaceOnUse">
<stop stop-color="#5C7EFF"/>
<stop offset="1" stop-color="#FF41BB"/>
</linearGradient>
</defs>
</svg>
