<svg width="71" height="70" viewBox="0 0 71 70" fill="none" xmlns="http://www.w3.org/2000/svg">
<path d="M1.16584 2.98614L2.4501 2.87912V4.66677V5.16677H2.9501H5.02447L9.2518 55.8947L8.51233 55.6482L8.03798 55.4901L7.87987 55.9644L7.24689 57.8634L5.7496 57.9866L1.16584 2.98614ZM7.51197 60.2304L7.98683 58.8058L9.98194 58.6416L10.4808 58.6005L10.4392 58.1017L10.3743 57.323L34.3005 65.2984L34.4058 65.6142L35.0904 67.6681L34.5639 69.2477L7.51197 60.2304ZM35.6175 69.2493L35.7004 69.4981C35.6451 69.5006 35.5898 69.5006 35.5345 69.4981L35.6175 69.2493ZM36.671 69.2477L36.1445 67.6681L36.8292 65.6142L36.9344 65.2984L60.8603 57.3231L60.7958 58.0971L60.7542 58.5953L61.2525 58.6369L63.2472 58.8031L63.723 60.2304L36.671 69.2477ZM64.6496 59.848L64.3319 58.8951L65.3332 58.9775C65.2676 59.1524 65.1752 59.3171 65.0587 59.4656C64.9421 59.614 64.8039 59.7428 64.6496 59.848ZM70.0691 2.98564L65.4854 57.9861L63.9874 57.8613L63.3551 55.9644L63.197 55.4901L62.7226 55.6482L61.9827 55.8948L66.2101 5.16677H68.2848H68.7848V4.66677V2.87733L70.0691 2.98564ZM61.8338 57.6819L61.8924 56.979L62.5645 56.755L62.9031 57.771L61.8338 57.6819ZM70.0834 1.98329L68.7848 1.87378V0.569806C68.8654 0.592684 68.9444 0.621102 69.0214 0.65494C69.2536 0.757003 69.4622 0.906148 69.6338 1.09294C69.8054 1.27974 69.9364 1.50012 70.0185 1.74014C70.0458 1.8198 70.0674 1.90105 70.0834 1.98329ZM2.4501 1.87378L1.15153 1.98329C1.16753 1.90105 1.18919 1.8198 1.21643 1.74014C1.29851 1.50012 1.42951 1.27974 1.60114 1.09294C1.77277 0.906148 1.9813 0.757003 2.21354 0.65494C2.29053 0.621101 2.36958 0.592683 2.4501 0.569805V1.87378ZM3.4501 1.79232V0.5H67.7848V1.78944L66.0028 1.63915L65.5041 1.59709L65.4625 2.09586L65.2899 4.16677H5.94461L5.77242 2.10052L5.7309 1.60225L5.23262 1.64377L3.4501 1.79232ZM67.7848 4.16677H66.2934L66.4175 2.67767L67.7848 2.79299V4.16677ZM3.4501 2.79578L4.8174 2.68184L4.94114 4.16677H3.4501V2.79578ZM6.90299 58.8951L6.58534 59.848C6.43101 59.7428 6.29285 59.614 6.17626 59.4655C6.05969 59.3171 5.96738 59.1524 5.90175 58.9775L6.90299 58.8951ZM8.67044 56.755L9.34215 56.9789L9.40108 57.686L8.33073 57.7741L8.67044 56.755ZM35.6175 65.7374L35.7224 65.7723L35.6175 66.087L35.5126 65.7723L35.6175 65.7374ZM35.6175 50.5822L35.7227 50.8978L35.6175 50.9331L35.5123 50.8978L35.6175 50.5822ZM36.671 50.5807L36.1445 49.0011L36.8292 46.9471L36.9344 46.6313L46.7844 43.348V44.3343V44.8343H47.2844H49.2574L49.7227 46.2301L36.671 50.5807ZM19.7838 43.8343V37.8341H23.4506V41.9605L22.5126 41.6479L22.0383 41.4898L21.8802 41.9641L21.2568 43.8343H19.7838ZM19.7838 44.8343H20.9235L20.5636 45.9139L19.7838 45.654V44.8343ZM21.5123 46.2301L21.9775 44.8343H23.9506H24.4506V44.3343V43.348L34.3005 46.6313L34.4058 46.9471L35.0904 49.0011L34.5639 50.5807L21.5123 46.2301ZM35.6175 47.4199L35.5126 47.1052L35.6175 47.0703L35.7224 47.1052L35.6175 47.4199ZM22.6707 42.7547L23.4506 43.0146V43.8343H22.3109L22.6707 42.7547ZM50.6713 45.9139L50.3115 44.8343H51.4512V45.6539L50.6713 45.9139ZM51.4512 43.8343H49.9782L49.3548 41.9641L49.1966 41.4898L48.7223 41.6479L47.7844 41.9605V33.1674H49.6178H50.1178V32.6674V30.834H51.4512V43.8343ZM51.4512 16.8337V29.834H50.1178V28.0006V27.5006H49.6178H47.7844V19.1671H49.6178H50.1178V18.6671V16.8337H51.4512ZM47.7844 43.8343V43.0146L48.5642 42.7547L48.9241 43.8343H47.7844ZM47.7844 32.1674V30.834H49.1178V32.1674H47.7844ZM49.1178 28.5006V29.834H47.7844V28.5006H49.1178ZM29.1173 28.5006H46.7844V29.834V30.334V30.834V32.1674H29.1173V28.5006ZM51.4512 15.8337H50.1178V14.5003H51.4512V15.8337ZM19.7838 14.5003H49.1178V15.8337H47.2844H46.7844V16.3337V18.1671H19.7838V14.5003ZM49.1178 18.1671H47.7844V16.8337H49.1178V18.1671Z" fill="#EAEAEA" stroke="#EAEAEA"/>
</svg>
