<svg width="52" height="60" viewBox="0 0 52 60" fill="none" xmlns="http://www.w3.org/2000/svg">
<path d="M19.4743 48.8905C20.0314 48.7153 20.496 48.326 20.7661 47.8083C21.0361 47.2905 21.0894 46.6867 20.9142 46.1296C20.739 45.5726 20.3497 45.1079 19.832 44.8379C19.3142 44.5679 18.7104 44.5146 18.1533 44.6898L19.4743 48.8905ZM3.41113 35.8568L1.27993 35.2931L0.161499 39.5555L2.29269 40.1147L3.41113 35.8568ZM34.2253 57.7984V60H38.6286V57.7984H34.2253ZM34.5027 36.6097L34.265 34.4169C33.8512 34.4612 33.4585 34.6219 33.1323 34.8803C32.8061 35.1387 32.5598 35.4843 32.422 35.877C32.2842 36.2696 32.2606 36.6933 32.3537 37.0989C32.4469 37.5044 32.6531 37.8753 32.9484 38.1685L34.5027 36.6097ZM49.6369 19.9829H51.8385V19.9785L49.6369 19.9829ZM45.9689 11.1499L43.917 10.3573C43.7635 10.7543 43.7284 11.1873 43.816 11.6038C43.9035 12.0204 44.1099 12.4026 44.4101 12.7043L45.9689 11.1499ZM45.7487 2.26848L47.7566 1.37021C47.6252 1.07753 47.4314 0.817106 47.1888 0.607178C46.9461 0.397251 46.6605 0.242892 46.352 0.154905L45.7487 2.26848ZM36.1804 5.75589L35.6256 7.88708C35.9213 7.9643 36.2298 7.97913 36.5315 7.93061C36.8332 7.88209 37.1215 7.7713 37.3781 7.60527L36.1804 5.75589ZM19.0604 5.75589L17.8627 7.60527C18.1193 7.7713 18.4076 7.88209 18.7093 7.93061C19.011 7.97913 19.3196 7.9643 19.6152 7.88708L19.0604 5.75589ZM9.49207 2.27289L8.88882 0.159308C8.57947 0.246728 8.29302 0.40083 8.04959 0.610786C7.80616 0.820742 7.61167 1.08146 7.47977 1.37462L9.49207 2.27289ZM9.2719 11.1543L10.8307 12.7087C11.1318 12.4066 11.3387 12.0236 11.4263 11.6062C11.5138 11.1888 11.4782 10.7549 11.3238 10.3573L9.2719 11.1543ZM5.60396 20.0622H7.80561V20.0534L5.60396 20.0622ZM20.7425 36.6097L22.2924 38.1729C22.5857 37.8813 22.791 37.5129 22.8846 37.11C22.9782 36.7071 22.9564 36.286 22.8218 35.8949C22.6871 35.5039 22.445 35.1586 22.1232 34.8988C21.8014 34.6389 21.4129 34.475 21.0023 34.4257L20.7425 36.6097ZM18.8138 42.3868H21.0155L21.0111 42.2239L18.8138 42.3868ZM16.6122 57.7984V60H21.0155V57.7984H16.6122ZM18.1533 44.6898C15.4982 45.5264 13.8117 45.4339 12.6933 45.064C11.588 44.6986 10.7382 43.9632 9.92359 42.9064C9.49776 42.3368 9.10096 41.746 8.7347 41.1363C8.36042 40.5243 7.9333 39.8065 7.50178 39.168C6.66075 37.9307 5.41903 36.3808 3.41113 35.8524L2.29269 40.1147C2.64495 40.2028 3.1029 40.5331 3.85586 41.6383C4.21693 42.1755 4.56038 42.7479 4.99191 43.4524C5.40582 44.1217 5.88137 44.8615 6.43178 45.5836C7.54581 47.0367 9.06495 48.503 11.3194 49.2472C13.5651 49.9869 16.2335 49.9077 19.4743 48.8905L18.1533 44.6898ZM38.6286 42.1138C38.6286 40.7136 38.567 39.4366 38.1707 38.2478C37.748 36.9796 37.017 36.0021 36.0527 35.0466L32.9484 38.1729C33.6309 38.8466 33.8643 39.2517 33.992 39.6392C34.1461 40.1015 34.2253 40.7576 34.2253 42.1138H38.6286ZM34.7361 38.7982C38.7123 38.371 43.0495 37.3671 46.3916 34.4741C49.8262 31.5019 51.8385 26.8564 51.8385 19.9829L47.4352 19.9873C47.4352 25.9714 45.7179 29.2342 43.5075 31.1452C41.2001 33.1443 37.9681 34.0206 34.265 34.4169L34.7361 38.7982ZM51.8385 19.9785C51.8254 16.0839 50.2744 12.3478 47.5233 9.59115L44.4101 12.7043C46.3388 14.6417 47.4264 17.2529 47.4352 19.9873L51.8385 19.9785ZM48.0208 11.9425C48.6813 10.2516 48.9896 8.4463 48.9455 6.62774L44.5422 6.73782C44.5744 7.97088 44.3619 9.19808 43.917 10.3485L48.0208 11.9425ZM48.9455 6.62774C48.901 4.81241 48.4969 3.02834 47.7566 1.37021L43.7364 3.16235C44.2428 4.28959 44.5114 5.5049 44.5422 6.73782L48.9455 6.62774ZM45.7487 2.26848C46.352 0.150501 46.352 0.146098 46.3476 0.146098H46.3344L46.3168 0.137291C46.2731 0.125551 46.229 0.115271 46.1847 0.106468C45.8771 0.0449342 45.5648 0.00958118 45.2512 0.000789148C44.4959 -0.00891446 43.742 0.0709011 43.0055 0.238567C41.1341 0.639266 38.4965 1.63441 34.9915 3.9021L37.3781 7.60086C40.5441 5.55774 42.6885 4.80918 43.9302 4.54498C44.3718 4.44335 44.8247 4.39896 45.2776 4.41288L45.2424 4.40848C45.2276 4.40581 45.213 4.40288 45.1983 4.39967L45.1719 4.39087H45.1587L45.1499 4.38646C45.1455 4.38646 45.1411 4.38646 45.7487 2.26408M36.7352 3.61589C30.7585 2.05845 24.4823 2.05845 18.5056 3.61589L19.6152 7.87827C24.8644 6.51031 30.3765 6.51031 35.6256 7.87827L36.7352 3.61589ZM20.2537 3.8977C16.7443 1.63881 14.1023 0.643669 12.2309 0.247373C11.4942 0.0811064 10.7404 0.00276836 9.98524 0.0139991C9.62807 0.0237322 9.27269 0.0679707 8.92404 0.146098L8.90643 0.154905H8.89322L9.49207 2.27289L10.0953 4.39087L10.0821 4.39527L10.0689 4.39967C10.0456 4.40614 10.0221 4.41201 9.99845 4.41729C10.4397 4.40588 10.8805 4.45467 11.3106 4.55379C12.5524 4.81799 14.6968 5.56214 17.8627 7.60527L20.2537 3.8977ZM7.48417 1.36141C6.74402 3.01957 6.33993 4.80802 6.29528 6.62333L10.6986 6.73342C10.7247 5.49962 10.9988 4.28369 11.5044 3.15795L7.48417 1.36141ZM6.29528 6.62333C6.25125 8.44189 6.55948 10.2472 7.21997 11.9381L11.3238 10.3441C10.8774 9.19398 10.6634 7.96677 10.6942 6.73342L6.29528 6.62333ZM7.71314 9.58675C6.34203 10.9623 5.2557 12.5948 4.51635 14.3907L8.58499 16.064C9.10458 14.809 9.87075 13.6642 10.8307 12.6955L7.71314 9.58675ZM4.51635 14.3907C3.77509 16.1894 3.3965 18.1168 3.40232 20.0622L7.80561 20.0534C7.80561 18.6883 8.06981 17.3365 8.58499 16.0772L4.51635 14.3907ZM3.40232 20.0622C3.40232 26.9005 5.41903 31.4975 8.858 34.4521C12.1913 37.3143 16.5197 38.327 20.4827 38.7982L21.0023 34.4257C17.2727 33.9766 14.0407 33.0959 11.7245 31.1056C9.51408 29.2078 7.80561 25.989 7.80561 20.0534L3.40232 20.0622ZM19.1881 35.051C16.9865 37.2438 16.4184 39.8506 16.6166 42.5542L21.0111 42.2239C20.879 40.4274 21.2444 39.2165 22.2968 38.1685L19.1881 35.051ZM16.6122 42.3868V57.7984H21.0155V42.3868H16.6122ZM38.6286 57.7984V51.1934H34.2253V57.7984H38.6286ZM38.6286 51.1934V42.1138H34.2253V51.1934H38.6286Z" fill="#EAEAEA"/>
</svg>
