<svg width="850" height="200" viewBox="0 0 850 200" fill="none" xmlns="http://www.w3.org/2000/svg">
<g clip-path="url(#clip0_12_2)">
<rect width="850" height="200" fill="#090A0C"/>
<path d="M-34.8296 44.5337C-34.8296 45.7072 -35.0005 46.7896 -35.3423 47.7808C-35.6841 48.7606 -36.2367 49.6094 -37 50.3271C-37.752 51.0335 -38.7318 51.5861 -39.9395 51.9849C-41.1471 52.3836 -42.6169 52.583 -44.3486 52.583H-54.876V60H-61.2163V36.5186H-44.3486C-42.6169 36.5186 -41.1471 36.7179 -39.9395 37.1167C-38.7318 37.5041 -37.752 38.0566 -37 38.7744C-36.2367 39.4808 -35.6841 40.3239 -35.3423 41.3037C-35.0005 42.2835 -34.8296 43.3602 -34.8296 44.5337ZM-41.2383 44.6362C-41.2383 44.0894 -41.318 43.6222 -41.4775 43.2349C-41.6257 42.8361 -41.8763 42.5114 -42.2295 42.2607C-42.5827 42.0101 -43.0441 41.8278 -43.6138 41.7139C-44.1834 41.5885 -44.8841 41.5259 -45.7158 41.5259H-54.876V47.5757H-45.7158C-44.8841 47.5757 -44.1834 47.5301 -43.6138 47.439C-43.0441 47.3364 -42.5827 47.1712 -42.2295 46.9434C-41.8763 46.7041 -41.6257 46.3965 -41.4775 46.0205C-41.318 45.6445 -41.2383 45.1831 -41.2383 44.6362ZM0.819824 48.2764C0.819824 50.293 0.449544 52.076 -0.291016 53.6255C-1.03158 55.1636 -2.09115 56.451 -3.46973 57.4878C-4.84831 58.5246 -6.52311 59.3107 -8.49414 59.8462C-10.4538 60.3703 -12.6584 60.6323 -15.1079 60.6323C-17.5575 60.6323 -19.7734 60.3703 -21.7559 59.8462C-23.7269 59.3107 -25.4074 58.5246 -26.7974 57.4878C-28.1873 56.451 -29.2583 55.1636 -30.0103 53.6255C-30.7622 52.076 -31.1382 50.293 -31.1382 48.2764C-31.1382 46.2598 -30.7622 44.4824 -30.0103 42.9443C-29.2583 41.3949 -28.1873 40.1017 -26.7974 39.0649C-25.4074 38.0282 -23.7269 37.2477 -21.7559 36.7236C-19.7734 36.1882 -17.5575 35.9204 -15.1079 35.9204C-12.6584 35.9204 -10.4538 36.1882 -8.49414 36.7236C-6.52311 37.2477 -4.84831 38.0282 -3.46973 39.0649C-2.09115 40.1017 -1.03158 41.3949 -0.291016 42.9443C0.449544 44.4824 0.819824 46.2598 0.819824 48.2764ZM-5.58887 48.2764C-5.58887 47.3991 -5.73128 46.5275 -6.01611 45.6616C-6.28955 44.7843 -6.78516 43.9982 -7.50293 43.3032C-8.20931 42.6082 -9.17773 42.0443 -10.4082 41.6113C-11.6387 41.1784 -13.2052 40.9619 -15.1079 40.9619C-16.384 40.9619 -17.5062 41.0645 -18.4746 41.2695C-19.443 41.4632 -20.2804 41.7367 -20.9868 42.0898C-21.6932 42.443 -22.2856 42.8589 -22.7642 43.3374C-23.2427 43.8045 -23.6243 44.3115 -23.9092 44.8584C-24.194 45.3939 -24.3991 45.9578 -24.5244 46.5503C-24.6383 47.1313 -24.6953 47.7067 -24.6953 48.2764C-24.6953 48.8574 -24.6383 49.4442 -24.5244 50.0366C-24.3991 50.6291 -24.194 51.1987 -23.9092 51.7456C-23.6243 52.2811 -23.2427 52.7824 -22.7642 53.2495C-22.2856 53.7166 -21.6932 54.1268 -20.9868 54.48C-20.2804 54.8218 -19.443 55.0952 -18.4746 55.3003C-17.5062 55.494 -16.384 55.5908 -15.1079 55.5908C-13.2052 55.5908 -11.6387 55.3743 -10.4082 54.9414C-9.17773 54.5085 -8.20931 53.9445 -7.50293 53.2495C-6.78516 52.5545 -6.28955 51.7741 -6.01611 50.9082C-5.73128 50.0309 -5.58887 49.1536 -5.58887 48.2764ZM28.1978 41.8335C28.0269 41.7765 27.7762 41.7025 27.4458 41.6113C27.1268 41.5088 26.7508 41.4119 26.3179 41.3208C25.8849 41.2183 25.4064 41.1328 24.8823 41.0645C24.3696 40.9961 23.8398 40.9619 23.293 40.9619C22.1536 40.9619 21.0884 41.1043 20.0972 41.3892C19.1174 41.6626 18.2002 42.0329 17.3457 42.5C16.4912 42.9557 15.6937 43.4798 14.9531 44.0723C14.224 44.6533 13.5518 45.2515 12.9365 45.8667V60H6.59619V36.5186H12.9365V40.3296C13.6999 39.7599 14.4803 39.2131 15.2778 38.689C16.0868 38.1535 16.9242 37.6807 17.79 37.2705C18.6673 36.8604 19.5902 36.5356 20.5586 36.2964C21.527 36.0457 22.5524 35.9204 23.6348 35.9204C24.0449 35.9204 24.4608 35.9432 24.8823 35.9888C25.3153 36.0229 25.7311 36.0685 26.1299 36.1255C26.54 36.1825 26.9217 36.2451 27.2749 36.3135C27.6281 36.3818 27.9357 36.4502 28.1978 36.5186V41.8335ZM45.3901 41.6284V60H39.0498V41.6284H29.0864V36.5186H55.3706V41.6284H45.3901ZM70.666 41.5259C69.9255 41.5259 69.259 41.5544 68.6665 41.6113C68.0854 41.6683 67.5898 41.805 67.1797 42.0215C66.7695 42.238 66.4562 42.5627 66.2397 42.9956C66.0233 43.4172 65.915 43.9982 65.915 44.7388V45.6104H83.6201V50.6177H65.915V60H59.5747V44.209C59.5747 43.0013 59.7513 41.9189 60.1045 40.9619C60.4691 40.0049 61.0729 39.2017 61.916 38.5522C62.7591 37.8914 63.8757 37.3901 65.2656 37.0483C66.6556 36.6951 68.3874 36.5186 70.4609 36.5186H84.4575V41.5259H70.666ZM120.278 48.2764C120.278 50.293 119.908 52.076 119.167 53.6255C118.426 55.1636 117.367 56.451 115.988 57.4878C114.61 58.5246 112.935 59.3107 110.964 59.8462C109.004 60.3703 106.8 60.6323 104.35 60.6323C101.901 60.6323 99.6846 60.3703 97.7021 59.8462C95.7311 59.3107 94.0506 58.5246 92.6606 57.4878C91.2707 56.451 90.1997 55.1636 89.4478 53.6255C88.6958 52.076 88.3198 50.293 88.3198 48.2764C88.3198 46.2598 88.6958 44.4824 89.4478 42.9443C90.1997 41.3949 91.2707 40.1017 92.6606 39.0649C94.0506 38.0282 95.7311 37.2477 97.7021 36.7236C99.6846 36.1882 101.901 35.9204 104.35 35.9204C106.8 35.9204 109.004 36.1882 110.964 36.7236C112.935 37.2477 114.61 38.0282 115.988 39.0649C117.367 40.1017 118.426 41.3949 119.167 42.9443C119.908 44.4824 120.278 46.2598 120.278 48.2764ZM113.869 48.2764C113.869 47.3991 113.727 46.5275 113.442 45.6616C113.168 44.7843 112.673 43.9982 111.955 43.3032C111.249 42.6082 110.28 42.0443 109.05 41.6113C107.819 41.1784 106.253 40.9619 104.35 40.9619C103.074 40.9619 101.952 41.0645 100.983 41.2695C100.015 41.4632 99.1776 41.7367 98.4712 42.0898C97.7648 42.443 97.1724 42.8589 96.6938 43.3374C96.2153 43.8045 95.8337 44.3115 95.5488 44.8584C95.264 45.3939 95.0589 45.9578 94.9336 46.5503C94.8197 47.1313 94.7627 47.7067 94.7627 48.2764C94.7627 48.8574 94.8197 49.4442 94.9336 50.0366C95.0589 50.6291 95.264 51.1987 95.5488 51.7456C95.8337 52.2811 96.2153 52.7824 96.6938 53.2495C97.1724 53.7166 97.7648 54.1268 98.4712 54.48C99.1776 54.8218 100.015 55.0952 100.983 55.3003C101.952 55.494 103.074 55.5908 104.35 55.5908C106.253 55.5908 107.819 55.3743 109.05 54.9414C110.28 54.5085 111.249 53.9445 111.955 53.2495C112.673 52.5545 113.168 51.7741 113.442 50.9082C113.727 50.0309 113.869 49.1536 113.869 48.2764ZM132.395 49.9512C132.395 50.931 132.486 51.7342 132.668 52.3608C132.85 52.9761 133.146 53.466 133.557 53.8306C133.967 54.1951 134.497 54.4458 135.146 54.5825C135.807 54.7192 136.616 54.7876 137.573 54.7876H149.604V60H136.274C134.428 60 132.856 59.8519 131.557 59.5557C130.27 59.248 129.216 58.7809 128.396 58.1543C127.575 57.5163 126.977 56.7131 126.601 55.7446C126.236 54.7762 126.054 53.6255 126.054 52.2925V36.5186H132.395V49.9512ZM154.697 60V36.5186H161.037V60H154.697ZM198.789 48.2764C198.789 50.293 198.418 52.076 197.678 53.6255C196.937 55.1636 195.878 56.451 194.499 57.4878C193.12 58.5246 191.446 59.3107 189.475 59.8462C187.515 60.3703 185.31 60.6323 182.861 60.6323C180.411 60.6323 178.195 60.3703 176.213 59.8462C174.242 59.3107 172.561 58.5246 171.171 57.4878C169.781 56.451 168.71 55.1636 167.958 53.6255C167.207 52.076 166.831 50.293 166.831 48.2764C166.831 46.2598 167.207 44.4824 167.958 42.9443C168.71 41.3949 169.781 40.1017 171.171 39.0649C172.561 38.0282 174.242 37.2477 176.213 36.7236C178.195 36.1882 180.411 35.9204 182.861 35.9204C185.31 35.9204 187.515 36.1882 189.475 36.7236C191.446 37.2477 193.12 38.0282 194.499 39.0649C195.878 40.1017 196.937 41.3949 197.678 42.9443C198.418 44.4824 198.789 46.2598 198.789 48.2764ZM192.38 48.2764C192.38 47.3991 192.237 46.5275 191.953 45.6616C191.679 44.7843 191.184 43.9982 190.466 43.3032C189.759 42.6082 188.791 42.0443 187.561 41.6113C186.33 41.1784 184.764 40.9619 182.861 40.9619C181.585 40.9619 180.463 41.0645 179.494 41.2695C178.526 41.4632 177.688 41.7367 176.982 42.0898C176.276 42.443 175.683 42.8589 175.205 43.3374C174.726 43.8045 174.344 44.3115 174.06 44.8584C173.775 45.3939 173.57 45.9578 173.444 46.5503C173.33 47.1313 173.273 47.7067 173.273 48.2764C173.273 48.8574 173.33 49.4442 173.444 50.0366C173.57 50.6291 173.775 51.1987 174.06 51.7456C174.344 52.2811 174.726 52.7824 175.205 53.2495C175.683 53.7166 176.276 54.1268 176.982 54.48C177.688 54.8218 178.526 55.0952 179.494 55.3003C180.463 55.494 181.585 55.5908 182.861 55.5908C184.764 55.5908 186.33 55.3743 187.561 54.9414C188.791 54.5085 189.759 53.9445 190.466 53.2495C191.184 52.5545 191.679 51.7741 191.953 50.9082C192.237 50.0309 192.38 49.1536 192.38 48.2764Z" fill="url(#paint0_linear_12_2)" fill-opacity="0.05"/>
<path d="M710.17 151.534C710.17 152.707 710 153.79 709.658 154.781C709.316 155.761 708.763 156.609 708 157.327C707.248 158.034 706.268 158.586 705.061 158.985C703.853 159.384 702.383 159.583 700.651 159.583H690.124V167H683.784V143.519H700.651C702.383 143.519 703.853 143.718 705.061 144.117C706.268 144.504 707.248 145.057 708 145.774C708.763 146.481 709.316 147.324 709.658 148.304C710 149.284 710.17 150.36 710.17 151.534ZM703.762 151.636C703.762 151.089 703.682 150.622 703.522 150.235C703.374 149.836 703.124 149.511 702.771 149.261C702.417 149.01 701.956 148.828 701.386 148.714C700.817 148.589 700.116 148.526 699.284 148.526H690.124V154.576H699.284C700.116 154.576 700.817 154.53 701.386 154.439C701.956 154.336 702.417 154.171 702.771 153.943C703.124 153.704 703.374 153.396 703.522 153.021C703.682 152.645 703.762 152.183 703.762 151.636ZM745.82 155.276C745.82 157.293 745.45 159.076 744.709 160.625C743.968 162.164 742.909 163.451 741.53 164.488C740.152 165.525 738.477 166.311 736.506 166.846C734.546 167.37 732.342 167.632 729.892 167.632C727.443 167.632 725.227 167.37 723.244 166.846C721.273 166.311 719.593 165.525 718.203 164.488C716.813 163.451 715.742 162.164 714.99 160.625C714.238 159.076 713.862 157.293 713.862 155.276C713.862 153.26 714.238 151.482 714.99 149.944C715.742 148.395 716.813 147.102 718.203 146.065C719.593 145.028 721.273 144.248 723.244 143.724C725.227 143.188 727.443 142.92 729.892 142.92C732.342 142.92 734.546 143.188 736.506 143.724C738.477 144.248 740.152 145.028 741.53 146.065C742.909 147.102 743.968 148.395 744.709 149.944C745.45 151.482 745.82 153.26 745.82 155.276ZM739.411 155.276C739.411 154.399 739.269 153.528 738.984 152.662C738.71 151.784 738.215 150.998 737.497 150.303C736.791 149.608 735.822 149.044 734.592 148.611C733.361 148.178 731.795 147.962 729.892 147.962C728.616 147.962 727.494 148.064 726.525 148.27C725.557 148.463 724.72 148.737 724.013 149.09C723.307 149.443 722.714 149.859 722.236 150.337C721.757 150.805 721.376 151.312 721.091 151.858C720.806 152.394 720.601 152.958 720.476 153.55C720.362 154.131 720.305 154.707 720.305 155.276C720.305 155.857 720.362 156.444 720.476 157.037C720.601 157.629 720.806 158.199 721.091 158.746C721.376 159.281 721.757 159.782 722.236 160.25C722.714 160.717 723.307 161.127 724.013 161.48C724.72 161.822 725.557 162.095 726.525 162.3C727.494 162.494 728.616 162.591 729.892 162.591C731.795 162.591 733.361 162.374 734.592 161.941C735.822 161.508 736.791 160.944 737.497 160.25C738.215 159.555 738.71 158.774 738.984 157.908C739.269 157.031 739.411 156.154 739.411 155.276ZM773.198 148.833C773.027 148.777 772.776 148.702 772.446 148.611C772.127 148.509 771.751 148.412 771.318 148.321C770.885 148.218 770.406 148.133 769.882 148.064C769.37 147.996 768.84 147.962 768.293 147.962C767.154 147.962 766.088 148.104 765.097 148.389C764.117 148.663 763.2 149.033 762.346 149.5C761.491 149.956 760.694 150.48 759.953 151.072C759.224 151.653 758.552 152.251 757.937 152.867V167H751.596V143.519H757.937V147.33C758.7 146.76 759.48 146.213 760.278 145.689C761.087 145.153 761.924 144.681 762.79 144.271C763.667 143.86 764.59 143.536 765.559 143.296C766.527 143.046 767.552 142.92 768.635 142.92C769.045 142.92 769.461 142.943 769.882 142.989C770.315 143.023 770.731 143.069 771.13 143.125C771.54 143.182 771.922 143.245 772.275 143.313C772.628 143.382 772.936 143.45 773.198 143.519V148.833ZM790.39 148.628V167H784.05V148.628H774.086V143.519H800.371V148.628H790.39ZM815.666 148.526C814.925 148.526 814.259 148.554 813.667 148.611C813.085 148.668 812.59 148.805 812.18 149.021C811.77 149.238 811.456 149.563 811.24 149.996C811.023 150.417 810.915 150.998 810.915 151.739V152.61H828.62V157.618H810.915V167H804.575V151.209C804.575 150.001 804.751 148.919 805.104 147.962C805.469 147.005 806.073 146.202 806.916 145.552C807.759 144.891 808.876 144.39 810.266 144.048C811.656 143.695 813.387 143.519 815.461 143.519H829.458V148.526H815.666ZM865.278 155.276C865.278 157.293 864.908 159.076 864.167 160.625C863.426 162.164 862.367 163.451 860.988 164.488C859.61 165.525 857.935 166.311 855.964 166.846C854.004 167.37 851.8 167.632 849.35 167.632C846.901 167.632 844.685 167.37 842.702 166.846C840.731 166.311 839.051 165.525 837.661 164.488C836.271 163.451 835.2 162.164 834.448 160.625C833.696 159.076 833.32 157.293 833.32 155.276C833.32 153.26 833.696 151.482 834.448 149.944C835.2 148.395 836.271 147.102 837.661 146.065C839.051 145.028 840.731 144.248 842.702 143.724C844.685 143.188 846.901 142.92 849.35 142.92C851.8 142.92 854.004 143.188 855.964 143.724C857.935 144.248 859.61 145.028 860.988 146.065C862.367 147.102 863.426 148.395 864.167 149.944C864.908 151.482 865.278 153.26 865.278 155.276ZM858.869 155.276C858.869 154.399 858.727 153.528 858.442 152.662C858.168 151.784 857.673 150.998 856.955 150.303C856.249 149.608 855.28 149.044 854.05 148.611C852.819 148.178 851.253 147.962 849.35 147.962C848.074 147.962 846.952 148.064 845.983 148.27C845.015 148.463 844.178 148.737 843.471 149.09C842.765 149.443 842.172 149.859 841.694 150.337C841.215 150.805 840.834 151.312 840.549 151.858C840.264 152.394 840.059 152.958 839.934 153.55C839.82 154.131 839.763 154.707 839.763 155.276C839.763 155.857 839.82 156.444 839.934 157.037C840.059 157.629 840.264 158.199 840.549 158.746C840.834 159.281 841.215 159.782 841.694 160.25C842.172 160.717 842.765 161.127 843.471 161.48C844.178 161.822 845.015 162.095 845.983 162.3C846.952 162.494 848.074 162.591 849.35 162.591C851.253 162.591 852.819 162.374 854.05 161.941C855.28 161.508 856.249 160.944 856.955 160.25C857.673 159.555 858.168 158.774 858.442 157.908C858.727 157.031 858.869 156.154 858.869 155.276ZM877.395 156.951C877.395 157.931 877.486 158.734 877.668 159.361C877.85 159.976 878.146 160.466 878.557 160.831C878.967 161.195 879.497 161.446 880.146 161.583C880.807 161.719 881.616 161.788 882.573 161.788H894.604V167H881.274C879.428 167 877.856 166.852 876.557 166.556C875.27 166.248 874.216 165.781 873.396 165.154C872.575 164.516 871.977 163.713 871.601 162.745C871.236 161.776 871.054 160.625 871.054 159.292V143.519H877.395V156.951ZM899.697 167V143.519H906.037V167H899.697ZM943.789 155.276C943.789 157.293 943.418 159.076 942.678 160.625C941.937 162.164 940.878 163.451 939.499 164.488C938.12 165.525 936.446 166.311 934.475 166.846C932.515 167.37 930.31 167.632 927.861 167.632C925.411 167.632 923.195 167.37 921.213 166.846C919.242 166.311 917.561 165.525 916.171 164.488C914.781 163.451 913.71 162.164 912.958 160.625C912.207 159.076 911.831 157.293 911.831 155.276C911.831 153.26 912.207 151.482 912.958 149.944C913.71 148.395 914.781 147.102 916.171 146.065C917.561 145.028 919.242 144.248 921.213 143.724C923.195 143.188 925.411 142.92 927.861 142.92C930.31 142.92 932.515 143.188 934.475 143.724C936.446 144.248 938.12 145.028 939.499 146.065C940.878 147.102 941.937 148.395 942.678 149.944C943.418 151.482 943.789 153.26 943.789 155.276ZM937.38 155.276C937.38 154.399 937.237 153.528 936.953 152.662C936.679 151.784 936.184 150.998 935.466 150.303C934.759 149.608 933.791 149.044 932.561 148.611C931.33 148.178 929.764 147.962 927.861 147.962C926.585 147.962 925.463 148.064 924.494 148.27C923.526 148.463 922.688 148.737 921.982 149.09C921.276 149.443 920.683 149.859 920.205 150.337C919.726 150.805 919.344 151.312 919.06 151.858C918.775 152.394 918.57 152.958 918.444 153.55C918.33 154.131 918.273 154.707 918.273 155.276C918.273 155.857 918.33 156.444 918.444 157.037C918.57 157.629 918.775 158.199 919.06 158.746C919.344 159.281 919.726 159.782 920.205 160.25C920.683 160.717 921.276 161.127 921.982 161.48C922.688 161.822 923.526 162.095 924.494 162.3C925.463 162.494 926.585 162.591 927.861 162.591C929.764 162.591 931.33 162.374 932.561 161.941C933.791 161.508 934.759 160.944 935.466 160.25C936.184 159.555 936.679 158.774 936.953 157.908C937.237 157.031 937.38 156.154 937.38 155.276Z" fill="url(#paint1_linear_12_2)" fill-opacity="0.05"/>
<rect width="830" height="200" fill="#090A0C" fill-opacity="0.5"/>
<g filter="url(#filter0_f_12_2)">
<path d="M709.843 -176.399C719.434 -225.68 905.342 -159.197 997.098 -119.796C973.254 -56.2947 920.985 79.3446 902.664 113.895C879.762 157.083 789.973 35.5155 744.838 -4.51722C699.703 -44.5499 818.459 -52.2171 825.099 -90.3435C831.74 -128.47 697.854 -114.798 709.843 -176.399Z" fill="#312E81"/>
</g>
<g filter="url(#filter1_f_12_2)">
<path d="M541.818 17.8779C535.756 48.2366 648.338 160.869 705.387 213.39L675.319 254.281C652.659 233.4 594.529 187.519 543.291 171.044C479.244 150.451 549.396 -20.0706 541.818 17.8779Z" fill="#D946EF"/>
</g>
<g filter="url(#filter2_f_12_2)">
<path d="M476.685 51.4183C426.069 70.0196 422.295 -5.54087 426.735 -45.6463L423.525 -46.5244L453.215 -209.042C481.484 -212.869 550.35 -212.71 599.658 -181.461C661.293 -142.4 539.955 28.1667 476.685 51.4183Z" fill="#38BDF8"/>
<path d="M476.685 51.4183C426.069 70.0196 422.295 -5.54087 426.735 -45.6463L423.525 -46.5244L453.215 -209.042C481.484 -212.869 550.35 -212.71 599.658 -181.461C661.293 -142.4 539.955 28.1667 476.685 51.4183Z" stroke="black"/>
</g>
<g filter="url(#filter3_f_12_2)">
<path d="M124.187 164.548L202 258L91.3616 258L-19.2769 258L-24 72L30.3156 128.674L124.187 164.548Z" fill="url(#paint2_linear_12_2)"/>
</g>
<path d="M327.111 60.8003C328.755 60.8003 330.281 60.9427 331.689 61.2275C333.105 61.5042 334.403 61.8623 335.583 62.3018V66.4033C335.119 66.1429 334.594 65.8906 334.008 65.6465C333.431 65.4023 332.8 65.1867 332.116 64.9995C331.433 64.8123 330.7 64.6618 329.919 64.5479C329.138 64.4339 328.316 64.377 327.453 64.377C326.379 64.377 325.443 64.4543 324.646 64.6089C323.848 64.7635 323.164 64.971 322.595 65.2314C322.025 65.4919 321.557 65.797 321.191 66.147C320.825 66.4888 320.536 66.855 320.324 67.2456C320.113 67.6362 319.966 68.035 319.885 68.4419C319.803 68.8488 319.763 69.2435 319.763 69.626C319.763 69.9596 319.795 70.3218 319.86 70.7124C319.934 71.103 320.064 71.4937 320.251 71.8843C320.446 72.2749 320.715 72.6493 321.057 73.0073C321.398 73.3654 321.842 73.6828 322.387 73.9595C322.941 74.2362 323.604 74.46 324.377 74.6309C325.15 74.7936 326.07 74.875 327.136 74.875C327.673 74.875 328.141 74.8587 328.54 74.8262C328.938 74.7936 329.3 74.7489 329.626 74.6919C329.96 74.6349 330.269 74.5658 330.554 74.4844C330.847 74.403 331.148 74.3175 331.457 74.228V72.2017H326.379V68.5273H335.986V77.0967C335.384 77.3001 334.708 77.4873 333.959 77.6582C333.219 77.821 332.45 77.9593 331.652 78.0732C330.863 78.1953 330.069 78.2889 329.272 78.354C328.474 78.4191 327.722 78.4517 327.014 78.4517C325.915 78.4517 324.861 78.3784 323.852 78.2319C322.843 78.0854 321.899 77.8617 321.02 77.5605C320.149 77.2513 319.352 76.8607 318.627 76.3887C317.911 75.9167 317.297 75.3551 316.784 74.7041C316.28 74.0531 315.885 73.3084 315.6 72.4702C315.323 71.6239 315.185 70.6758 315.185 69.626C315.185 68.5843 315.332 67.6403 315.625 66.7939C315.917 65.9476 316.324 65.1989 316.845 64.5479C317.374 63.8968 318.005 63.3353 318.737 62.8633C319.478 62.3913 320.288 62.0047 321.167 61.7036C322.054 61.3944 322.998 61.1665 323.999 61.02C325.008 60.8735 326.045 60.8003 327.111 60.8003ZM354.345 74.8262H344.995L343.42 78H338.366L347.143 61.2275H352.197L360.974 78H355.92L354.345 74.8262ZM346.618 71.5547H352.746L349.694 65.3779L346.618 71.5547ZM382.849 73.3735C382.849 74.0246 382.763 74.5902 382.592 75.0703C382.421 75.5505 382.181 75.9655 381.872 76.3154C381.571 76.6572 381.205 76.938 380.773 77.1577C380.35 77.3693 379.878 77.5402 379.357 77.6704C378.845 77.7925 378.295 77.8779 377.709 77.9268C377.124 77.9756 376.517 78 375.891 78H363.72V61.2275H375.671C376.151 61.2275 376.631 61.2479 377.111 61.2886C377.6 61.3293 378.063 61.4066 378.503 61.5205C378.942 61.6263 379.349 61.7769 379.724 61.9722C380.106 62.1675 380.436 62.4238 380.712 62.7412C380.997 63.0586 381.217 63.4411 381.372 63.8887C381.534 64.3363 381.616 64.8652 381.616 65.4756C381.616 66.5661 381.347 67.4328 380.81 68.0757C380.273 68.7104 379.427 69.1336 378.271 69.3452C379.085 69.4022 379.781 69.5283 380.358 69.7236C380.944 69.9108 381.42 70.1712 381.787 70.5049C382.153 70.8304 382.421 71.2332 382.592 71.7134C382.763 72.1854 382.849 72.7388 382.849 73.3735ZM377.197 66.1958C377.197 65.9842 377.164 65.7848 377.099 65.5977C377.034 65.4023 376.916 65.2314 376.745 65.085C376.574 64.9385 376.342 64.8205 376.049 64.731C375.756 64.6414 375.382 64.5967 374.926 64.5967H368.249V67.7461H374.926C375.382 67.7461 375.756 67.7054 376.049 67.624C376.342 67.5426 376.574 67.4328 376.745 67.2944C376.916 67.1561 377.034 66.9933 377.099 66.8062C377.164 66.6108 377.197 66.4074 377.197 66.1958ZM378.247 72.8486C378.247 72.4661 378.181 72.161 378.051 71.9331C377.921 71.6971 377.718 71.5181 377.441 71.396C377.164 71.2658 376.806 71.1803 376.367 71.1396C375.927 71.099 375.402 71.0786 374.792 71.0786H368.249V74.6309H374.792C375.402 74.6309 375.927 74.6105 376.367 74.5698C376.806 74.5291 377.164 74.4437 377.441 74.3135C377.718 74.1833 377.921 74.0042 378.051 73.7764C378.181 73.5404 378.247 73.2311 378.247 72.8486ZM386.987 78V61.2275H391.516V78H386.987ZM406.176 78V61.2275H410.705V74.3257H422.949V78H406.176ZM426.586 78V61.2275H431.115V78H426.586ZM436.376 78V61.2275H453.356V64.8042H441.027V67.5752H452.722V71.1519H441.027V74.4233H453.527V78H436.376ZM457.91 78V61.2275H462.438V78H457.91ZM472.229 78H467.7V61.2275H479.052C480.273 61.2275 481.306 61.3537 482.153 61.606C483.007 61.8582 483.699 62.2163 484.228 62.6802C484.765 63.144 485.152 63.7056 485.388 64.3647C485.632 65.0158 485.754 65.7441 485.754 66.5498C485.754 67.2578 485.652 67.8763 485.449 68.4053C485.253 68.9342 484.985 69.39 484.643 69.7725C484.309 70.1468 483.919 70.4642 483.471 70.7246C483.024 70.985 482.552 71.2007 482.055 71.3716L487.548 78H482.25L477.172 71.8232H472.229V78ZM481.176 66.5254C481.176 66.1999 481.132 65.9232 481.042 65.6953C480.961 65.4674 480.814 65.2843 480.603 65.146C480.391 64.9995 480.106 64.8937 479.748 64.8286C479.398 64.7635 478.959 64.731 478.43 64.731H472.229V68.3198H478.43C478.959 68.3198 479.398 68.2873 479.748 68.2222C480.106 68.1571 480.391 68.0553 480.603 67.917C480.814 67.7705 480.961 67.5833 481.042 67.3555C481.132 67.1276 481.176 66.8509 481.176 66.5254ZM504.272 74.8262H494.921L493.347 78H488.293L497.07 61.2275H502.124L510.9 78H505.847L504.272 74.8262ZM496.545 71.5547H502.673L499.621 65.3779L496.545 71.5547ZM513.647 67.3799H510.424L511.547 61.2275H515.551L513.647 67.3799ZM534.252 65.9517C533.935 65.797 533.516 65.6221 532.995 65.4268C532.474 65.2314 531.884 65.0483 531.225 64.8774C530.566 64.6984 529.85 64.5519 529.077 64.438C528.304 64.3159 527.51 64.2549 526.696 64.2549C526.045 64.2549 525.488 64.2752 525.024 64.3159C524.568 64.3566 524.182 64.4095 523.864 64.4746C523.555 64.5397 523.307 64.617 523.12 64.7065C522.941 64.7879 522.802 64.8734 522.705 64.9629C522.607 65.0524 522.542 65.1419 522.509 65.2314C522.485 65.321 522.473 65.4023 522.473 65.4756C522.473 65.7197 522.595 65.9354 522.839 66.1226C523.083 66.3016 523.417 66.4644 523.84 66.6108C524.263 66.7492 524.755 66.8835 525.317 67.0137C525.878 67.1357 526.472 67.266 527.099 67.4043C527.734 67.5345 528.385 67.681 529.052 67.8438C529.728 67.9984 530.379 68.1815 531.005 68.3931C531.64 68.6047 532.238 68.8529 532.8 69.1377C533.361 69.4144 533.854 69.7399 534.277 70.1143C534.7 70.4886 535.034 70.9199 535.278 71.4082C535.522 71.8965 535.644 72.4539 535.644 73.0806C535.644 73.8862 535.502 74.578 535.217 75.1558C534.932 75.7336 534.549 76.2218 534.069 76.6206C533.597 77.0194 533.048 77.3408 532.421 77.585C531.795 77.821 531.136 78.0041 530.444 78.1343C529.76 78.2645 529.064 78.3499 528.356 78.3906C527.657 78.4313 526.989 78.4517 526.354 78.4517C524.694 78.4517 523.156 78.3133 521.74 78.0366C520.332 77.7681 519.087 77.4303 518.005 77.0234V73.0195C519.12 73.638 520.389 74.1222 521.813 74.4722C523.246 74.8221 524.776 74.9971 526.403 74.9971C527.364 74.9971 528.145 74.9482 528.747 74.8506C529.357 74.7448 529.833 74.6146 530.175 74.46C530.517 74.2972 530.749 74.1222 530.871 73.9351C530.993 73.7479 531.054 73.5688 531.054 73.3979C531.054 73.1294 530.932 72.8975 530.688 72.7021C530.444 72.4987 530.11 72.3237 529.687 72.1772C529.264 72.0226 528.771 71.8843 528.21 71.7622C527.648 71.632 527.05 71.5059 526.416 71.3838C525.789 71.2536 525.142 71.1152 524.475 70.9688C523.807 70.8223 523.156 70.6514 522.521 70.4561C521.895 70.2526 521.301 70.0207 520.739 69.7603C520.178 69.4917 519.685 69.1784 519.262 68.8203C518.839 68.4541 518.505 68.035 518.261 67.563C518.017 67.0828 517.895 66.5295 517.895 65.9028C517.895 65.1623 518.025 64.5234 518.286 63.9863C518.546 63.4492 518.896 62.9935 519.335 62.6191C519.783 62.2367 520.296 61.9274 520.874 61.6914C521.459 61.4554 522.074 61.2723 522.717 61.1421C523.36 61.0119 524.011 60.9224 524.67 60.8735C525.329 60.8247 525.956 60.8003 526.55 60.8003C527.201 60.8003 527.868 60.8328 528.552 60.8979C529.243 60.9631 529.923 61.0566 530.59 61.1787C531.258 61.2926 531.901 61.4269 532.519 61.5815C533.146 61.7362 533.723 61.8989 534.252 62.0698V65.9517Z" fill="#EAEAEA"/>
<g filter="url(#filter4_d_12_2)">
<mask id="path-9-outside-1_12_2" maskUnits="userSpaceOnUse" x="217" y="88" width="419" height="43" fill="black">
<rect fill="white" x="217" y="88" width="419" height="43"/>
<path d="M260.634 103.696C260.634 105.54 260.366 107.241 259.829 108.798C259.292 110.338 258.423 111.672 257.224 112.8C256.042 113.91 254.502 114.778 252.604 115.405C250.707 116.031 248.397 116.345 245.676 116.345H229.133V128H219.169V91.1006H245.676C248.397 91.1006 250.707 91.4139 252.604 92.0405C254.502 92.6493 256.042 93.5176 257.224 94.6455C258.423 95.7555 259.292 97.0804 259.829 98.6201C260.366 100.16 260.634 101.852 260.634 103.696ZM250.563 103.857C250.563 102.998 250.438 102.264 250.188 101.655C249.955 101.028 249.561 100.518 249.006 100.124C248.451 99.7301 247.726 99.4437 246.831 99.2646C245.935 99.0677 244.834 98.9692 243.527 98.9692H229.133V108.476H243.527C244.834 108.476 245.935 108.404 246.831 108.261C247.726 108.1 248.451 107.84 249.006 107.482C249.561 107.106 249.955 106.623 250.188 106.032C250.438 105.441 250.563 104.716 250.563 103.857ZM316.655 109.577C316.655 112.746 316.073 115.548 314.909 117.983C313.745 120.4 312.08 122.423 309.914 124.052C307.748 125.681 305.116 126.917 302.019 127.758C298.939 128.582 295.475 128.994 291.625 128.994C287.776 128.994 284.294 128.582 281.179 127.758C278.081 126.917 275.441 125.681 273.256 124.052C271.072 122.423 269.389 120.4 268.208 117.983C267.026 115.548 266.435 112.746 266.435 109.577C266.435 106.408 267.026 103.615 268.208 101.198C269.389 98.7633 271.072 96.7313 273.256 95.1021C275.441 93.4728 278.081 92.2464 281.179 91.4229C284.294 90.5814 287.776 90.1606 291.625 90.1606C295.475 90.1606 298.939 90.5814 302.019 91.4229C305.116 92.2464 307.748 93.4728 309.914 95.1021C312.08 96.7313 313.745 98.7633 314.909 101.198C316.073 103.615 316.655 106.408 316.655 109.577ZM306.584 109.577C306.584 108.199 306.36 106.829 305.913 105.468C305.483 104.09 304.704 102.854 303.576 101.762C302.466 100.67 300.944 99.7839 299.011 99.1035C297.077 98.4232 294.615 98.083 291.625 98.083C289.62 98.083 287.857 98.2441 286.335 98.5664C284.813 98.8708 283.497 99.3005 282.387 99.8555C281.277 100.41 280.346 101.064 279.594 101.816C278.842 102.55 278.243 103.347 277.795 104.206C277.347 105.048 277.025 105.934 276.828 106.865C276.649 107.778 276.56 108.682 276.56 109.577C276.56 110.49 276.649 111.412 276.828 112.343C277.025 113.274 277.347 114.169 277.795 115.029C278.243 115.87 278.842 116.658 279.594 117.392C280.346 118.126 281.277 118.771 282.387 119.326C283.497 119.863 284.813 120.292 286.335 120.615C287.857 120.919 289.62 121.071 291.625 121.071C294.615 121.071 297.077 120.731 299.011 120.051C300.944 119.37 302.466 118.484 303.576 117.392C304.704 116.3 305.483 115.074 305.913 113.713C306.36 112.334 306.584 110.956 306.584 109.577ZM335.695 128H325.732V91.1006H350.708C353.393 91.1006 355.667 91.3781 357.529 91.9331C359.409 92.4881 360.931 93.2759 362.094 94.2964C363.276 95.3169 364.126 96.5522 364.646 98.0024C365.183 99.4347 365.451 101.037 365.451 102.81C365.451 104.367 365.227 105.728 364.78 106.892C364.35 108.055 363.759 109.058 363.007 109.899C362.273 110.723 361.414 111.421 360.429 111.994C359.444 112.567 358.406 113.042 357.314 113.417L369.399 128H357.744L346.572 114.411H335.695V128ZM355.38 102.756C355.38 102.04 355.282 101.431 355.085 100.93C354.906 100.428 354.584 100.026 354.118 99.7212C353.653 99.3989 353.026 99.1662 352.238 99.0229C351.468 98.8797 350.502 98.8081 349.338 98.8081H335.695V106.704H349.338C350.502 106.704 351.468 106.632 352.238 106.489C353.026 106.346 353.653 106.122 354.118 105.817C354.584 105.495 354.906 105.083 355.085 104.582C355.282 104.081 355.38 103.472 355.38 102.756ZM397.221 99.1304V128H387.258V99.1304H371.601V91.1006H412.905V99.1304H397.221ZM429.475 98.9692V105.388H453.457V113.256H429.475V128H419.511V91.1006H454.772V98.9692H429.475ZM511.035 109.577C511.035 112.746 510.453 115.548 509.289 117.983C508.125 120.4 506.46 122.423 504.294 124.052C502.128 125.681 499.496 126.917 496.398 127.758C493.319 128.582 489.855 128.994 486.005 128.994C482.156 128.994 478.674 128.582 475.559 127.758C472.461 126.917 469.82 125.681 467.636 124.052C465.452 122.423 463.769 120.4 462.587 117.983C461.406 115.548 460.815 112.746 460.815 109.577C460.815 106.408 461.406 103.615 462.587 101.198C463.769 98.7633 465.452 96.7313 467.636 95.1021C469.82 93.4728 472.461 92.2464 475.559 91.4229C478.674 90.5814 482.156 90.1606 486.005 90.1606C489.855 90.1606 493.319 90.5814 496.398 91.4229C499.496 92.2464 502.128 93.4728 504.294 95.1021C506.46 96.7313 508.125 98.7633 509.289 101.198C510.453 103.615 511.035 106.408 511.035 109.577ZM500.964 109.577C500.964 108.199 500.74 106.829 500.292 105.468C499.863 104.09 499.084 102.854 497.956 101.762C496.846 100.67 495.324 99.7839 493.391 99.1035C491.457 98.4232 488.995 98.083 486.005 98.083C484 98.083 482.237 98.2441 480.715 98.5664C479.193 98.8708 477.877 99.3005 476.767 99.8555C475.657 100.41 474.726 101.064 473.974 101.816C473.222 102.55 472.622 103.347 472.175 104.206C471.727 105.048 471.405 105.934 471.208 106.865C471.029 107.778 470.939 108.682 470.939 109.577C470.939 110.49 471.029 111.412 471.208 112.343C471.405 113.274 471.727 114.169 472.175 115.029C472.622 115.87 473.222 116.658 473.974 117.392C474.726 118.126 475.657 118.771 476.767 119.326C477.877 119.863 479.193 120.292 480.715 120.615C482.237 120.919 484 121.071 486.005 121.071C488.995 121.071 491.457 120.731 493.391 120.051C495.324 119.37 496.846 118.484 497.956 117.392C499.084 116.3 499.863 115.074 500.292 113.713C500.74 112.334 500.964 110.956 500.964 109.577ZM520.112 128V91.1006H530.075V119.917H557.011V128H520.112ZM565.014 128V91.1006H574.978V128H565.014ZM634.301 109.577C634.301 112.746 633.719 115.548 632.556 117.983C631.392 120.4 629.727 122.423 627.561 124.052C625.394 125.681 622.762 126.917 619.665 127.758C616.586 128.582 613.121 128.994 609.272 128.994C605.423 128.994 601.94 128.582 598.825 127.758C595.728 126.917 593.087 125.681 590.903 124.052C588.719 122.423 587.036 120.4 585.854 117.983C584.672 115.548 584.082 112.746 584.082 109.577C584.082 106.408 584.672 103.615 585.854 101.198C587.036 98.7633 588.719 96.7313 590.903 95.1021C593.087 93.4728 595.728 92.2464 598.825 91.4229C601.94 90.5814 605.423 90.1606 609.272 90.1606C613.121 90.1606 616.586 90.5814 619.665 91.4229C622.762 92.2464 625.394 93.4728 627.561 95.1021C629.727 96.7313 631.392 98.7633 632.556 101.198C633.719 103.615 634.301 106.408 634.301 109.577ZM624.23 109.577C624.23 108.199 624.007 106.829 623.559 105.468C623.129 104.09 622.351 102.854 621.223 101.762C620.113 100.67 618.591 99.7839 616.657 99.1035C614.724 98.4232 612.262 98.083 609.272 98.083C607.267 98.083 605.503 98.2441 603.981 98.5664C602.46 98.8708 601.144 99.3005 600.034 99.8555C598.924 100.41 597.993 101.064 597.241 101.816C596.489 102.55 595.889 103.347 595.441 104.206C594.994 105.048 594.672 105.934 594.475 106.865C594.296 107.778 594.206 108.682 594.206 109.577C594.206 110.49 594.296 111.412 594.475 112.343C594.672 113.274 594.994 114.169 595.441 115.029C595.889 115.87 596.489 116.658 597.241 117.392C597.993 118.126 598.924 118.771 600.034 119.326C601.144 119.863 602.46 120.292 603.981 120.615C605.503 120.919 607.267 121.071 609.272 121.071C612.262 121.071 614.724 120.731 616.657 120.051C618.591 119.37 620.113 118.484 621.223 117.392C622.351 116.3 623.129 115.074 623.559 113.713C624.007 112.334 624.23 110.956 624.23 109.577Z"/>
</mask>
<path d="M260.634 103.696C260.634 105.54 260.366 107.241 259.829 108.798C259.292 110.338 258.423 111.672 257.224 112.8C256.042 113.91 254.502 114.778 252.604 115.405C250.707 116.031 248.397 116.345 245.676 116.345H229.133V128H219.169V91.1006H245.676C248.397 91.1006 250.707 91.4139 252.604 92.0405C254.502 92.6493 256.042 93.5176 257.224 94.6455C258.423 95.7555 259.292 97.0804 259.829 98.6201C260.366 100.16 260.634 101.852 260.634 103.696ZM250.563 103.857C250.563 102.998 250.438 102.264 250.188 101.655C249.955 101.028 249.561 100.518 249.006 100.124C248.451 99.7301 247.726 99.4437 246.831 99.2646C245.935 99.0677 244.834 98.9692 243.527 98.9692H229.133V108.476H243.527C244.834 108.476 245.935 108.404 246.831 108.261C247.726 108.1 248.451 107.84 249.006 107.482C249.561 107.106 249.955 106.623 250.188 106.032C250.438 105.441 250.563 104.716 250.563 103.857ZM316.655 109.577C316.655 112.746 316.073 115.548 314.909 117.983C313.745 120.4 312.08 122.423 309.914 124.052C307.748 125.681 305.116 126.917 302.019 127.758C298.939 128.582 295.475 128.994 291.625 128.994C287.776 128.994 284.294 128.582 281.179 127.758C278.081 126.917 275.441 125.681 273.256 124.052C271.072 122.423 269.389 120.4 268.208 117.983C267.026 115.548 266.435 112.746 266.435 109.577C266.435 106.408 267.026 103.615 268.208 101.198C269.389 98.7633 271.072 96.7313 273.256 95.1021C275.441 93.4728 278.081 92.2464 281.179 91.4229C284.294 90.5814 287.776 90.1606 291.625 90.1606C295.475 90.1606 298.939 90.5814 302.019 91.4229C305.116 92.2464 307.748 93.4728 309.914 95.1021C312.08 96.7313 313.745 98.7633 314.909 101.198C316.073 103.615 316.655 106.408 316.655 109.577ZM306.584 109.577C306.584 108.199 306.36 106.829 305.913 105.468C305.483 104.09 304.704 102.854 303.576 101.762C302.466 100.67 300.944 99.7839 299.011 99.1035C297.077 98.4232 294.615 98.083 291.625 98.083C289.62 98.083 287.857 98.2441 286.335 98.5664C284.813 98.8708 283.497 99.3005 282.387 99.8555C281.277 100.41 280.346 101.064 279.594 101.816C278.842 102.55 278.243 103.347 277.795 104.206C277.347 105.048 277.025 105.934 276.828 106.865C276.649 107.778 276.56 108.682 276.56 109.577C276.56 110.49 276.649 111.412 276.828 112.343C277.025 113.274 277.347 114.169 277.795 115.029C278.243 115.87 278.842 116.658 279.594 117.392C280.346 118.126 281.277 118.771 282.387 119.326C283.497 119.863 284.813 120.292 286.335 120.615C287.857 120.919 289.62 121.071 291.625 121.071C294.615 121.071 297.077 120.731 299.011 120.051C300.944 119.37 302.466 118.484 303.576 117.392C304.704 116.3 305.483 115.074 305.913 113.713C306.36 112.334 306.584 110.956 306.584 109.577ZM335.695 128H325.732V91.1006H350.708C353.393 91.1006 355.667 91.3781 357.529 91.9331C359.409 92.4881 360.931 93.2759 362.094 94.2964C363.276 95.3169 364.126 96.5522 364.646 98.0024C365.183 99.4347 365.451 101.037 365.451 102.81C365.451 104.367 365.227 105.728 364.78 106.892C364.35 108.055 363.759 109.058 363.007 109.899C362.273 110.723 361.414 111.421 360.429 111.994C359.444 112.567 358.406 113.042 357.314 113.417L369.399 128H357.744L346.572 114.411H335.695V128ZM355.38 102.756C355.38 102.04 355.282 101.431 355.085 100.93C354.906 100.428 354.584 100.026 354.118 99.7212C353.653 99.3989 353.026 99.1662 352.238 99.0229C351.468 98.8797 350.502 98.8081 349.338 98.8081H335.695V106.704H349.338C350.502 106.704 351.468 106.632 352.238 106.489C353.026 106.346 353.653 106.122 354.118 105.817C354.584 105.495 354.906 105.083 355.085 104.582C355.282 104.081 355.38 103.472 355.38 102.756ZM397.221 99.1304V128H387.258V99.1304H371.601V91.1006H412.905V99.1304H397.221ZM429.475 98.9692V105.388H453.457V113.256H429.475V128H419.511V91.1006H454.772V98.9692H429.475ZM511.035 109.577C511.035 112.746 510.453 115.548 509.289 117.983C508.125 120.4 506.46 122.423 504.294 124.052C502.128 125.681 499.496 126.917 496.398 127.758C493.319 128.582 489.855 128.994 486.005 128.994C482.156 128.994 478.674 128.582 475.559 127.758C472.461 126.917 469.82 125.681 467.636 124.052C465.452 122.423 463.769 120.4 462.587 117.983C461.406 115.548 460.815 112.746 460.815 109.577C460.815 106.408 461.406 103.615 462.587 101.198C463.769 98.7633 465.452 96.7313 467.636 95.1021C469.82 93.4728 472.461 92.2464 475.559 91.4229C478.674 90.5814 482.156 90.1606 486.005 90.1606C489.855 90.1606 493.319 90.5814 496.398 91.4229C499.496 92.2464 502.128 93.4728 504.294 95.1021C506.46 96.7313 508.125 98.7633 509.289 101.198C510.453 103.615 511.035 106.408 511.035 109.577ZM500.964 109.577C500.964 108.199 500.74 106.829 500.292 105.468C499.863 104.09 499.084 102.854 497.956 101.762C496.846 100.67 495.324 99.7839 493.391 99.1035C491.457 98.4232 488.995 98.083 486.005 98.083C484 98.083 482.237 98.2441 480.715 98.5664C479.193 98.8708 477.877 99.3005 476.767 99.8555C475.657 100.41 474.726 101.064 473.974 101.816C473.222 102.55 472.622 103.347 472.175 104.206C471.727 105.048 471.405 105.934 471.208 106.865C471.029 107.778 470.939 108.682 470.939 109.577C470.939 110.49 471.029 111.412 471.208 112.343C471.405 113.274 471.727 114.169 472.175 115.029C472.622 115.87 473.222 116.658 473.974 117.392C474.726 118.126 475.657 118.771 476.767 119.326C477.877 119.863 479.193 120.292 480.715 120.615C482.237 120.919 484 121.071 486.005 121.071C488.995 121.071 491.457 120.731 493.391 120.051C495.324 119.37 496.846 118.484 497.956 117.392C499.084 116.3 499.863 115.074 500.292 113.713C500.74 112.334 500.964 110.956 500.964 109.577ZM520.112 128V91.1006H530.075V119.917H557.011V128H520.112ZM565.014 128V91.1006H574.978V128H565.014ZM634.301 109.577C634.301 112.746 633.719 115.548 632.556 117.983C631.392 120.4 629.727 122.423 627.561 124.052C625.394 125.681 622.762 126.917 619.665 127.758C616.586 128.582 613.121 128.994 609.272 128.994C605.423 128.994 601.94 128.582 598.825 127.758C595.728 126.917 593.087 125.681 590.903 124.052C588.719 122.423 587.036 120.4 585.854 117.983C584.672 115.548 584.082 112.746 584.082 109.577C584.082 106.408 584.672 103.615 585.854 101.198C587.036 98.7633 588.719 96.7313 590.903 95.1021C593.087 93.4728 595.728 92.2464 598.825 91.4229C601.94 90.5814 605.423 90.1606 609.272 90.1606C613.121 90.1606 616.586 90.5814 619.665 91.4229C622.762 92.2464 625.394 93.4728 627.561 95.1021C629.727 96.7313 631.392 98.7633 632.556 101.198C633.719 103.615 634.301 106.408 634.301 109.577ZM624.23 109.577C624.23 108.199 624.007 106.829 623.559 105.468C623.129 104.09 622.351 102.854 621.223 101.762C620.113 100.67 618.591 99.7839 616.657 99.1035C614.724 98.4232 612.262 98.083 609.272 98.083C607.267 98.083 605.503 98.2441 603.981 98.5664C602.46 98.8708 601.144 99.3005 600.034 99.8555C598.924 100.41 597.993 101.064 597.241 101.816C596.489 102.55 595.889 103.347 595.441 104.206C594.994 105.048 594.672 105.934 594.475 106.865C594.296 107.778 594.206 108.682 594.206 109.577C594.206 110.49 594.296 111.412 594.475 112.343C594.672 113.274 594.994 114.169 595.441 115.029C595.889 115.87 596.489 116.658 597.241 117.392C597.993 118.126 598.924 118.771 600.034 119.326C601.144 119.863 602.46 120.292 603.981 120.615C605.503 120.919 607.267 121.071 609.272 121.071C612.262 121.071 614.724 120.731 616.657 120.051C618.591 119.37 620.113 118.484 621.223 117.392C622.351 116.3 623.129 115.074 623.559 113.713C624.007 112.334 624.23 110.956 624.23 109.577Z" fill="url(#paint3_linear_12_2)"/>
<path d="M259.829 108.798L261.081 109.235L261.083 109.231L259.829 108.798ZM257.224 112.8L258.132 113.767L258.132 113.766L257.224 112.8ZM229.133 116.345V115.018H227.806V116.345H229.133ZM229.133 128V129.326H230.459V128H229.133ZM219.169 128H217.843V129.326H219.169V128ZM219.169 91.1006V89.7742H217.843V91.1006H219.169ZM252.604 92.0405L252.189 93.3001L252.199 93.3035L252.604 92.0405ZM257.224 94.6455L256.308 95.6049L256.315 95.612L256.323 95.619L257.224 94.6455ZM250.188 101.655L248.944 102.117L248.952 102.138L248.961 102.16L250.188 101.655ZM249.006 100.124L248.238 101.206L249.006 100.124ZM246.831 99.2646L246.546 100.56L246.558 100.563L246.57 100.565L246.831 99.2646ZM229.133 98.9692V97.6429H227.806V98.9692H229.133ZM229.133 108.476H227.806V109.802H229.133V108.476ZM246.831 108.261L247.04 109.571L247.053 109.569L247.066 109.567L246.831 108.261ZM249.006 107.482L249.725 108.597L249.737 108.589L249.75 108.581L249.006 107.482ZM250.188 106.032L248.966 105.514L248.96 105.53L248.953 105.546L250.188 106.032ZM259.308 103.696C259.308 105.41 259.058 106.963 258.575 108.366L261.083 109.231C261.673 107.518 261.961 105.67 261.961 103.696H259.308ZM258.576 108.361C258.11 109.698 257.361 110.85 256.315 111.834L258.132 113.766C259.486 112.493 260.473 110.979 261.081 109.235L258.576 108.361ZM256.316 111.833C255.304 112.784 253.945 113.565 252.189 114.145L253.02 116.664C255.06 115.991 256.78 115.036 258.132 113.767L256.316 111.833ZM252.189 114.145C250.464 114.715 248.303 115.018 245.676 115.018V117.671C248.491 117.671 250.95 117.348 253.02 116.664L252.189 114.145ZM245.676 115.018H229.133V117.671H245.676V115.018ZM227.806 116.345V128H230.459V116.345H227.806ZM229.133 126.674H219.169V129.326H229.133V126.674ZM220.496 128V91.1006H217.843V128H220.496ZM219.169 92.4269H245.676V89.7742H219.169V92.4269ZM245.676 92.4269C248.303 92.4269 250.464 92.7304 252.189 93.3L253.02 90.781C250.95 90.0973 248.491 89.7742 245.676 89.7742V92.4269ZM252.199 93.3035C253.947 93.8642 255.3 94.6426 256.308 95.6049L258.139 93.6861C256.784 92.3925 255.057 91.4343 253.01 90.7775L252.199 93.3035ZM256.323 95.619C257.363 96.582 258.111 97.7227 258.576 99.057L261.081 98.1833C260.472 96.4381 259.483 94.9291 258.124 93.672L256.323 95.619ZM258.576 99.057C259.058 100.439 259.308 101.981 259.308 103.696H261.961C261.961 101.722 261.673 99.8805 261.081 98.1833L258.576 99.057ZM251.89 103.857C251.89 102.875 251.747 101.959 251.414 101.15L248.961 102.16C249.129 102.568 249.237 103.12 249.237 103.857H251.89ZM251.431 101.193C251.104 100.312 250.542 99.5874 249.773 99.0424L248.238 101.206C248.58 101.448 248.806 101.744 248.944 102.117L251.431 101.193ZM249.773 99.0424C249.024 98.5106 248.109 98.1678 247.091 97.964L246.57 100.565C247.342 100.72 247.878 100.95 248.238 101.206L249.773 99.0424ZM247.116 97.9693C246.097 97.7451 244.893 97.6429 243.527 97.6429V100.296C244.775 100.296 245.774 100.39 246.546 100.56L247.116 97.9693ZM243.527 97.6429H229.133V100.296H243.527V97.6429ZM227.806 98.9692V108.476H230.459V98.9692H227.806ZM229.133 109.802H243.527V107.15H229.133V109.802ZM243.527 109.802C244.877 109.802 246.053 109.729 247.04 109.571L246.621 106.952C245.818 107.08 244.792 107.15 243.527 107.15V109.802ZM247.066 109.567C248.072 109.385 248.978 109.079 249.725 108.597L248.287 106.368C247.923 106.602 247.379 106.815 246.596 106.956L247.066 109.567ZM249.75 108.581C250.513 108.063 251.085 107.372 251.422 106.518L248.953 105.546C248.824 105.874 248.609 106.149 248.262 106.384L249.75 108.581ZM251.409 106.55C251.748 105.75 251.89 104.837 251.89 103.857H249.237C249.237 104.595 249.128 105.133 248.966 105.514L251.409 106.55ZM314.909 117.983L316.104 118.558L316.106 118.555L314.909 117.983ZM309.914 124.052L309.117 122.992L309.914 124.052ZM302.019 127.758L302.361 129.04L302.366 129.038L302.019 127.758ZM281.179 127.758L280.831 129.038L280.84 129.041L281.179 127.758ZM268.208 117.983L267.014 118.562L267.016 118.565L268.208 117.983ZM268.208 101.198L269.399 101.781L269.401 101.777L268.208 101.198ZM281.179 91.4229L281.52 92.7047L281.525 92.7033L281.179 91.4229ZM302.019 91.4229L301.669 92.7023L301.678 92.7047L302.019 91.4229ZM314.909 101.198L313.712 101.77L313.714 101.774L314.909 101.198ZM305.913 105.468L304.646 105.863L304.649 105.873L304.653 105.883L305.913 105.468ZM303.576 101.762L302.646 102.708L302.654 102.715L303.576 101.762ZM286.335 98.5664L286.595 99.867L286.602 99.8655L286.61 99.864L286.335 98.5664ZM279.594 101.816L280.521 102.765L280.526 102.759L280.532 102.754L279.594 101.816ZM277.795 104.206L278.966 104.829L278.971 104.819L277.795 104.206ZM276.828 106.865L275.53 106.59L275.528 106.6L275.527 106.61L276.828 106.865ZM276.828 112.343L275.526 112.594L275.528 112.606L275.53 112.618L276.828 112.343ZM277.795 115.029L276.619 115.642L276.624 115.652L277.795 115.029ZM282.387 119.326L281.794 120.512L281.802 120.516L281.809 120.52L282.387 119.326ZM286.335 120.615L286.06 121.912L286.068 121.914L286.075 121.915L286.335 120.615ZM303.576 117.392L302.654 116.439L302.646 116.447L303.576 117.392ZM305.913 113.713L304.651 113.303L304.648 113.313L305.913 113.713ZM315.328 109.577C315.328 112.582 314.777 115.183 313.712 117.411L316.106 118.555C317.369 115.913 317.981 112.91 317.981 109.577H315.328ZM313.714 117.408C312.643 119.631 311.116 121.489 309.117 122.992L310.711 125.112C313.045 123.357 314.848 121.168 316.104 118.558L313.714 117.408ZM309.117 122.992C307.107 124.503 304.635 125.673 301.671 126.478L302.366 129.038C305.597 128.161 308.388 126.859 310.711 125.112L309.117 122.992ZM301.676 126.477C298.729 127.265 295.382 127.667 291.625 127.667V130.32C295.567 130.32 299.15 129.899 302.361 129.04L301.676 126.477ZM291.625 127.667C287.869 127.667 284.503 127.265 281.518 126.476L280.84 129.041C284.085 129.898 287.683 130.32 291.625 130.32V127.667ZM281.526 126.478C278.562 125.673 276.079 124.503 274.049 122.989L272.463 125.115C274.803 126.86 277.601 128.161 280.831 129.038L281.526 126.478ZM274.049 122.989C272.032 121.484 270.487 119.625 269.399 117.4L267.016 118.565C268.292 121.175 270.112 123.362 272.463 125.115L274.049 122.989ZM269.401 117.404C268.32 115.178 267.761 112.58 267.761 109.577H265.109C265.109 112.913 265.731 115.918 267.014 118.562L269.401 117.404ZM267.761 109.577C267.761 106.574 268.321 103.987 269.399 101.781L267.016 100.616C265.731 103.244 265.109 106.242 265.109 109.577H267.761ZM269.401 101.777C270.489 99.5349 272.034 97.6684 274.049 96.1652L272.463 94.0389C270.11 95.7942 268.289 97.9918 267.014 100.619L269.401 101.777ZM274.049 96.1652C276.077 94.6531 278.557 93.4923 281.52 92.7047L280.838 90.141C277.606 91.0005 274.805 92.2925 272.463 94.0389L274.049 96.1652ZM281.525 92.7033C284.508 91.8975 287.871 91.487 291.625 91.487V88.8343C287.681 88.8343 284.08 89.2653 280.833 90.1424L281.525 92.7033ZM291.625 91.487C295.38 91.487 298.724 91.8976 301.669 92.7023L302.368 90.1434C299.154 89.2652 295.57 88.8343 291.625 88.8343V91.487ZM301.678 92.7047C304.64 93.4922 307.109 94.6524 309.117 96.1621L310.711 94.042C308.386 92.2933 305.592 91.0006 302.359 90.141L301.678 92.7047ZM309.117 96.1621C311.114 97.6637 312.641 99.5286 313.712 101.77L316.106 100.626C314.85 97.9981 313.047 95.7989 310.711 94.042L309.117 96.1621ZM313.714 101.774C314.777 103.981 315.328 106.572 315.328 109.577H317.981C317.981 106.245 317.369 103.249 316.104 100.623L313.714 101.774ZM307.91 109.577C307.91 108.052 307.662 106.543 307.173 105.054L304.653 105.883C305.058 107.115 305.258 108.345 305.258 109.577H307.91ZM307.179 105.074C306.677 103.465 305.772 102.042 304.499 100.809L302.654 102.715C303.636 103.667 304.288 104.714 304.646 105.863L307.179 105.074ZM304.506 100.817C303.221 99.5519 301.513 98.5778 299.451 97.8523L298.571 100.355C300.376 100.99 301.711 101.788 302.646 102.708L304.506 100.817ZM299.451 97.8523C297.327 97.105 294.703 96.7566 291.625 96.7566V99.4094C294.528 99.4094 296.827 99.7413 298.571 100.355L299.451 97.8523ZM291.625 96.7566C289.553 96.7566 287.694 96.9229 286.06 97.2688L286.61 99.864C288.02 99.5654 289.688 99.4094 291.625 99.4094V96.7566ZM286.075 97.2658C284.465 97.5878 283.032 98.0502 281.794 98.6691L282.98 101.042C283.962 100.551 285.161 100.154 286.595 99.867L286.075 97.2658ZM281.794 98.6691C280.577 99.2775 279.524 100.01 278.656 100.878L280.532 102.754C281.168 102.118 281.977 101.543 282.98 101.042L281.794 98.6691ZM278.668 100.867C277.824 101.691 277.136 102.599 276.619 103.593L278.971 104.819C279.349 104.094 279.861 103.409 280.521 102.765L278.668 100.867ZM276.624 103.583C276.118 104.534 275.753 105.538 275.53 106.59L278.126 107.139C278.297 106.33 278.577 105.561 278.966 104.829L276.624 103.583ZM275.527 106.61C275.332 107.603 275.233 108.593 275.233 109.577H277.886C277.886 108.771 277.967 107.952 278.13 107.12L275.527 106.61ZM275.233 109.577C275.233 110.577 275.331 111.583 275.526 112.594L278.131 112.093C277.967 111.241 277.886 110.403 277.886 109.577H275.233ZM275.53 112.618C275.753 113.669 276.116 114.677 276.619 115.641L278.971 114.416C278.578 113.661 278.297 112.88 278.126 112.069L275.53 112.618ZM276.624 115.652C277.142 116.626 277.828 117.521 278.668 118.341L280.521 116.443C279.857 115.795 279.343 115.115 278.966 114.406L276.624 115.652ZM278.668 118.341C279.534 119.187 280.583 119.906 281.794 120.512L282.98 118.139C281.971 117.635 281.159 117.066 280.521 116.443L278.668 118.341ZM281.809 120.52C283.037 121.114 284.459 121.573 286.06 121.912L286.61 119.317C285.167 119.012 283.957 118.612 282.965 118.132L281.809 120.52ZM286.075 121.915C287.703 122.241 289.557 122.398 291.625 122.398V119.745C289.684 119.745 288.011 119.597 286.595 119.314L286.075 121.915ZM291.625 122.398C294.703 122.398 297.327 122.049 299.451 121.302L298.571 118.8C296.827 119.413 294.528 119.745 291.625 119.745V122.398ZM299.451 121.302C301.513 120.577 303.221 119.602 304.506 118.338L302.646 116.447C301.711 117.366 300.376 118.164 298.571 118.8L299.451 121.302ZM304.499 118.345C305.769 117.115 306.675 115.704 307.177 114.112L304.648 113.313C304.291 114.444 303.639 115.485 302.654 116.439L304.499 118.345ZM307.174 114.122C307.662 112.618 307.91 111.102 307.91 109.577H305.258C305.258 110.81 305.058 112.05 304.651 113.303L307.174 114.122ZM335.695 128V129.326H337.022V128H335.695ZM325.732 128H324.406V129.326H325.732V128ZM325.732 91.1006V89.7742H324.406V91.1006H325.732ZM357.529 91.9331L357.15 93.2042L357.153 93.2052L357.529 91.9331ZM362.094 94.2964L361.22 95.2937L361.227 95.3002L362.094 94.2964ZM364.646 98.0024L363.397 98.4495L363.4 98.4589L363.404 98.4682L364.646 98.0024ZM364.78 106.892L363.542 106.415L363.539 106.424L363.536 106.432L364.78 106.892ZM363.007 109.899L362.018 109.016L362.017 109.017L363.007 109.899ZM357.314 113.417L356.882 112.163L355.069 112.787L356.293 114.264L357.314 113.417ZM369.399 128V129.326H372.221L370.42 127.154L369.399 128ZM357.744 128L356.719 128.842L357.117 129.326H357.744V128ZM346.572 114.411L347.596 113.569L347.198 113.085H346.572V114.411ZM335.695 114.411V113.085H334.369V114.411H335.695ZM355.085 100.93L353.836 101.376L353.843 101.395L353.85 101.415L355.085 100.93ZM354.118 99.7212L353.363 100.812L353.378 100.822L353.392 100.831L354.118 99.7212ZM352.238 99.0229L351.996 100.327L352.001 100.328L352.238 99.0229ZM335.695 98.8081V97.4817H334.369V98.8081H335.695ZM335.695 106.704H334.369V108.03H335.695V106.704ZM352.238 106.489L352.001 105.184L351.996 105.185L352.238 106.489ZM354.118 105.817L354.844 106.928L354.859 106.918L354.873 106.908L354.118 105.817ZM355.085 104.582L353.85 104.097L353.843 104.116L353.836 104.136L355.085 104.582ZM335.695 126.674H325.732V129.326H335.695V126.674ZM327.058 128V91.1006H324.406V128H327.058ZM325.732 92.4269H350.708V89.7742H325.732V92.4269ZM350.708 92.4269C353.31 92.4269 355.448 92.6968 357.15 93.2042L357.908 90.662C355.886 90.0594 353.476 89.7742 350.708 89.7742V92.4269ZM357.153 93.2052C358.896 93.7198 360.234 94.4288 361.22 95.2936L362.969 93.2992C361.627 92.1229 359.921 91.2564 357.904 90.661L357.153 93.2052ZM361.227 95.3002C362.238 96.1733 362.956 97.2178 363.397 98.4495L365.894 97.5554C365.297 95.8867 364.313 94.4605 362.961 93.2926L361.227 95.3002ZM363.404 98.4682C363.877 99.7299 364.125 101.171 364.125 102.81H366.778C366.778 100.903 366.488 99.1395 365.887 97.5367L363.404 98.4682ZM364.125 102.81C364.125 104.243 363.918 105.436 363.542 106.415L366.018 107.368C366.536 106.019 366.778 104.491 366.778 102.81H364.125ZM363.536 106.432C363.158 107.455 362.649 108.31 362.018 109.016L363.996 110.783C364.87 109.806 365.542 108.655 366.024 107.351L363.536 106.432ZM362.017 109.017C361.379 109.733 360.63 110.343 359.762 110.848L361.096 113.141C362.198 112.5 363.167 111.713 363.997 110.782L362.017 109.017ZM359.762 110.848C358.853 111.377 357.894 111.815 356.882 112.163L357.746 114.672C358.918 114.268 360.036 113.758 361.096 113.141L359.762 110.848ZM356.293 114.264L368.378 128.846L370.42 127.154L358.335 112.571L356.293 114.264ZM369.399 126.674H357.744V129.326H369.399V126.674ZM358.768 127.158L347.596 113.569L345.547 115.253L356.719 128.842L358.768 127.158ZM346.572 113.085H335.695V115.737H346.572V113.085ZM334.369 114.411V128H337.022V114.411H334.369ZM356.707 102.756C356.707 101.925 356.593 101.142 356.319 100.445L353.85 101.415C353.97 101.72 354.054 102.154 354.054 102.756H356.707ZM356.334 100.484C356.053 99.697 355.54 99.0662 354.844 98.6111L353.392 100.831C353.627 100.985 353.759 101.16 353.836 101.376L356.334 100.484ZM354.873 98.6307C354.202 98.166 353.378 97.882 352.476 97.718L352.001 100.328C352.675 100.45 353.103 100.632 353.363 100.812L354.873 98.6307ZM352.481 97.719C351.603 97.5556 350.548 97.4817 349.338 97.4817V100.134C350.455 100.134 351.334 100.204 351.996 100.327L352.481 97.719ZM349.338 97.4817H335.695V100.134H349.338V97.4817ZM334.369 98.8081V106.704H337.022V98.8081H334.369ZM335.695 108.03H349.338V105.377H335.695V108.03ZM349.338 108.03C350.548 108.03 351.603 107.956 352.481 107.793L351.996 105.185C351.334 105.308 350.455 105.377 349.338 105.377V108.03ZM352.476 107.794C353.367 107.632 354.18 107.362 354.844 106.928L353.392 104.707C353.125 104.882 352.685 105.059 352.001 105.184L352.476 107.794ZM354.873 106.908C355.551 106.438 356.056 105.808 356.334 105.028L353.836 104.136C353.756 104.359 353.616 104.552 353.363 104.727L354.873 106.908ZM356.319 105.067C356.593 104.37 356.707 103.586 356.707 102.756H354.054C354.054 103.358 353.97 103.792 353.85 104.097L356.319 105.067ZM397.221 99.1304V97.804H395.895V99.1304H397.221ZM397.221 128V129.326H398.548V128H397.221ZM387.258 128H385.931V129.326H387.258V128ZM387.258 99.1304H388.584V97.804H387.258V99.1304ZM371.601 99.1304H370.275V100.457H371.601V99.1304ZM371.601 91.1006V89.7742H370.275V91.1006H371.601ZM412.905 91.1006H414.231V89.7742H412.905V91.1006ZM412.905 99.1304V100.457H414.231V99.1304H412.905ZM395.895 99.1304V128H398.548V99.1304H395.895ZM397.221 126.674H387.258V129.326H397.221V126.674ZM388.584 128V99.1304H385.931V128H388.584ZM387.258 97.804H371.601V100.457H387.258V97.804ZM372.927 99.1304V91.1006H370.275V99.1304H372.927ZM371.601 92.4269H412.905V89.7742H371.601V92.4269ZM411.578 91.1006V99.1304H414.231V91.1006H411.578ZM412.905 97.804H397.221V100.457H412.905V97.804ZM429.475 98.9692V97.6429H428.148V98.9692H429.475ZM429.475 105.388H428.148V106.714H429.475V105.388ZM453.457 105.388H454.783V104.061H453.457V105.388ZM453.457 113.256V114.583H454.783V113.256H453.457ZM429.475 113.256V111.93H428.148V113.256H429.475ZM429.475 128V129.326H430.801V128H429.475ZM419.511 128H418.185V129.326H419.511V128ZM419.511 91.1006V89.7742H418.185V91.1006H419.511ZM454.772 91.1006H456.099V89.7742H454.772V91.1006ZM454.772 98.9692V100.296H456.099V98.9692H454.772ZM428.148 98.9692V105.388H430.801V98.9692H428.148ZM429.475 106.714H453.457V104.061H429.475V106.714ZM452.13 105.388V113.256H454.783V105.388H452.13ZM453.457 111.93H429.475V114.583H453.457V111.93ZM428.148 113.256V128H430.801V113.256H428.148ZM429.475 126.674H419.511V129.326H429.475V126.674ZM420.838 128V91.1006H418.185V128H420.838ZM419.511 92.4269H454.772V89.7742H419.511V92.4269ZM453.446 91.1006V98.9692H456.099V91.1006H453.446ZM454.772 97.6429H429.475V100.296H454.772V97.6429ZM509.289 117.983L510.484 118.558L510.486 118.555L509.289 117.983ZM504.294 124.052L503.497 122.992L504.294 124.052ZM496.398 127.758L496.741 129.04L496.746 129.038L496.398 127.758ZM475.559 127.758L475.211 129.038L475.22 129.041L475.559 127.758ZM462.587 117.983L461.394 118.562L461.396 118.565L462.587 117.983ZM462.587 101.198L463.779 101.781L463.781 101.777L462.587 101.198ZM475.559 91.4229L475.899 92.7047L475.904 92.7033L475.559 91.4229ZM496.398 91.4229L496.049 92.7023L496.058 92.7047L496.398 91.4229ZM509.289 101.198L508.092 101.77L508.094 101.774L509.289 101.198ZM500.292 105.468L499.026 105.863L499.029 105.873L499.033 105.883L500.292 105.468ZM497.956 101.762L497.026 102.708L497.033 102.715L497.956 101.762ZM480.715 98.5664L480.975 99.867L480.982 99.8655L480.99 99.864L480.715 98.5664ZM473.974 101.816L474.901 102.765L474.906 102.759L474.912 102.754L473.974 101.816ZM472.175 104.206L473.346 104.829L473.351 104.819L472.175 104.206ZM471.208 106.865L469.91 106.59L469.908 106.6L469.906 106.61L471.208 106.865ZM471.208 112.343L469.906 112.594L469.908 112.606L469.91 112.618L471.208 112.343ZM472.175 115.029L470.998 115.642L471.004 115.652L472.175 115.029ZM476.767 119.326L476.174 120.512L476.182 120.516L476.189 120.52L476.767 119.326ZM480.715 120.615L480.44 121.912L480.447 121.914L480.455 121.915L480.715 120.615ZM497.956 117.392L497.033 116.439L497.026 116.447L497.956 117.392ZM500.292 113.713L499.031 113.303L499.028 113.313L500.292 113.713ZM509.708 109.577C509.708 112.582 509.157 115.183 508.092 117.411L510.486 118.555C511.748 115.913 512.361 112.91 512.361 109.577H509.708ZM508.094 117.408C507.023 119.631 505.495 121.489 503.497 122.992L505.091 125.112C507.425 123.357 509.227 121.168 510.484 118.558L508.094 117.408ZM503.497 122.992C501.487 124.503 499.015 125.673 496.051 126.478L496.746 129.038C499.977 128.161 502.768 126.859 505.091 125.112L503.497 122.992ZM496.056 126.477C493.108 127.265 489.762 127.667 486.005 127.667V130.32C489.947 130.32 493.53 129.899 496.741 129.04L496.056 126.477ZM486.005 127.667C482.249 127.667 478.883 127.265 475.898 126.476L475.22 129.041C478.464 129.898 482.063 130.32 486.005 130.32V127.667ZM475.906 126.478C472.942 125.673 470.459 124.503 468.429 122.989L466.843 125.115C469.182 126.86 471.981 128.161 475.211 129.038L475.906 126.478ZM468.429 122.989C466.412 121.484 464.867 119.625 463.779 117.4L461.396 118.565C462.671 121.175 464.492 123.362 466.843 125.115L468.429 122.989ZM463.781 117.404C462.7 115.178 462.141 112.58 462.141 109.577H459.489C459.489 112.913 460.111 115.918 461.394 118.562L463.781 117.404ZM462.141 109.577C462.141 106.574 462.7 103.987 463.779 101.781L461.396 100.616C460.111 103.244 459.489 106.242 459.489 109.577H462.141ZM463.781 101.777C464.869 99.5349 466.414 97.6684 468.429 96.1652L466.843 94.0389C464.49 95.7942 462.669 97.9918 461.394 100.619L463.781 101.777ZM468.429 96.1652C470.456 94.6531 472.937 93.4923 475.899 92.7047L475.218 90.141C471.985 91.0005 469.185 92.2925 466.843 94.0389L468.429 96.1652ZM475.904 92.7033C478.888 91.8975 482.251 91.487 486.005 91.487V88.8343C482.061 88.8343 478.46 89.2653 475.213 90.1424L475.904 92.7033ZM486.005 91.487C489.76 91.487 493.104 91.8976 496.049 92.7023L496.748 90.1434C493.534 89.2652 489.949 88.8343 486.005 88.8343V91.487ZM496.058 92.7047C499.019 93.4922 501.489 94.6524 503.497 96.1621L505.091 94.042C502.766 92.2933 499.972 91.0006 496.739 90.141L496.058 92.7047ZM503.497 96.1621C505.493 97.6637 507.021 99.5286 508.092 101.77L510.486 100.626C509.23 97.9981 507.427 95.7989 505.091 94.042L503.497 96.1621ZM508.094 101.774C509.157 103.981 509.708 106.572 509.708 109.577H512.361C512.361 106.245 511.749 103.249 510.484 100.623L508.094 101.774ZM502.29 109.577C502.29 108.052 502.042 106.543 501.552 105.054L499.033 105.883C499.438 107.115 499.638 108.345 499.638 109.577H502.29ZM501.559 105.074C501.057 103.465 500.152 102.042 498.879 100.809L497.033 102.715C498.016 103.667 498.668 104.714 499.026 105.863L501.559 105.074ZM498.886 100.817C497.601 99.5519 495.893 98.5778 493.831 97.8523L492.95 100.355C494.756 100.99 496.091 101.788 497.026 102.708L498.886 100.817ZM493.831 97.8523C491.707 97.105 489.083 96.7566 486.005 96.7566V99.4094C488.908 99.4094 491.207 99.7413 492.95 100.355L493.831 97.8523ZM486.005 96.7566C483.933 96.7566 482.074 96.9229 480.44 97.2688L480.99 99.864C482.4 99.5654 484.068 99.4094 486.005 99.4094V96.7566ZM480.455 97.2658C478.845 97.5878 477.412 98.0502 476.174 98.6691L477.36 101.042C478.342 100.551 479.541 100.154 480.975 99.867L480.455 97.2658ZM476.174 98.6691C474.957 99.2775 473.904 100.01 473.036 100.878L474.912 102.754C475.548 102.118 476.357 101.543 477.36 101.042L476.174 98.6691ZM473.048 100.867C472.204 101.691 471.516 102.599 470.998 103.593L473.351 104.819C473.729 104.094 474.241 103.409 474.901 102.765L473.048 100.867ZM471.004 103.583C470.498 104.534 470.133 105.538 469.91 106.59L472.506 107.139C472.677 106.33 472.956 105.561 473.346 104.829L471.004 103.583ZM469.906 106.61C469.712 107.603 469.613 108.593 469.613 109.577H472.266C472.266 108.771 472.346 107.952 472.51 107.12L469.906 106.61ZM469.613 109.577C469.613 110.577 469.711 111.583 469.906 112.594L472.511 112.093C472.347 111.241 472.266 110.403 472.266 109.577H469.613ZM469.91 112.618C470.133 113.669 470.496 114.677 470.998 115.641L473.351 114.416C472.958 113.661 472.677 112.88 472.506 112.069L469.91 112.618ZM471.004 115.652C471.522 116.626 472.208 117.521 473.048 118.341L474.901 116.443C474.237 115.795 473.723 115.115 473.346 114.406L471.004 115.652ZM473.048 118.341C473.914 119.187 474.963 119.906 476.174 120.512L477.36 118.139C476.351 117.635 475.539 117.066 474.901 116.443L473.048 118.341ZM476.189 120.52C477.417 121.114 478.839 121.573 480.44 121.912L480.99 119.317C479.547 119.012 478.337 118.612 477.345 118.132L476.189 120.52ZM480.455 121.915C482.083 122.241 483.937 122.398 486.005 122.398V119.745C484.064 119.745 482.391 119.597 480.975 119.314L480.455 121.915ZM486.005 122.398C489.083 122.398 491.707 122.049 493.831 121.302L492.95 118.8C491.207 119.413 488.908 119.745 486.005 119.745V122.398ZM493.831 121.302C495.893 120.577 497.601 119.602 498.886 118.338L497.026 116.447C496.091 117.366 494.756 118.164 492.95 118.8L493.831 121.302ZM498.879 118.345C500.149 117.115 501.055 115.704 501.557 114.112L499.028 113.313C498.671 114.444 498.019 115.485 497.033 116.439L498.879 118.345ZM501.554 114.122C502.042 112.618 502.29 111.102 502.29 109.577H499.638C499.638 110.81 499.438 112.05 499.031 113.303L501.554 114.122ZM520.112 128H518.785V129.326H520.112V128ZM520.112 91.1006V89.7742H518.785V91.1006H520.112ZM530.075 91.1006H531.402V89.7742H530.075V91.1006ZM530.075 119.917H528.749V121.243H530.075V119.917ZM557.011 119.917H558.338V118.59H557.011V119.917ZM557.011 128V129.326H558.338V128H557.011ZM521.438 128V91.1006H518.785V128H521.438ZM520.112 92.4269H530.075V89.7742H520.112V92.4269ZM528.749 91.1006V119.917H531.402V91.1006H528.749ZM530.075 121.243H557.011V118.59H530.075V121.243ZM555.685 119.917V128H558.338V119.917H555.685ZM557.011 126.674H520.112V129.326H557.011V126.674ZM565.014 128H563.688V129.326H565.014V128ZM565.014 91.1006V89.7742H563.688V91.1006H565.014ZM574.978 91.1006H576.304V89.7742H574.978V91.1006ZM574.978 128V129.326H576.304V128H574.978ZM566.341 128V91.1006H563.688V128H566.341ZM565.014 92.4269H574.978V89.7742H565.014V92.4269ZM573.651 91.1006V128H576.304V91.1006H573.651ZM574.978 126.674H565.014V129.326H574.978V126.674ZM632.556 117.983L633.751 118.558L633.752 118.555L632.556 117.983ZM627.561 124.052L626.763 122.992L627.561 124.052ZM619.665 127.758L620.008 129.04L620.013 129.038L619.665 127.758ZM598.825 127.758L598.477 129.038L598.486 129.041L598.825 127.758ZM585.854 117.983L584.661 118.562L584.662 118.565L585.854 117.983ZM585.854 101.198L587.046 101.781L587.047 101.777L585.854 101.198ZM598.825 91.4229L599.166 92.7047L599.171 92.7033L598.825 91.4229ZM619.665 91.4229L619.315 92.7023L619.324 92.7047L619.665 91.4229ZM632.556 101.198L631.359 101.77L631.361 101.774L632.556 101.198ZM623.559 105.468L622.293 105.863L622.296 105.873L622.299 105.883L623.559 105.468ZM621.223 101.762L620.292 102.708L620.3 102.715L621.223 101.762ZM603.981 98.5664L604.242 99.867L604.249 99.8655L604.256 99.864L603.981 98.5664ZM597.241 101.816L598.167 102.765L598.173 102.759L598.179 102.754L597.241 101.816ZM595.441 104.206L596.612 104.829L596.618 104.819L595.441 104.206ZM594.475 106.865L593.177 106.59L593.175 106.6L593.173 106.61L594.475 106.865ZM594.475 112.343L593.172 112.594L593.174 112.606L593.177 112.618L594.475 112.343ZM595.441 115.029L594.265 115.642L594.27 115.652L595.441 115.029ZM600.034 119.326L599.441 120.512L599.448 120.516L599.456 120.52L600.034 119.326ZM603.981 120.615L603.707 121.912L603.714 121.914L603.721 121.915L603.981 120.615ZM621.223 117.392L620.3 116.439L620.292 116.447L621.223 117.392ZM623.559 113.713L622.298 113.303L622.294 113.313L623.559 113.713ZM632.975 109.577C632.975 112.582 632.424 115.183 631.359 117.411L633.752 118.555C635.015 115.913 635.628 112.91 635.628 109.577H632.975ZM631.361 117.408C630.29 119.631 628.762 121.489 626.763 122.992L628.358 125.112C630.692 123.357 632.494 121.168 633.751 118.558L631.361 117.408ZM626.763 122.992C624.754 124.503 622.282 125.673 619.317 126.478L620.013 129.038C623.243 128.161 626.035 126.859 628.358 125.112L626.763 122.992ZM619.322 126.477C616.375 127.265 613.029 127.667 609.272 127.667V130.32C613.214 130.32 616.796 129.899 620.008 129.04L619.322 126.477ZM609.272 127.667C605.516 127.667 602.15 127.265 599.164 126.476L598.486 129.041C601.731 129.898 605.33 130.32 609.272 130.32V127.667ZM599.173 126.478C596.208 125.673 593.725 124.503 591.696 122.989L590.11 125.115C592.449 126.86 595.247 128.161 598.477 129.038L599.173 126.478ZM591.696 122.989C589.679 121.484 588.133 119.625 587.046 117.4L584.662 118.565C585.938 121.175 587.759 123.362 590.11 125.115L591.696 122.989ZM587.047 117.404C585.967 115.178 585.408 112.58 585.408 109.577H582.755C582.755 112.913 583.378 115.918 584.661 118.562L587.047 117.404ZM585.408 109.577C585.408 106.574 585.967 103.987 587.046 101.781L584.662 100.616C583.378 103.244 582.755 106.242 582.755 109.577H585.408ZM587.047 101.777C588.136 99.5349 589.681 97.6684 591.696 96.1652L590.11 94.0389C587.757 95.7942 585.936 97.9918 584.661 100.619L587.047 101.777ZM591.696 96.1652C593.723 94.6531 596.204 93.4923 599.166 92.7047L598.484 90.141C595.252 91.0005 592.451 92.2925 590.11 94.0389L591.696 96.1652ZM599.171 92.7033C602.154 91.8975 605.518 91.487 609.272 91.487V88.8343C605.328 88.8343 601.727 89.2653 598.479 90.1424L599.171 92.7033ZM609.272 91.487C613.027 91.487 616.37 91.8976 619.315 92.7023L620.015 90.1434C616.801 89.2652 613.216 88.8343 609.272 88.8343V91.487ZM619.324 92.7047C622.286 93.4922 624.756 94.6524 626.763 96.1621L628.358 94.042C626.033 92.2933 623.239 91.0006 620.006 90.141L619.324 92.7047ZM626.763 96.1621C628.76 97.6637 630.288 99.5286 631.359 101.77L633.752 100.626C632.496 97.9981 630.694 95.7989 628.358 94.042L626.763 96.1621ZM631.361 101.774C632.424 103.981 632.975 106.572 632.975 109.577H635.628C635.628 106.245 635.015 103.249 633.751 100.623L631.361 101.774ZM625.557 109.577C625.557 108.052 625.309 106.543 624.819 105.054L622.299 105.883C622.704 107.115 622.904 108.345 622.904 109.577H625.557ZM624.825 105.074C624.324 103.465 623.418 102.042 622.145 100.809L620.3 102.715C621.283 103.667 621.935 104.714 622.293 105.863L624.825 105.074ZM622.153 100.817C620.867 99.5519 619.159 98.5778 617.097 97.8523L616.217 100.355C618.022 100.99 619.358 101.788 620.292 102.708L622.153 100.817ZM617.097 97.8523C614.974 97.105 612.349 96.7566 609.272 96.7566V99.4094C612.174 99.4094 614.474 99.7413 616.217 100.355L617.097 97.8523ZM609.272 96.7566C607.199 96.7566 605.34 96.9229 603.707 97.2688L604.256 99.864C605.666 99.5654 607.334 99.4094 609.272 99.4094V96.7566ZM603.721 97.2658C602.111 97.5878 600.678 98.0502 599.441 98.6691L600.627 101.042C601.609 100.551 602.808 100.154 604.242 99.867L603.721 97.2658ZM599.441 98.6691C598.224 99.2775 597.171 100.01 596.303 100.878L598.179 102.754C598.815 102.118 599.624 101.543 600.627 101.042L599.441 98.6691ZM596.314 100.867C595.47 101.691 594.783 102.599 594.265 103.593L596.618 104.819C596.995 104.094 597.507 103.409 598.167 102.765L596.314 100.867ZM594.27 103.583C593.765 104.534 593.4 105.538 593.177 106.59L595.772 107.139C595.943 106.33 596.223 105.561 596.612 104.829L594.27 103.583ZM593.173 106.61C592.978 107.603 592.88 108.593 592.88 109.577H595.532C595.532 108.771 595.613 107.952 595.776 107.12L593.173 106.61ZM592.88 109.577C592.88 110.577 592.978 111.583 593.172 112.594L595.777 112.093C595.613 111.241 595.532 110.403 595.532 109.577H592.88ZM593.177 112.618C593.399 113.669 593.763 114.677 594.265 115.641L596.618 114.416C596.225 113.661 595.944 112.88 595.772 112.069L593.177 112.618ZM594.27 115.652C594.788 116.626 595.474 117.521 596.314 118.341L598.167 116.443C597.503 115.795 596.99 115.115 596.612 114.406L594.27 115.652ZM596.314 118.341C597.18 119.187 598.229 119.906 599.441 120.512L600.627 118.139C599.618 117.635 598.805 117.066 598.167 116.443L596.314 118.341ZM599.456 120.52C600.684 121.114 602.106 121.573 603.707 121.912L604.256 119.317C602.813 119.012 601.604 118.612 600.611 118.132L599.456 120.52ZM603.721 121.915C605.349 122.241 607.203 122.398 609.272 122.398V119.745C607.33 119.745 605.657 119.597 604.242 119.314L603.721 121.915ZM609.272 122.398C612.349 122.398 614.974 122.049 617.097 121.302L616.217 118.8C614.474 119.413 612.174 119.745 609.272 119.745V122.398ZM617.097 121.302C619.159 120.577 620.867 119.602 622.153 118.338L620.292 116.447C619.358 117.366 618.022 118.164 616.217 118.8L617.097 121.302ZM622.145 118.345C623.415 117.115 624.321 115.704 624.824 114.112L622.294 113.313C621.937 114.444 621.286 115.485 620.3 116.439L622.145 118.345ZM624.821 114.122C625.309 112.618 625.557 111.102 625.557 109.577H622.904C622.904 110.81 622.704 112.05 622.298 113.303L624.821 114.122Z" fill="#EAEAEA" mask="url(#path-9-outside-1_12_2)"/>
</g>
</g>
<defs>
<filter id="filter0_f_12_2" x="409.083" y="-493.887" width="888.015" height="916.93" filterUnits="userSpaceOnUse" color-interpolation-filters="sRGB">
<feFlood flood-opacity="0" result="BackgroundImageFix"/>
<feBlend mode="normal" in="SourceGraphic" in2="BackgroundImageFix" result="shape"/>
<feGaussianBlur stdDeviation="150" result="effect1_foregroundBlur_12_2"/>
</filter>
<filter id="filter1_f_12_2" x="216.087" y="-287.611" width="789.3" height="841.892" filterUnits="userSpaceOnUse" color-interpolation-filters="sRGB">
<feFlood flood-opacity="0" result="BackgroundImageFix"/>
<feBlend mode="normal" in="SourceGraphic" in2="BackgroundImageFix" result="shape"/>
<feGaussianBlur stdDeviation="150" result="effect1_foregroundBlur_12_2"/>
</filter>
<filter id="filter2_f_12_2" x="122.945" y="-511.229" width="794.198" height="866.029" filterUnits="userSpaceOnUse" color-interpolation-filters="sRGB">
<feFlood flood-opacity="0" result="BackgroundImageFix"/>
<feBlend mode="normal" in="SourceGraphic" in2="BackgroundImageFix" result="shape"/>
<feGaussianBlur stdDeviation="150" result="effect1_foregroundBlur_12_2"/>
</filter>
<filter id="filter3_f_12_2" x="-324" y="-228" width="826" height="786" filterUnits="userSpaceOnUse" color-interpolation-filters="sRGB">
<feFlood flood-opacity="0" result="BackgroundImageFix"/>
<feBlend mode="normal" in="SourceGraphic" in2="BackgroundImageFix" result="shape"/>
<feGaussianBlur stdDeviation="150" result="effect1_foregroundBlur_12_2"/>
</filter>
<filter id="filter4_d_12_2" x="203.253" y="74.2443" width="446.964" height="70.6656" filterUnits="userSpaceOnUse" color-interpolation-filters="sRGB">
<feFlood flood-opacity="0" result="BackgroundImageFix"/>
<feColorMatrix in="SourceAlpha" type="matrix" values="0 0 0 0 0 0 0 0 0 0 0 0 0 0 0 0 0 0 127 0" result="hardAlpha"/>
<feOffset/>
<feGaussianBlur stdDeviation="7.95816"/>
<feComposite in2="hardAlpha" operator="out"/>
<feColorMatrix type="matrix" values="0 0 0 0 0.919287 0 0 0 0 0.919287 0 0 0 0 0.919287 0 0 0 0.3 0"/>
<feBlend mode="normal" in2="BackgroundImageFix" result="effect1_dropShadow_12_2"/>
<feBlend mode="normal" in="SourceGraphic" in2="effect1_dropShadow_12_2" result="shape"/>
</filter>
<linearGradient id="paint0_linear_12_2" x1="-65" y1="50" x2="201" y2="50" gradientUnits="userSpaceOnUse">
<stop stop-color="#476DFE"/>
<stop offset="0.45" stop-color="#991FFE"/>
<stop offset="1" stop-color="#FF12AA"/>
</linearGradient>
<linearGradient id="paint1_linear_12_2" x1="680" y1="157" x2="946" y2="157" gradientUnits="userSpaceOnUse">
<stop stop-color="#476DFE"/>
<stop offset="0.45" stop-color="#991FFE"/>
<stop offset="1" stop-color="#FF12AA"/>
</linearGradient>
<linearGradient id="paint2_linear_12_2" x1="-24" y1="165" x2="202" y2="165" gradientUnits="userSpaceOnUse">
<stop stop-color="#6366F1"/>
<stop offset="0.5" stop-color="#A855F7"/>
<stop offset="1" stop-color="#EC4899"/>
</linearGradient>
<linearGradient id="paint3_linear_12_2" x1="181" y1="95.0769" x2="638.847" y2="245.098" gradientUnits="userSpaceOnUse">
<stop stop-color="#EAEAEA"/>
<stop offset="0.35" stop-color="#FF9ADB"/>
<stop offset="0.59" stop-color="#718EFF"/>
<stop offset="0.785" stop-color="#8590FF"/>
<stop offset="1" stop-color="#CF96FF"/>
</linearGradient>
<clipPath id="clip0_12_2">
<rect width="850" height="200" fill="white"/>
</clipPath>
</defs>
</svg>
