<svg width="830" height="200" viewBox="0 0 830 200" fill="none" xmlns="http://www.w3.org/2000/svg">
<g clip-path="url(#clip0_12_2)">
<rect width="830" height="200" fill="#090A0C"/>
<path d="M16.1704 37.5337C16.1704 38.7072 15.9995 39.7896 15.6577 40.7808C15.3159 41.7606 14.7633 42.6094 14 43.3271C13.248 44.0335 12.2682 44.5861 11.0605 44.9849C9.85286 45.3836 8.38314 45.583 6.65137 45.583H-3.87598V53H-10.2163V29.5186H6.65137C8.38314 29.5186 9.85286 29.7179 11.0605 30.1167C12.2682 30.5041 13.248 31.0566 14 31.7744C14.7633 32.4808 15.3159 33.3239 15.6577 34.3037C15.9995 35.2835 16.1704 36.3602 16.1704 37.5337ZM9.76172 37.6362C9.76172 37.0894 9.68197 36.6222 9.52246 36.2349C9.37435 35.8361 9.1237 35.5114 8.77051 35.2607C8.41732 35.0101 7.95589 34.8278 7.38623 34.7139C6.81657 34.5885 6.11589 34.5259 5.28418 34.5259H-3.87598V40.5757H5.28418C6.11589 40.5757 6.81657 40.5301 7.38623 40.439C7.95589 40.3364 8.41732 40.1712 8.77051 39.9434C9.1237 39.7041 9.37435 39.3965 9.52246 39.0205C9.68197 38.6445 9.76172 38.1831 9.76172 37.6362ZM51.8198 41.2764C51.8198 43.293 51.4495 45.076 50.709 46.6255C49.9684 48.1636 48.9089 49.451 47.5303 50.4878C46.1517 51.5246 44.4769 52.3107 42.5059 52.8462C40.5462 53.3703 38.3416 53.6323 35.8921 53.6323C33.4425 53.6323 31.2266 53.3703 29.2441 52.8462C27.2731 52.3107 25.5926 51.5246 24.2026 50.4878C22.8127 49.451 21.7417 48.1636 20.9897 46.6255C20.2378 45.076 19.8618 43.293 19.8618 41.2764C19.8618 39.2598 20.2378 37.4824 20.9897 35.9443C21.7417 34.3949 22.8127 33.1017 24.2026 32.0649C25.5926 31.0282 27.2731 30.2477 29.2441 29.7236C31.2266 29.1882 33.4425 28.9204 35.8921 28.9204C38.3416 28.9204 40.5462 29.1882 42.5059 29.7236C44.4769 30.2477 46.1517 31.0282 47.5303 32.0649C48.9089 33.1017 49.9684 34.3949 50.709 35.9443C51.4495 37.4824 51.8198 39.2598 51.8198 41.2764ZM45.4111 41.2764C45.4111 40.3991 45.2687 39.5275 44.9839 38.6616C44.7104 37.7843 44.2148 36.9982 43.4971 36.3032C42.7907 35.6082 41.8223 35.0443 40.5918 34.6113C39.3613 34.1784 37.7948 33.9619 35.8921 33.9619C34.616 33.9619 33.4938 34.0645 32.5254 34.2695C31.557 34.4632 30.7196 34.7367 30.0132 35.0898C29.3068 35.443 28.7144 35.8589 28.2358 36.3374C27.7573 36.8045 27.3757 37.3115 27.0908 37.8584C26.806 38.3939 26.6009 38.9578 26.4756 39.5503C26.3617 40.1313 26.3047 40.7067 26.3047 41.2764C26.3047 41.8574 26.3617 42.4442 26.4756 43.0366C26.6009 43.6291 26.806 44.1987 27.0908 44.7456C27.3757 45.2811 27.7573 45.7824 28.2358 46.2495C28.7144 46.7166 29.3068 47.1268 30.0132 47.48C30.7196 47.8218 31.557 48.0952 32.5254 48.3003C33.4938 48.494 34.616 48.5908 35.8921 48.5908C37.7948 48.5908 39.3613 48.3743 40.5918 47.9414C41.8223 47.5085 42.7907 46.9445 43.4971 46.2495C44.2148 45.5545 44.7104 44.7741 44.9839 43.9082C45.2687 43.0309 45.4111 42.1536 45.4111 41.2764ZM79.1978 34.8335C79.0269 34.7765 78.7762 34.7025 78.4458 34.6113C78.1268 34.5088 77.7508 34.4119 77.3179 34.3208C76.8849 34.2183 76.4064 34.1328 75.8823 34.0645C75.3696 33.9961 74.8398 33.9619 74.293 33.9619C73.1536 33.9619 72.0884 34.1043 71.0972 34.3892C70.1174 34.6626 69.2002 35.0329 68.3457 35.5C67.4912 35.9557 66.6937 36.4798 65.9531 37.0723C65.224 37.6533 64.5518 38.2515 63.9365 38.8667V53H57.5962V29.5186H63.9365V33.3296C64.6999 32.7599 65.4803 32.2131 66.2778 31.689C67.0868 31.1535 67.9242 30.6807 68.79 30.2705C69.6673 29.8604 70.5902 29.5356 71.5586 29.2964C72.527 29.0457 73.5524 28.9204 74.6348 28.9204C75.0449 28.9204 75.4608 28.9432 75.8823 28.9888C76.3153 29.0229 76.7311 29.0685 77.1299 29.1255C77.54 29.1825 77.9217 29.2451 78.2749 29.3135C78.6281 29.3818 78.9357 29.4502 79.1978 29.5186V34.8335ZM96.3901 34.6284V53H90.0498V34.6284H80.0864V29.5186H106.371V34.6284H96.3901ZM121.666 34.5259C120.925 34.5259 120.259 34.5544 119.667 34.6113C119.085 34.6683 118.59 34.805 118.18 35.0215C117.77 35.238 117.456 35.5627 117.24 35.9956C117.023 36.4172 116.915 36.9982 116.915 37.7388V38.6104H134.62V43.6177H116.915V53H110.575V37.209C110.575 36.0013 110.751 34.9189 111.104 33.9619C111.469 33.0049 112.073 32.2017 112.916 31.5522C113.759 30.8914 114.876 30.3901 116.266 30.0483C117.656 29.6951 119.387 29.5186 121.461 29.5186H135.458V34.5259H121.666ZM171.278 41.2764C171.278 43.293 170.908 45.076 170.167 46.6255C169.426 48.1636 168.367 49.451 166.988 50.4878C165.61 51.5246 163.935 52.3107 161.964 52.8462C160.004 53.3703 157.8 53.6323 155.35 53.6323C152.901 53.6323 150.685 53.3703 148.702 52.8462C146.731 52.3107 145.051 51.5246 143.661 50.4878C142.271 49.451 141.2 48.1636 140.448 46.6255C139.696 45.076 139.32 43.293 139.32 41.2764C139.32 39.2598 139.696 37.4824 140.448 35.9443C141.2 34.3949 142.271 33.1017 143.661 32.0649C145.051 31.0282 146.731 30.2477 148.702 29.7236C150.685 29.1882 152.901 28.9204 155.35 28.9204C157.8 28.9204 160.004 29.1882 161.964 29.7236C163.935 30.2477 165.61 31.0282 166.988 32.0649C168.367 33.1017 169.426 34.3949 170.167 35.9443C170.908 37.4824 171.278 39.2598 171.278 41.2764ZM164.869 41.2764C164.869 40.3991 164.727 39.5275 164.442 38.6616C164.168 37.7843 163.673 36.9982 162.955 36.3032C162.249 35.6082 161.28 35.0443 160.05 34.6113C158.819 34.1784 157.253 33.9619 155.35 33.9619C154.074 33.9619 152.952 34.0645 151.983 34.2695C151.015 34.4632 150.178 34.7367 149.471 35.0898C148.765 35.443 148.172 35.8589 147.694 36.3374C147.215 36.8045 146.834 37.3115 146.549 37.8584C146.264 38.3939 146.059 38.9578 145.934 39.5503C145.82 40.1313 145.763 40.7067 145.763 41.2764C145.763 41.8574 145.82 42.4442 145.934 43.0366C146.059 43.6291 146.264 44.1987 146.549 44.7456C146.834 45.2811 147.215 45.7824 147.694 46.2495C148.172 46.7166 148.765 47.1268 149.471 47.48C150.178 47.8218 151.015 48.0952 151.983 48.3003C152.952 48.494 154.074 48.5908 155.35 48.5908C157.253 48.5908 158.819 48.3743 160.05 47.9414C161.28 47.5085 162.249 46.9445 162.955 46.2495C163.673 45.5545 164.168 44.7741 164.442 43.9082C164.727 43.0309 164.869 42.1536 164.869 41.2764ZM183.395 42.9512C183.395 43.931 183.486 44.7342 183.668 45.3608C183.85 45.9761 184.146 46.466 184.557 46.8306C184.967 47.1951 185.497 47.4458 186.146 47.5825C186.807 47.7192 187.616 47.7876 188.573 47.7876H200.604V53H187.274C185.428 53 183.856 52.8519 182.557 52.5557C181.27 52.248 180.216 51.7809 179.396 51.1543C178.575 50.5163 177.977 49.7131 177.601 48.7446C177.236 47.7762 177.054 46.6255 177.054 45.2925V29.5186H183.395V42.9512ZM205.697 53V29.5186H212.037V53H205.697ZM249.789 41.2764C249.789 43.293 249.418 45.076 248.678 46.6255C247.937 48.1636 246.878 49.451 245.499 50.4878C244.12 51.5246 242.446 52.3107 240.475 52.8462C238.515 53.3703 236.31 53.6323 233.861 53.6323C231.411 53.6323 229.195 53.3703 227.213 52.8462C225.242 52.3107 223.561 51.5246 222.171 50.4878C220.781 49.451 219.71 48.1636 218.958 46.6255C218.207 45.076 217.831 43.293 217.831 41.2764C217.831 39.2598 218.207 37.4824 218.958 35.9443C219.71 34.3949 220.781 33.1017 222.171 32.0649C223.561 31.0282 225.242 30.2477 227.213 29.7236C229.195 29.1882 231.411 28.9204 233.861 28.9204C236.31 28.9204 238.515 29.1882 240.475 29.7236C242.446 30.2477 244.12 31.0282 245.499 32.0649C246.878 33.1017 247.937 34.3949 248.678 35.9443C249.418 37.4824 249.789 39.2598 249.789 41.2764ZM243.38 41.2764C243.38 40.3991 243.237 39.5275 242.953 38.6616C242.679 37.7843 242.184 36.9982 241.466 36.3032C240.759 35.6082 239.791 35.0443 238.561 34.6113C237.33 34.1784 235.764 33.9619 233.861 33.9619C232.585 33.9619 231.463 34.0645 230.494 34.2695C229.526 34.4632 228.688 34.7367 227.982 35.0898C227.276 35.443 226.683 35.8589 226.205 36.3374C225.726 36.8045 225.344 37.3115 225.06 37.8584C224.775 38.3939 224.57 38.9578 224.444 39.5503C224.33 40.1313 224.273 40.7067 224.273 41.2764C224.273 41.8574 224.33 42.4442 224.444 43.0366C224.57 43.6291 224.775 44.1987 225.06 44.7456C225.344 45.2811 225.726 45.7824 226.205 46.2495C226.683 46.7166 227.276 47.1268 227.982 47.48C228.688 47.8218 229.526 48.0952 230.494 48.3003C231.463 48.494 232.585 48.5908 233.861 48.5908C235.764 48.5908 237.33 48.3743 238.561 47.9414C239.791 47.5085 240.759 46.9445 241.466 46.2495C242.184 45.5545 242.679 44.7741 242.953 43.9082C243.237 43.0309 243.38 42.1536 243.38 41.2764Z" fill="url(#paint0_linear_12_2)" fill-opacity="0.05"/>
<path d="M639.17 158.534C639.17 159.707 639 160.79 638.658 161.781C638.316 162.761 637.763 163.609 637 164.327C636.248 165.034 635.268 165.586 634.061 165.985C632.853 166.384 631.383 166.583 629.651 166.583H619.124V174H612.784V150.519H629.651C631.383 150.519 632.853 150.718 634.061 151.117C635.268 151.504 636.248 152.057 637 152.774C637.763 153.481 638.316 154.324 638.658 155.304C639 156.284 639.17 157.36 639.17 158.534ZM632.762 158.636C632.762 158.089 632.682 157.622 632.522 157.235C632.374 156.836 632.124 156.511 631.771 156.261C631.417 156.01 630.956 155.828 630.386 155.714C629.817 155.589 629.116 155.526 628.284 155.526H619.124V161.576H628.284C629.116 161.576 629.817 161.53 630.386 161.439C630.956 161.336 631.417 161.171 631.771 160.943C632.124 160.704 632.374 160.396 632.522 160.021C632.682 159.645 632.762 159.183 632.762 158.636ZM674.82 162.276C674.82 164.293 674.45 166.076 673.709 167.625C672.968 169.164 671.909 170.451 670.53 171.488C669.152 172.525 667.477 173.311 665.506 173.846C663.546 174.37 661.342 174.632 658.892 174.632C656.443 174.632 654.227 174.37 652.244 173.846C650.273 173.311 648.593 172.525 647.203 171.488C645.813 170.451 644.742 169.164 643.99 167.625C643.238 166.076 642.862 164.293 642.862 162.276C642.862 160.26 643.238 158.482 643.99 156.944C644.742 155.395 645.813 154.102 647.203 153.065C648.593 152.028 650.273 151.248 652.244 150.724C654.227 150.188 656.443 149.92 658.892 149.92C661.342 149.92 663.546 150.188 665.506 150.724C667.477 151.248 669.152 152.028 670.53 153.065C671.909 154.102 672.968 155.395 673.709 156.944C674.45 158.482 674.82 160.26 674.82 162.276ZM668.411 162.276C668.411 161.399 668.269 160.528 667.984 159.662C667.71 158.784 667.215 157.998 666.497 157.303C665.791 156.608 664.822 156.044 663.592 155.611C662.361 155.178 660.795 154.962 658.892 154.962C657.616 154.962 656.494 155.064 655.525 155.27C654.557 155.463 653.72 155.737 653.013 156.09C652.307 156.443 651.714 156.859 651.236 157.337C650.757 157.805 650.376 158.312 650.091 158.858C649.806 159.394 649.601 159.958 649.476 160.55C649.362 161.131 649.305 161.707 649.305 162.276C649.305 162.857 649.362 163.444 649.476 164.037C649.601 164.629 649.806 165.199 650.091 165.746C650.376 166.281 650.757 166.782 651.236 167.25C651.714 167.717 652.307 168.127 653.013 168.48C653.72 168.822 654.557 169.095 655.525 169.3C656.494 169.494 657.616 169.591 658.892 169.591C660.795 169.591 662.361 169.374 663.592 168.941C664.822 168.508 665.791 167.944 666.497 167.25C667.215 166.555 667.71 165.774 667.984 164.908C668.269 164.031 668.411 163.154 668.411 162.276ZM702.198 155.833C702.027 155.777 701.776 155.702 701.446 155.611C701.127 155.509 700.751 155.412 700.318 155.321C699.885 155.218 699.406 155.133 698.882 155.064C698.37 154.996 697.84 154.962 697.293 154.962C696.154 154.962 695.088 155.104 694.097 155.389C693.117 155.663 692.2 156.033 691.346 156.5C690.491 156.956 689.694 157.48 688.953 158.072C688.224 158.653 687.552 159.251 686.937 159.867V174H680.596V150.519H686.937V154.33C687.7 153.76 688.48 153.213 689.278 152.689C690.087 152.153 690.924 151.681 691.79 151.271C692.667 150.86 693.59 150.536 694.559 150.296C695.527 150.046 696.552 149.92 697.635 149.92C698.045 149.92 698.461 149.943 698.882 149.989C699.315 150.023 699.731 150.069 700.13 150.125C700.54 150.182 700.922 150.245 701.275 150.313C701.628 150.382 701.936 150.45 702.198 150.519V155.833ZM719.39 155.628V174H713.05V155.628H703.086V150.519H729.371V155.628H719.39ZM744.666 155.526C743.925 155.526 743.259 155.554 742.667 155.611C742.085 155.668 741.59 155.805 741.18 156.021C740.77 156.238 740.456 156.563 740.24 156.996C740.023 157.417 739.915 157.998 739.915 158.739V159.61H757.62V164.618H739.915V174H733.575V158.209C733.575 157.001 733.751 155.919 734.104 154.962C734.469 154.005 735.073 153.202 735.916 152.552C736.759 151.891 737.876 151.39 739.266 151.048C740.656 150.695 742.387 150.519 744.461 150.519H758.458V155.526H744.666ZM794.278 162.276C794.278 164.293 793.908 166.076 793.167 167.625C792.426 169.164 791.367 170.451 789.988 171.488C788.61 172.525 786.935 173.311 784.964 173.846C783.004 174.37 780.8 174.632 778.35 174.632C775.901 174.632 773.685 174.37 771.702 173.846C769.731 173.311 768.051 172.525 766.661 171.488C765.271 170.451 764.2 169.164 763.448 167.625C762.696 166.076 762.32 164.293 762.32 162.276C762.32 160.26 762.696 158.482 763.448 156.944C764.2 155.395 765.271 154.102 766.661 153.065C768.051 152.028 769.731 151.248 771.702 150.724C773.685 150.188 775.901 149.92 778.35 149.92C780.8 149.92 783.004 150.188 784.964 150.724C786.935 151.248 788.61 152.028 789.988 153.065C791.367 154.102 792.426 155.395 793.167 156.944C793.908 158.482 794.278 160.26 794.278 162.276ZM787.869 162.276C787.869 161.399 787.727 160.528 787.442 159.662C787.168 158.784 786.673 157.998 785.955 157.303C785.249 156.608 784.28 156.044 783.05 155.611C781.819 155.178 780.253 154.962 778.35 154.962C777.074 154.962 775.952 155.064 774.983 155.27C774.015 155.463 773.178 155.737 772.471 156.09C771.765 156.443 771.172 156.859 770.694 157.337C770.215 157.805 769.834 158.312 769.549 158.858C769.264 159.394 769.059 159.958 768.934 160.55C768.82 161.131 768.763 161.707 768.763 162.276C768.763 162.857 768.82 163.444 768.934 164.037C769.059 164.629 769.264 165.199 769.549 165.746C769.834 166.281 770.215 166.782 770.694 167.25C771.172 167.717 771.765 168.127 772.471 168.48C773.178 168.822 774.015 169.095 774.983 169.3C775.952 169.494 777.074 169.591 778.35 169.591C780.253 169.591 781.819 169.374 783.05 168.941C784.28 168.508 785.249 167.944 785.955 167.25C786.673 166.555 787.168 165.774 787.442 164.908C787.727 164.031 787.869 163.154 787.869 162.276ZM806.395 163.951C806.395 164.931 806.486 165.734 806.668 166.361C806.85 166.976 807.146 167.466 807.557 167.831C807.967 168.195 808.497 168.446 809.146 168.583C809.807 168.719 810.616 168.788 811.573 168.788H823.604V174H810.274C808.428 174 806.856 173.852 805.557 173.556C804.27 173.248 803.216 172.781 802.396 172.154C801.575 171.516 800.977 170.713 800.601 169.745C800.236 168.776 800.054 167.625 800.054 166.292V150.519H806.395V163.951ZM828.697 174V150.519H835.037V174H828.697ZM872.789 162.276C872.789 164.293 872.418 166.076 871.678 167.625C870.937 169.164 869.878 170.451 868.499 171.488C867.12 172.525 865.446 173.311 863.475 173.846C861.515 174.37 859.31 174.632 856.861 174.632C854.411 174.632 852.195 174.37 850.213 173.846C848.242 173.311 846.561 172.525 845.171 171.488C843.781 170.451 842.71 169.164 841.958 167.625C841.207 166.076 840.831 164.293 840.831 162.276C840.831 160.26 841.207 158.482 841.958 156.944C842.71 155.395 843.781 154.102 845.171 153.065C846.561 152.028 848.242 151.248 850.213 150.724C852.195 150.188 854.411 149.92 856.861 149.92C859.31 149.92 861.515 150.188 863.475 150.724C865.446 151.248 867.12 152.028 868.499 153.065C869.878 154.102 870.937 155.395 871.678 156.944C872.418 158.482 872.789 160.26 872.789 162.276ZM866.38 162.276C866.38 161.399 866.237 160.528 865.953 159.662C865.679 158.784 865.184 157.998 864.466 157.303C863.759 156.608 862.791 156.044 861.561 155.611C860.33 155.178 858.764 154.962 856.861 154.962C855.585 154.962 854.463 155.064 853.494 155.27C852.526 155.463 851.688 155.737 850.982 156.09C850.276 156.443 849.683 156.859 849.205 157.337C848.726 157.805 848.344 158.312 848.06 158.858C847.775 159.394 847.57 159.958 847.444 160.55C847.33 161.131 847.273 161.707 847.273 162.276C847.273 162.857 847.33 163.444 847.444 164.037C847.57 164.629 847.775 165.199 848.06 165.746C848.344 166.281 848.726 166.782 849.205 167.25C849.683 167.717 850.276 168.127 850.982 168.48C851.688 168.822 852.526 169.095 853.494 169.3C854.463 169.494 855.585 169.591 856.861 169.591C858.764 169.591 860.33 169.374 861.561 168.941C862.791 168.508 863.759 167.944 864.466 167.25C865.184 166.555 865.679 165.774 865.953 164.908C866.237 164.031 866.38 163.154 866.38 162.276Z" fill="url(#paint1_linear_12_2)" fill-opacity="0.05"/>
<rect width="830" height="200" fill="#090A0C" fill-opacity="0.5"/>
<g filter="url(#filter0_f_12_2)">
<path d="M602.843 -176.399C612.434 -225.68 798.342 -159.197 890.098 -119.796C866.254 -56.2947 813.985 79.3446 795.664 113.895C772.762 157.083 682.973 35.5155 637.838 -4.51722C592.703 -44.5499 711.459 -52.2171 718.099 -90.3435C724.74 -128.47 590.854 -114.798 602.843 -176.399Z" fill="#312E81"/>
</g>
<g filter="url(#filter1_f_12_2)">
<path d="M463.818 28.8779C457.756 59.2366 570.338 171.869 627.387 224.39L597.319 265.281C574.659 244.4 516.529 198.519 465.291 182.044C401.244 161.451 471.396 -9.07061 463.818 28.8779Z" fill="#D946EF"/>
</g>
<g filter="url(#filter2_f_12_2)">
<path d="M390.685 51.4183C340.069 70.0196 336.295 -5.54087 340.735 -45.6463L337.525 -46.5244L367.215 -209.042C395.484 -212.869 464.35 -212.71 513.658 -181.461C575.293 -142.4 453.955 28.1667 390.685 51.4183Z" fill="#38BDF8"/>
<path d="M390.685 51.4183C340.069 70.0196 336.295 -5.54087 340.735 -45.6463L337.525 -46.5244L367.215 -209.042C395.484 -212.869 464.35 -212.71 513.658 -181.461C575.293 -142.4 453.955 28.1667 390.685 51.4183Z" stroke="black"/>
</g>
<g filter="url(#filter3_f_12_2)">
<path d="M124.187 164.548L202 258L91.3616 258L-19.2769 258L-24 72L30.3156 128.674L124.187 164.548Z" fill="url(#paint2_linear_12_2)"/>
</g>
<path d="M317.111 60.8003C318.755 60.8003 320.281 60.9427 321.689 61.2275C323.105 61.5042 324.403 61.8623 325.583 62.3018V66.4033C325.119 66.1429 324.594 65.8906 324.008 65.6465C323.431 65.4023 322.8 65.1867 322.116 64.9995C321.433 64.8123 320.7 64.6618 319.919 64.5479C319.138 64.4339 318.316 64.377 317.453 64.377C316.379 64.377 315.443 64.4543 314.646 64.6089C313.848 64.7635 313.164 64.971 312.595 65.2314C312.025 65.4919 311.557 65.797 311.191 66.147C310.825 66.4888 310.536 66.855 310.324 67.2456C310.113 67.6362 309.966 68.035 309.885 68.4419C309.803 68.8488 309.763 69.2435 309.763 69.626C309.763 69.9596 309.795 70.3218 309.86 70.7124C309.934 71.103 310.064 71.4937 310.251 71.8843C310.446 72.2749 310.715 72.6493 311.057 73.0073C311.398 73.3654 311.842 73.6828 312.387 73.9595C312.941 74.2362 313.604 74.46 314.377 74.6309C315.15 74.7936 316.07 74.875 317.136 74.875C317.673 74.875 318.141 74.8587 318.54 74.8262C318.938 74.7936 319.3 74.7489 319.626 74.6919C319.96 74.6349 320.269 74.5658 320.554 74.4844C320.847 74.403 321.148 74.3175 321.457 74.228V72.2017H316.379V68.5273H325.986V77.0967C325.384 77.3001 324.708 77.4873 323.959 77.6582C323.219 77.821 322.45 77.9593 321.652 78.0732C320.863 78.1953 320.069 78.2889 319.272 78.354C318.474 78.4191 317.722 78.4517 317.014 78.4517C315.915 78.4517 314.861 78.3784 313.852 78.2319C312.843 78.0854 311.899 77.8617 311.02 77.5605C310.149 77.2513 309.352 76.8607 308.627 76.3887C307.911 75.9167 307.297 75.3551 306.784 74.7041C306.28 74.0531 305.885 73.3084 305.6 72.4702C305.323 71.6239 305.185 70.6758 305.185 69.626C305.185 68.5843 305.332 67.6403 305.625 66.7939C305.917 65.9476 306.324 65.1989 306.845 64.5479C307.374 63.8968 308.005 63.3353 308.737 62.8633C309.478 62.3913 310.288 62.0047 311.167 61.7036C312.054 61.3944 312.998 61.1665 313.999 61.02C315.008 60.8735 316.045 60.8003 317.111 60.8003ZM344.345 74.8262H334.995L333.42 78H328.366L337.143 61.2275H342.197L350.974 78H345.92L344.345 74.8262ZM336.618 71.5547H342.746L339.694 65.3779L336.618 71.5547ZM372.849 73.3735C372.849 74.0246 372.763 74.5902 372.592 75.0703C372.421 75.5505 372.181 75.9655 371.872 76.3154C371.571 76.6572 371.205 76.938 370.773 77.1577C370.35 77.3693 369.878 77.5402 369.357 77.6704C368.845 77.7925 368.295 77.8779 367.709 77.9268C367.124 77.9756 366.517 78 365.891 78H353.72V61.2275H365.671C366.151 61.2275 366.631 61.2479 367.111 61.2886C367.6 61.3293 368.063 61.4066 368.503 61.5205C368.942 61.6263 369.349 61.7769 369.724 61.9722C370.106 62.1675 370.436 62.4238 370.712 62.7412C370.997 63.0586 371.217 63.4411 371.372 63.8887C371.534 64.3363 371.616 64.8652 371.616 65.4756C371.616 66.5661 371.347 67.4328 370.81 68.0757C370.273 68.7104 369.427 69.1336 368.271 69.3452C369.085 69.4022 369.781 69.5283 370.358 69.7236C370.944 69.9108 371.42 70.1712 371.787 70.5049C372.153 70.8304 372.421 71.2332 372.592 71.7134C372.763 72.1854 372.849 72.7388 372.849 73.3735ZM367.197 66.1958C367.197 65.9842 367.164 65.7848 367.099 65.5977C367.034 65.4023 366.916 65.2314 366.745 65.085C366.574 64.9385 366.342 64.8205 366.049 64.731C365.756 64.6414 365.382 64.5967 364.926 64.5967H358.249V67.7461H364.926C365.382 67.7461 365.756 67.7054 366.049 67.624C366.342 67.5426 366.574 67.4328 366.745 67.2944C366.916 67.1561 367.034 66.9933 367.099 66.8062C367.164 66.6108 367.197 66.4074 367.197 66.1958ZM368.247 72.8486C368.247 72.4661 368.181 72.161 368.051 71.9331C367.921 71.6971 367.718 71.5181 367.441 71.396C367.164 71.2658 366.806 71.1803 366.367 71.1396C365.927 71.099 365.402 71.0786 364.792 71.0786H358.249V74.6309H364.792C365.402 74.6309 365.927 74.6105 366.367 74.5698C366.806 74.5291 367.164 74.4437 367.441 74.3135C367.718 74.1833 367.921 74.0042 368.051 73.7764C368.181 73.5404 368.247 73.2311 368.247 72.8486ZM376.987 78V61.2275H381.516V78H376.987ZM396.176 78V61.2275H400.705V74.3257H412.949V78H396.176ZM416.586 78V61.2275H421.115V78H416.586ZM426.376 78V61.2275H443.356V64.8042H431.027V67.5752H442.722V71.1519H431.027V74.4233H443.527V78H426.376ZM447.91 78V61.2275H452.438V78H447.91ZM462.229 78H457.7V61.2275H469.052C470.273 61.2275 471.306 61.3537 472.153 61.606C473.007 61.8582 473.699 62.2163 474.228 62.6802C474.765 63.144 475.152 63.7056 475.388 64.3647C475.632 65.0158 475.754 65.7441 475.754 66.5498C475.754 67.2578 475.652 67.8763 475.449 68.4053C475.253 68.9342 474.985 69.39 474.643 69.7725C474.309 70.1468 473.919 70.4642 473.471 70.7246C473.024 70.985 472.552 71.2007 472.055 71.3716L477.548 78H472.25L467.172 71.8232H462.229V78ZM471.176 66.5254C471.176 66.1999 471.132 65.9232 471.042 65.6953C470.961 65.4674 470.814 65.2843 470.603 65.146C470.391 64.9995 470.106 64.8937 469.748 64.8286C469.398 64.7635 468.959 64.731 468.43 64.731H462.229V68.3198H468.43C468.959 68.3198 469.398 68.2873 469.748 68.2222C470.106 68.1571 470.391 68.0553 470.603 67.917C470.814 67.7705 470.961 67.5833 471.042 67.3555C471.132 67.1276 471.176 66.8509 471.176 66.5254ZM494.272 74.8262H484.921L483.347 78H478.293L487.07 61.2275H492.124L500.9 78H495.847L494.272 74.8262ZM486.545 71.5547H492.673L489.621 65.3779L486.545 71.5547ZM503.647 67.3799H500.424L501.547 61.2275H505.551L503.647 67.3799ZM524.252 65.9517C523.935 65.797 523.516 65.6221 522.995 65.4268C522.474 65.2314 521.884 65.0483 521.225 64.8774C520.566 64.6984 519.85 64.5519 519.077 64.438C518.304 64.3159 517.51 64.2549 516.696 64.2549C516.045 64.2549 515.488 64.2752 515.024 64.3159C514.568 64.3566 514.182 64.4095 513.864 64.4746C513.555 64.5397 513.307 64.617 513.12 64.7065C512.941 64.7879 512.802 64.8734 512.705 64.9629C512.607 65.0524 512.542 65.1419 512.509 65.2314C512.485 65.321 512.473 65.4023 512.473 65.4756C512.473 65.7197 512.595 65.9354 512.839 66.1226C513.083 66.3016 513.417 66.4644 513.84 66.6108C514.263 66.7492 514.755 66.8835 515.317 67.0137C515.878 67.1357 516.472 67.266 517.099 67.4043C517.734 67.5345 518.385 67.681 519.052 67.8438C519.728 67.9984 520.379 68.1815 521.005 68.3931C521.64 68.6047 522.238 68.8529 522.8 69.1377C523.361 69.4144 523.854 69.7399 524.277 70.1143C524.7 70.4886 525.034 70.9199 525.278 71.4082C525.522 71.8965 525.644 72.4539 525.644 73.0806C525.644 73.8862 525.502 74.578 525.217 75.1558C524.932 75.7336 524.549 76.2218 524.069 76.6206C523.597 77.0194 523.048 77.3408 522.421 77.585C521.795 77.821 521.136 78.0041 520.444 78.1343C519.76 78.2645 519.064 78.3499 518.356 78.3906C517.657 78.4313 516.989 78.4517 516.354 78.4517C514.694 78.4517 513.156 78.3133 511.74 78.0366C510.332 77.7681 509.087 77.4303 508.005 77.0234V73.0195C509.12 73.638 510.389 74.1222 511.813 74.4722C513.246 74.8221 514.776 74.9971 516.403 74.9971C517.364 74.9971 518.145 74.9482 518.747 74.8506C519.357 74.7448 519.833 74.6146 520.175 74.46C520.517 74.2972 520.749 74.1222 520.871 73.9351C520.993 73.7479 521.054 73.5688 521.054 73.3979C521.054 73.1294 520.932 72.8975 520.688 72.7021C520.444 72.4987 520.11 72.3237 519.687 72.1772C519.264 72.0226 518.771 71.8843 518.21 71.7622C517.648 71.632 517.05 71.5059 516.416 71.3838C515.789 71.2536 515.142 71.1152 514.475 70.9688C513.807 70.8223 513.156 70.6514 512.521 70.4561C511.895 70.2526 511.301 70.0207 510.739 69.7603C510.178 69.4917 509.685 69.1784 509.262 68.8203C508.839 68.4541 508.505 68.035 508.261 67.563C508.017 67.0828 507.895 66.5295 507.895 65.9028C507.895 65.1623 508.025 64.5234 508.286 63.9863C508.546 63.4492 508.896 62.9935 509.335 62.6191C509.783 62.2367 510.296 61.9274 510.874 61.6914C511.459 61.4554 512.074 61.2723 512.717 61.1421C513.36 61.0119 514.011 60.9224 514.67 60.8735C515.329 60.8247 515.956 60.8003 516.55 60.8003C517.201 60.8003 517.868 60.8328 518.552 60.8979C519.243 60.9631 519.923 61.0566 520.59 61.1787C521.258 61.2926 521.901 61.4269 522.519 61.5815C523.146 61.7362 523.723 61.8989 524.252 62.0698V65.9517Z" fill="#EAEAEA"/>
<g filter="url(#filter4_d_12_2)">
<mask id="path-9-outside-1_12_2" maskUnits="userSpaceOnUse" x="207" y="88" width="419" height="43" fill="black">
<rect fill="white" x="207" y="88" width="419" height="43"/>
<path d="M250.634 103.696C250.634 105.54 250.366 107.241 249.829 108.798C249.292 110.338 248.423 111.672 247.224 112.8C246.042 113.91 244.502 114.778 242.604 115.405C240.707 116.031 238.397 116.345 235.676 116.345H219.133V128H209.169V91.1006H235.676C238.397 91.1006 240.707 91.4139 242.604 92.0405C244.502 92.6493 246.042 93.5176 247.224 94.6455C248.423 95.7555 249.292 97.0804 249.829 98.6201C250.366 100.16 250.634 101.852 250.634 103.696ZM240.563 103.857C240.563 102.998 240.438 102.264 240.188 101.655C239.955 101.028 239.561 100.518 239.006 100.124C238.451 99.7301 237.726 99.4437 236.831 99.2646C235.935 99.0677 234.834 98.9692 233.527 98.9692H219.133V108.476H233.527C234.834 108.476 235.935 108.404 236.831 108.261C237.726 108.1 238.451 107.84 239.006 107.482C239.561 107.106 239.955 106.623 240.188 106.032C240.438 105.441 240.563 104.716 240.563 103.857ZM306.655 109.577C306.655 112.746 306.073 115.548 304.909 117.983C303.745 120.4 302.08 122.423 299.914 124.052C297.748 125.681 295.116 126.917 292.019 127.758C288.939 128.582 285.475 128.994 281.625 128.994C277.776 128.994 274.294 128.582 271.179 127.758C268.081 126.917 265.441 125.681 263.256 124.052C261.072 122.423 259.389 120.4 258.208 117.983C257.026 115.548 256.435 112.746 256.435 109.577C256.435 106.408 257.026 103.615 258.208 101.198C259.389 98.7633 261.072 96.7313 263.256 95.1021C265.441 93.4728 268.081 92.2464 271.179 91.4229C274.294 90.5814 277.776 90.1606 281.625 90.1606C285.475 90.1606 288.939 90.5814 292.019 91.4229C295.116 92.2464 297.748 93.4728 299.914 95.1021C302.08 96.7313 303.745 98.7633 304.909 101.198C306.073 103.615 306.655 106.408 306.655 109.577ZM296.584 109.577C296.584 108.199 296.36 106.829 295.913 105.468C295.483 104.09 294.704 102.854 293.576 101.762C292.466 100.67 290.944 99.7839 289.011 99.1035C287.077 98.4232 284.615 98.083 281.625 98.083C279.62 98.083 277.857 98.2441 276.335 98.5664C274.813 98.8708 273.497 99.3005 272.387 99.8555C271.277 100.41 270.346 101.064 269.594 101.816C268.842 102.55 268.243 103.347 267.795 104.206C267.347 105.048 267.025 105.934 266.828 106.865C266.649 107.778 266.56 108.682 266.56 109.577C266.56 110.49 266.649 111.412 266.828 112.343C267.025 113.274 267.347 114.169 267.795 115.029C268.243 115.87 268.842 116.658 269.594 117.392C270.346 118.126 271.277 118.771 272.387 119.326C273.497 119.863 274.813 120.292 276.335 120.615C277.857 120.919 279.62 121.071 281.625 121.071C284.615 121.071 287.077 120.731 289.011 120.051C290.944 119.37 292.466 118.484 293.576 117.392C294.704 116.3 295.483 115.074 295.913 113.713C296.36 112.334 296.584 110.956 296.584 109.577ZM325.695 128H315.732V91.1006H340.708C343.393 91.1006 345.667 91.3781 347.529 91.9331C349.409 92.4881 350.931 93.2759 352.094 94.2964C353.276 95.3169 354.126 96.5522 354.646 98.0024C355.183 99.4347 355.451 101.037 355.451 102.81C355.451 104.367 355.227 105.728 354.78 106.892C354.35 108.055 353.759 109.058 353.007 109.899C352.273 110.723 351.414 111.421 350.429 111.994C349.444 112.567 348.406 113.042 347.314 113.417L359.399 128H347.744L336.572 114.411H325.695V128ZM345.38 102.756C345.38 102.04 345.282 101.431 345.085 100.93C344.906 100.428 344.584 100.026 344.118 99.7212C343.653 99.3989 343.026 99.1662 342.238 99.0229C341.468 98.8797 340.502 98.8081 339.338 98.8081H325.695V106.704H339.338C340.502 106.704 341.468 106.632 342.238 106.489C343.026 106.346 343.653 106.122 344.118 105.817C344.584 105.495 344.906 105.083 345.085 104.582C345.282 104.081 345.38 103.472 345.38 102.756ZM387.221 99.1304V128H377.258V99.1304H361.601V91.1006H402.905V99.1304H387.221ZM419.475 98.9692V105.388H443.457V113.256H419.475V128H409.511V91.1006H444.772V98.9692H419.475ZM501.035 109.577C501.035 112.746 500.453 115.548 499.289 117.983C498.125 120.4 496.46 122.423 494.294 124.052C492.128 125.681 489.496 126.917 486.398 127.758C483.319 128.582 479.855 128.994 476.005 128.994C472.156 128.994 468.674 128.582 465.559 127.758C462.461 126.917 459.82 125.681 457.636 124.052C455.452 122.423 453.769 120.4 452.587 117.983C451.406 115.548 450.815 112.746 450.815 109.577C450.815 106.408 451.406 103.615 452.587 101.198C453.769 98.7633 455.452 96.7313 457.636 95.1021C459.82 93.4728 462.461 92.2464 465.559 91.4229C468.674 90.5814 472.156 90.1606 476.005 90.1606C479.855 90.1606 483.319 90.5814 486.398 91.4229C489.496 92.2464 492.128 93.4728 494.294 95.1021C496.46 96.7313 498.125 98.7633 499.289 101.198C500.453 103.615 501.035 106.408 501.035 109.577ZM490.964 109.577C490.964 108.199 490.74 106.829 490.292 105.468C489.863 104.09 489.084 102.854 487.956 101.762C486.846 100.67 485.324 99.7839 483.391 99.1035C481.457 98.4232 478.995 98.083 476.005 98.083C474 98.083 472.237 98.2441 470.715 98.5664C469.193 98.8708 467.877 99.3005 466.767 99.8555C465.657 100.41 464.726 101.064 463.974 101.816C463.222 102.55 462.622 103.347 462.175 104.206C461.727 105.048 461.405 105.934 461.208 106.865C461.029 107.778 460.939 108.682 460.939 109.577C460.939 110.49 461.029 111.412 461.208 112.343C461.405 113.274 461.727 114.169 462.175 115.029C462.622 115.87 463.222 116.658 463.974 117.392C464.726 118.126 465.657 118.771 466.767 119.326C467.877 119.863 469.193 120.292 470.715 120.615C472.237 120.919 474 121.071 476.005 121.071C478.995 121.071 481.457 120.731 483.391 120.051C485.324 119.37 486.846 118.484 487.956 117.392C489.084 116.3 489.863 115.074 490.292 113.713C490.74 112.334 490.964 110.956 490.964 109.577ZM510.112 128V91.1006H520.075V119.917H547.011V128H510.112ZM555.014 128V91.1006H564.978V128H555.014ZM624.301 109.577C624.301 112.746 623.719 115.548 622.556 117.983C621.392 120.4 619.727 122.423 617.561 124.052C615.394 125.681 612.762 126.917 609.665 127.758C606.586 128.582 603.121 128.994 599.272 128.994C595.423 128.994 591.94 128.582 588.825 127.758C585.728 126.917 583.087 125.681 580.903 124.052C578.719 122.423 577.036 120.4 575.854 117.983C574.672 115.548 574.082 112.746 574.082 109.577C574.082 106.408 574.672 103.615 575.854 101.198C577.036 98.7633 578.719 96.7313 580.903 95.1021C583.087 93.4728 585.728 92.2464 588.825 91.4229C591.94 90.5814 595.423 90.1606 599.272 90.1606C603.121 90.1606 606.586 90.5814 609.665 91.4229C612.762 92.2464 615.394 93.4728 617.561 95.1021C619.727 96.7313 621.392 98.7633 622.556 101.198C623.719 103.615 624.301 106.408 624.301 109.577ZM614.23 109.577C614.23 108.199 614.007 106.829 613.559 105.468C613.129 104.09 612.351 102.854 611.223 101.762C610.113 100.67 608.591 99.7839 606.657 99.1035C604.724 98.4232 602.262 98.083 599.272 98.083C597.267 98.083 595.503 98.2441 593.981 98.5664C592.46 98.8708 591.144 99.3005 590.034 99.8555C588.924 100.41 587.993 101.064 587.241 101.816C586.489 102.55 585.889 103.347 585.441 104.206C584.994 105.048 584.672 105.934 584.475 106.865C584.296 107.778 584.206 108.682 584.206 109.577C584.206 110.49 584.296 111.412 584.475 112.343C584.672 113.274 584.994 114.169 585.441 115.029C585.889 115.87 586.489 116.658 587.241 117.392C587.993 118.126 588.924 118.771 590.034 119.326C591.144 119.863 592.46 120.292 593.981 120.615C595.503 120.919 597.267 121.071 599.272 121.071C602.262 121.071 604.724 120.731 606.657 120.051C608.591 119.37 610.113 118.484 611.223 117.392C612.351 116.3 613.129 115.074 613.559 113.713C614.007 112.334 614.23 110.956 614.23 109.577Z"/>
</mask>
<path d="M250.634 103.696C250.634 105.54 250.366 107.241 249.829 108.798C249.292 110.338 248.423 111.672 247.224 112.8C246.042 113.91 244.502 114.778 242.604 115.405C240.707 116.031 238.397 116.345 235.676 116.345H219.133V128H209.169V91.1006H235.676C238.397 91.1006 240.707 91.4139 242.604 92.0405C244.502 92.6493 246.042 93.5176 247.224 94.6455C248.423 95.7555 249.292 97.0804 249.829 98.6201C250.366 100.16 250.634 101.852 250.634 103.696ZM240.563 103.857C240.563 102.998 240.438 102.264 240.188 101.655C239.955 101.028 239.561 100.518 239.006 100.124C238.451 99.7301 237.726 99.4437 236.831 99.2646C235.935 99.0677 234.834 98.9692 233.527 98.9692H219.133V108.476H233.527C234.834 108.476 235.935 108.404 236.831 108.261C237.726 108.1 238.451 107.84 239.006 107.482C239.561 107.106 239.955 106.623 240.188 106.032C240.438 105.441 240.563 104.716 240.563 103.857ZM306.655 109.577C306.655 112.746 306.073 115.548 304.909 117.983C303.745 120.4 302.08 122.423 299.914 124.052C297.748 125.681 295.116 126.917 292.019 127.758C288.939 128.582 285.475 128.994 281.625 128.994C277.776 128.994 274.294 128.582 271.179 127.758C268.081 126.917 265.441 125.681 263.256 124.052C261.072 122.423 259.389 120.4 258.208 117.983C257.026 115.548 256.435 112.746 256.435 109.577C256.435 106.408 257.026 103.615 258.208 101.198C259.389 98.7633 261.072 96.7313 263.256 95.1021C265.441 93.4728 268.081 92.2464 271.179 91.4229C274.294 90.5814 277.776 90.1606 281.625 90.1606C285.475 90.1606 288.939 90.5814 292.019 91.4229C295.116 92.2464 297.748 93.4728 299.914 95.1021C302.08 96.7313 303.745 98.7633 304.909 101.198C306.073 103.615 306.655 106.408 306.655 109.577ZM296.584 109.577C296.584 108.199 296.36 106.829 295.913 105.468C295.483 104.09 294.704 102.854 293.576 101.762C292.466 100.67 290.944 99.7839 289.011 99.1035C287.077 98.4232 284.615 98.083 281.625 98.083C279.62 98.083 277.857 98.2441 276.335 98.5664C274.813 98.8708 273.497 99.3005 272.387 99.8555C271.277 100.41 270.346 101.064 269.594 101.816C268.842 102.55 268.243 103.347 267.795 104.206C267.347 105.048 267.025 105.934 266.828 106.865C266.649 107.778 266.56 108.682 266.56 109.577C266.56 110.49 266.649 111.412 266.828 112.343C267.025 113.274 267.347 114.169 267.795 115.029C268.243 115.87 268.842 116.658 269.594 117.392C270.346 118.126 271.277 118.771 272.387 119.326C273.497 119.863 274.813 120.292 276.335 120.615C277.857 120.919 279.62 121.071 281.625 121.071C284.615 121.071 287.077 120.731 289.011 120.051C290.944 119.37 292.466 118.484 293.576 117.392C294.704 116.3 295.483 115.074 295.913 113.713C296.36 112.334 296.584 110.956 296.584 109.577ZM325.695 128H315.732V91.1006H340.708C343.393 91.1006 345.667 91.3781 347.529 91.9331C349.409 92.4881 350.931 93.2759 352.094 94.2964C353.276 95.3169 354.126 96.5522 354.646 98.0024C355.183 99.4347 355.451 101.037 355.451 102.81C355.451 104.367 355.227 105.728 354.78 106.892C354.35 108.055 353.759 109.058 353.007 109.899C352.273 110.723 351.414 111.421 350.429 111.994C349.444 112.567 348.406 113.042 347.314 113.417L359.399 128H347.744L336.572 114.411H325.695V128ZM345.38 102.756C345.38 102.04 345.282 101.431 345.085 100.93C344.906 100.428 344.584 100.026 344.118 99.7212C343.653 99.3989 343.026 99.1662 342.238 99.0229C341.468 98.8797 340.502 98.8081 339.338 98.8081H325.695V106.704H339.338C340.502 106.704 341.468 106.632 342.238 106.489C343.026 106.346 343.653 106.122 344.118 105.817C344.584 105.495 344.906 105.083 345.085 104.582C345.282 104.081 345.38 103.472 345.38 102.756ZM387.221 99.1304V128H377.258V99.1304H361.601V91.1006H402.905V99.1304H387.221ZM419.475 98.9692V105.388H443.457V113.256H419.475V128H409.511V91.1006H444.772V98.9692H419.475ZM501.035 109.577C501.035 112.746 500.453 115.548 499.289 117.983C498.125 120.4 496.46 122.423 494.294 124.052C492.128 125.681 489.496 126.917 486.398 127.758C483.319 128.582 479.855 128.994 476.005 128.994C472.156 128.994 468.674 128.582 465.559 127.758C462.461 126.917 459.82 125.681 457.636 124.052C455.452 122.423 453.769 120.4 452.587 117.983C451.406 115.548 450.815 112.746 450.815 109.577C450.815 106.408 451.406 103.615 452.587 101.198C453.769 98.7633 455.452 96.7313 457.636 95.1021C459.82 93.4728 462.461 92.2464 465.559 91.4229C468.674 90.5814 472.156 90.1606 476.005 90.1606C479.855 90.1606 483.319 90.5814 486.398 91.4229C489.496 92.2464 492.128 93.4728 494.294 95.1021C496.46 96.7313 498.125 98.7633 499.289 101.198C500.453 103.615 501.035 106.408 501.035 109.577ZM490.964 109.577C490.964 108.199 490.74 106.829 490.292 105.468C489.863 104.09 489.084 102.854 487.956 101.762C486.846 100.67 485.324 99.7839 483.391 99.1035C481.457 98.4232 478.995 98.083 476.005 98.083C474 98.083 472.237 98.2441 470.715 98.5664C469.193 98.8708 467.877 99.3005 466.767 99.8555C465.657 100.41 464.726 101.064 463.974 101.816C463.222 102.55 462.622 103.347 462.175 104.206C461.727 105.048 461.405 105.934 461.208 106.865C461.029 107.778 460.939 108.682 460.939 109.577C460.939 110.49 461.029 111.412 461.208 112.343C461.405 113.274 461.727 114.169 462.175 115.029C462.622 115.87 463.222 116.658 463.974 117.392C464.726 118.126 465.657 118.771 466.767 119.326C467.877 119.863 469.193 120.292 470.715 120.615C472.237 120.919 474 121.071 476.005 121.071C478.995 121.071 481.457 120.731 483.391 120.051C485.324 119.37 486.846 118.484 487.956 117.392C489.084 116.3 489.863 115.074 490.292 113.713C490.74 112.334 490.964 110.956 490.964 109.577ZM510.112 128V91.1006H520.075V119.917H547.011V128H510.112ZM555.014 128V91.1006H564.978V128H555.014ZM624.301 109.577C624.301 112.746 623.719 115.548 622.556 117.983C621.392 120.4 619.727 122.423 617.561 124.052C615.394 125.681 612.762 126.917 609.665 127.758C606.586 128.582 603.121 128.994 599.272 128.994C595.423 128.994 591.94 128.582 588.825 127.758C585.728 126.917 583.087 125.681 580.903 124.052C578.719 122.423 577.036 120.4 575.854 117.983C574.672 115.548 574.082 112.746 574.082 109.577C574.082 106.408 574.672 103.615 575.854 101.198C577.036 98.7633 578.719 96.7313 580.903 95.1021C583.087 93.4728 585.728 92.2464 588.825 91.4229C591.94 90.5814 595.423 90.1606 599.272 90.1606C603.121 90.1606 606.586 90.5814 609.665 91.4229C612.762 92.2464 615.394 93.4728 617.561 95.1021C619.727 96.7313 621.392 98.7633 622.556 101.198C623.719 103.615 624.301 106.408 624.301 109.577ZM614.23 109.577C614.23 108.199 614.007 106.829 613.559 105.468C613.129 104.09 612.351 102.854 611.223 101.762C610.113 100.67 608.591 99.7839 606.657 99.1035C604.724 98.4232 602.262 98.083 599.272 98.083C597.267 98.083 595.503 98.2441 593.981 98.5664C592.46 98.8708 591.144 99.3005 590.034 99.8555C588.924 100.41 587.993 101.064 587.241 101.816C586.489 102.55 585.889 103.347 585.441 104.206C584.994 105.048 584.672 105.934 584.475 106.865C584.296 107.778 584.206 108.682 584.206 109.577C584.206 110.49 584.296 111.412 584.475 112.343C584.672 113.274 584.994 114.169 585.441 115.029C585.889 115.87 586.489 116.658 587.241 117.392C587.993 118.126 588.924 118.771 590.034 119.326C591.144 119.863 592.46 120.292 593.981 120.615C595.503 120.919 597.267 121.071 599.272 121.071C602.262 121.071 604.724 120.731 606.657 120.051C608.591 119.37 610.113 118.484 611.223 117.392C612.351 116.3 613.129 115.074 613.559 113.713C614.007 112.334 614.23 110.956 614.23 109.577Z" fill="url(#paint3_linear_12_2)"/>
<path d="M249.829 108.798L251.081 109.235L251.083 109.231L249.829 108.798ZM247.224 112.8L248.132 113.767L248.132 113.766L247.224 112.8ZM219.133 116.345V115.018H217.806V116.345H219.133ZM219.133 128V129.326H220.459V128H219.133ZM209.169 128H207.843V129.326H209.169V128ZM209.169 91.1006V89.7742H207.843V91.1006H209.169ZM242.604 92.0405L242.189 93.3001L242.199 93.3035L242.604 92.0405ZM247.224 94.6455L246.308 95.6049L246.315 95.612L246.323 95.619L247.224 94.6455ZM240.188 101.655L238.944 102.117L238.952 102.138L238.961 102.16L240.188 101.655ZM239.006 100.124L238.238 101.206L239.006 100.124ZM236.831 99.2646L236.546 100.56L236.558 100.563L236.57 100.565L236.831 99.2646ZM219.133 98.9692V97.6429H217.806V98.9692H219.133ZM219.133 108.476H217.806V109.802H219.133V108.476ZM236.831 108.261L237.04 109.571L237.053 109.569L237.066 109.567L236.831 108.261ZM239.006 107.482L239.725 108.597L239.737 108.589L239.75 108.581L239.006 107.482ZM240.188 106.032L238.966 105.514L238.96 105.53L238.953 105.546L240.188 106.032ZM249.308 103.696C249.308 105.41 249.058 106.963 248.575 108.366L251.083 109.231C251.673 107.518 251.961 105.67 251.961 103.696H249.308ZM248.576 108.361C248.11 109.698 247.361 110.85 246.315 111.834L248.132 113.766C249.486 112.493 250.473 110.979 251.081 109.235L248.576 108.361ZM246.316 111.833C245.304 112.784 243.945 113.565 242.189 114.145L243.02 116.664C245.06 115.991 246.78 115.036 248.132 113.767L246.316 111.833ZM242.189 114.145C240.464 114.715 238.303 115.018 235.676 115.018V117.671C238.491 117.671 240.95 117.348 243.02 116.664L242.189 114.145ZM235.676 115.018H219.133V117.671H235.676V115.018ZM217.806 116.345V128H220.459V116.345H217.806ZM219.133 126.674H209.169V129.326H219.133V126.674ZM210.496 128V91.1006H207.843V128H210.496ZM209.169 92.4269H235.676V89.7742H209.169V92.4269ZM235.676 92.4269C238.303 92.4269 240.464 92.7304 242.189 93.3L243.02 90.781C240.95 90.0973 238.491 89.7742 235.676 89.7742V92.4269ZM242.199 93.3035C243.947 93.8642 245.3 94.6426 246.308 95.6049L248.139 93.6861C246.784 92.3925 245.057 91.4343 243.01 90.7775L242.199 93.3035ZM246.323 95.619C247.363 96.582 248.111 97.7227 248.576 99.057L251.081 98.1833C250.472 96.4381 249.483 94.9291 248.124 93.672L246.323 95.619ZM248.576 99.057C249.058 100.439 249.308 101.981 249.308 103.696H251.961C251.961 101.722 251.673 99.8805 251.081 98.1833L248.576 99.057ZM241.89 103.857C241.89 102.875 241.747 101.959 241.414 101.15L238.961 102.16C239.129 102.568 239.237 103.12 239.237 103.857H241.89ZM241.431 101.193C241.104 100.312 240.542 99.5874 239.773 99.0424L238.238 101.206C238.58 101.448 238.806 101.744 238.944 102.117L241.431 101.193ZM239.773 99.0424C239.024 98.5106 238.109 98.1678 237.091 97.964L236.57 100.565C237.342 100.72 237.878 100.95 238.238 101.206L239.773 99.0424ZM237.116 97.9693C236.097 97.7451 234.893 97.6429 233.527 97.6429V100.296C234.775 100.296 235.774 100.39 236.546 100.56L237.116 97.9693ZM233.527 97.6429H219.133V100.296H233.527V97.6429ZM217.806 98.9692V108.476H220.459V98.9692H217.806ZM219.133 109.802H233.527V107.15H219.133V109.802ZM233.527 109.802C234.877 109.802 236.053 109.729 237.04 109.571L236.621 106.952C235.818 107.08 234.792 107.15 233.527 107.15V109.802ZM237.066 109.567C238.072 109.385 238.978 109.079 239.725 108.597L238.287 106.368C237.923 106.602 237.379 106.815 236.596 106.956L237.066 109.567ZM239.75 108.581C240.513 108.063 241.085 107.372 241.422 106.518L238.953 105.546C238.824 105.874 238.609 106.149 238.262 106.384L239.75 108.581ZM241.409 106.55C241.748 105.75 241.89 104.837 241.89 103.857H239.237C239.237 104.595 239.128 105.133 238.966 105.514L241.409 106.55ZM304.909 117.983L306.104 118.558L306.106 118.555L304.909 117.983ZM299.914 124.052L299.117 122.992L299.914 124.052ZM292.019 127.758L292.361 129.04L292.366 129.038L292.019 127.758ZM271.179 127.758L270.831 129.038L270.84 129.041L271.179 127.758ZM258.208 117.983L257.014 118.562L257.016 118.565L258.208 117.983ZM258.208 101.198L259.399 101.781L259.401 101.777L258.208 101.198ZM271.179 91.4229L271.52 92.7047L271.525 92.7033L271.179 91.4229ZM292.019 91.4229L291.669 92.7023L291.678 92.7047L292.019 91.4229ZM304.909 101.198L303.712 101.77L303.714 101.774L304.909 101.198ZM295.913 105.468L294.646 105.863L294.649 105.873L294.653 105.883L295.913 105.468ZM293.576 101.762L292.646 102.708L292.654 102.715L293.576 101.762ZM276.335 98.5664L276.595 99.867L276.602 99.8655L276.61 99.864L276.335 98.5664ZM269.594 101.816L270.521 102.765L270.526 102.759L270.532 102.754L269.594 101.816ZM267.795 104.206L268.966 104.829L268.971 104.819L267.795 104.206ZM266.828 106.865L265.53 106.59L265.528 106.6L265.527 106.61L266.828 106.865ZM266.828 112.343L265.526 112.594L265.528 112.606L265.53 112.618L266.828 112.343ZM267.795 115.029L266.619 115.642L266.624 115.652L267.795 115.029ZM272.387 119.326L271.794 120.512L271.802 120.516L271.809 120.52L272.387 119.326ZM276.335 120.615L276.06 121.912L276.068 121.914L276.075 121.915L276.335 120.615ZM293.576 117.392L292.654 116.439L292.646 116.447L293.576 117.392ZM295.913 113.713L294.651 113.303L294.648 113.313L295.913 113.713ZM305.328 109.577C305.328 112.582 304.777 115.183 303.712 117.411L306.106 118.555C307.369 115.913 307.981 112.91 307.981 109.577H305.328ZM303.714 117.408C302.643 119.631 301.116 121.489 299.117 122.992L300.711 125.112C303.045 123.357 304.848 121.168 306.104 118.558L303.714 117.408ZM299.117 122.992C297.107 124.503 294.635 125.673 291.671 126.478L292.366 129.038C295.597 128.161 298.388 126.859 300.711 125.112L299.117 122.992ZM291.676 126.477C288.729 127.265 285.382 127.667 281.625 127.667V130.32C285.567 130.32 289.15 129.899 292.361 129.04L291.676 126.477ZM281.625 127.667C277.869 127.667 274.503 127.265 271.518 126.476L270.84 129.041C274.085 129.898 277.683 130.32 281.625 130.32V127.667ZM271.526 126.478C268.562 125.673 266.079 124.503 264.049 122.989L262.463 125.115C264.803 126.86 267.601 128.161 270.831 129.038L271.526 126.478ZM264.049 122.989C262.032 121.484 260.487 119.625 259.399 117.4L257.016 118.565C258.292 121.175 260.112 123.362 262.463 125.115L264.049 122.989ZM259.401 117.404C258.32 115.178 257.761 112.58 257.761 109.577H255.109C255.109 112.913 255.731 115.918 257.014 118.562L259.401 117.404ZM257.761 109.577C257.761 106.574 258.321 103.987 259.399 101.781L257.016 100.616C255.731 103.244 255.109 106.242 255.109 109.577H257.761ZM259.401 101.777C260.489 99.5349 262.034 97.6684 264.049 96.1652L262.463 94.0389C260.11 95.7942 258.289 97.9918 257.014 100.619L259.401 101.777ZM264.049 96.1652C266.077 94.6531 268.557 93.4923 271.52 92.7047L270.838 90.141C267.606 91.0005 264.805 92.2925 262.463 94.0389L264.049 96.1652ZM271.525 92.7033C274.508 91.8975 277.871 91.487 281.625 91.487V88.8343C277.681 88.8343 274.08 89.2653 270.833 90.1424L271.525 92.7033ZM281.625 91.487C285.38 91.487 288.724 91.8976 291.669 92.7023L292.368 90.1434C289.154 89.2652 285.57 88.8343 281.625 88.8343V91.487ZM291.678 92.7047C294.64 93.4922 297.109 94.6524 299.117 96.1621L300.711 94.042C298.386 92.2933 295.592 91.0006 292.359 90.141L291.678 92.7047ZM299.117 96.1621C301.114 97.6637 302.641 99.5286 303.712 101.77L306.106 100.626C304.85 97.9981 303.047 95.7989 300.711 94.042L299.117 96.1621ZM303.714 101.774C304.777 103.981 305.328 106.572 305.328 109.577H307.981C307.981 106.245 307.369 103.249 306.104 100.623L303.714 101.774ZM297.91 109.577C297.91 108.052 297.662 106.543 297.173 105.054L294.653 105.883C295.058 107.115 295.258 108.345 295.258 109.577H297.91ZM297.179 105.074C296.677 103.465 295.772 102.042 294.499 100.809L292.654 102.715C293.636 103.667 294.288 104.714 294.646 105.863L297.179 105.074ZM294.506 100.817C293.221 99.5519 291.513 98.5778 289.451 97.8523L288.571 100.355C290.376 100.99 291.711 101.788 292.646 102.708L294.506 100.817ZM289.451 97.8523C287.327 97.105 284.703 96.7566 281.625 96.7566V99.4094C284.528 99.4094 286.827 99.7413 288.571 100.355L289.451 97.8523ZM281.625 96.7566C279.553 96.7566 277.694 96.9229 276.06 97.2688L276.61 99.864C278.02 99.5654 279.688 99.4094 281.625 99.4094V96.7566ZM276.075 97.2658C274.465 97.5878 273.032 98.0502 271.794 98.6691L272.98 101.042C273.962 100.551 275.161 100.154 276.595 99.867L276.075 97.2658ZM271.794 98.6691C270.577 99.2775 269.524 100.01 268.656 100.878L270.532 102.754C271.168 102.118 271.977 101.543 272.98 101.042L271.794 98.6691ZM268.668 100.867C267.824 101.691 267.136 102.599 266.619 103.593L268.971 104.819C269.349 104.094 269.861 103.409 270.521 102.765L268.668 100.867ZM266.624 103.583C266.118 104.534 265.753 105.538 265.53 106.59L268.126 107.139C268.297 106.33 268.577 105.561 268.966 104.829L266.624 103.583ZM265.527 106.61C265.332 107.603 265.233 108.593 265.233 109.577H267.886C267.886 108.771 267.967 107.952 268.13 107.12L265.527 106.61ZM265.233 109.577C265.233 110.577 265.331 111.583 265.526 112.594L268.131 112.093C267.967 111.241 267.886 110.403 267.886 109.577H265.233ZM265.53 112.618C265.753 113.669 266.116 114.677 266.619 115.641L268.971 114.416C268.578 113.661 268.297 112.88 268.126 112.069L265.53 112.618ZM266.624 115.652C267.142 116.626 267.828 117.521 268.668 118.341L270.521 116.443C269.857 115.795 269.343 115.115 268.966 114.406L266.624 115.652ZM268.668 118.341C269.534 119.187 270.583 119.906 271.794 120.512L272.98 118.139C271.971 117.635 271.159 117.066 270.521 116.443L268.668 118.341ZM271.809 120.52C273.037 121.114 274.459 121.573 276.06 121.912L276.61 119.317C275.167 119.012 273.957 118.612 272.965 118.132L271.809 120.52ZM276.075 121.915C277.703 122.241 279.557 122.398 281.625 122.398V119.745C279.684 119.745 278.011 119.597 276.595 119.314L276.075 121.915ZM281.625 122.398C284.703 122.398 287.327 122.049 289.451 121.302L288.571 118.8C286.827 119.413 284.528 119.745 281.625 119.745V122.398ZM289.451 121.302C291.513 120.577 293.221 119.602 294.506 118.338L292.646 116.447C291.711 117.366 290.376 118.164 288.571 118.8L289.451 121.302ZM294.499 118.345C295.769 117.115 296.675 115.704 297.177 114.112L294.648 113.313C294.291 114.444 293.639 115.485 292.654 116.439L294.499 118.345ZM297.174 114.122C297.662 112.618 297.91 111.102 297.91 109.577H295.258C295.258 110.81 295.058 112.05 294.651 113.303L297.174 114.122ZM325.695 128V129.326H327.022V128H325.695ZM315.732 128H314.406V129.326H315.732V128ZM315.732 91.1006V89.7742H314.406V91.1006H315.732ZM347.529 91.9331L347.15 93.2042L347.153 93.2052L347.529 91.9331ZM352.094 94.2964L351.22 95.2937L351.227 95.3002L352.094 94.2964ZM354.646 98.0024L353.397 98.4495L353.4 98.4589L353.404 98.4682L354.646 98.0024ZM354.78 106.892L353.542 106.415L353.539 106.424L353.536 106.432L354.78 106.892ZM353.007 109.899L352.018 109.016L352.017 109.017L353.007 109.899ZM347.314 113.417L346.882 112.163L345.069 112.787L346.293 114.264L347.314 113.417ZM359.399 128V129.326H362.221L360.42 127.154L359.399 128ZM347.744 128L346.719 128.842L347.117 129.326H347.744V128ZM336.572 114.411L337.596 113.569L337.198 113.085H336.572V114.411ZM325.695 114.411V113.085H324.369V114.411H325.695ZM345.085 100.93L343.836 101.376L343.843 101.395L343.85 101.415L345.085 100.93ZM344.118 99.7212L343.363 100.812L343.378 100.822L343.392 100.831L344.118 99.7212ZM342.238 99.0229L341.996 100.327L342.001 100.328L342.238 99.0229ZM325.695 98.8081V97.4817H324.369V98.8081H325.695ZM325.695 106.704H324.369V108.03H325.695V106.704ZM342.238 106.489L342.001 105.184L341.996 105.185L342.238 106.489ZM344.118 105.817L344.844 106.928L344.859 106.918L344.873 106.908L344.118 105.817ZM345.085 104.582L343.85 104.097L343.843 104.116L343.836 104.136L345.085 104.582ZM325.695 126.674H315.732V129.326H325.695V126.674ZM317.058 128V91.1006H314.406V128H317.058ZM315.732 92.4269H340.708V89.7742H315.732V92.4269ZM340.708 92.4269C343.31 92.4269 345.448 92.6968 347.15 93.2042L347.908 90.662C345.886 90.0594 343.476 89.7742 340.708 89.7742V92.4269ZM347.153 93.2052C348.896 93.7198 350.234 94.4288 351.22 95.2936L352.969 93.2992C351.627 92.1229 349.921 91.2564 347.904 90.661L347.153 93.2052ZM351.227 95.3002C352.238 96.1733 352.956 97.2178 353.397 98.4495L355.894 97.5554C355.297 95.8867 354.313 94.4605 352.961 93.2926L351.227 95.3002ZM353.404 98.4682C353.877 99.7299 354.125 101.171 354.125 102.81H356.778C356.778 100.903 356.488 99.1395 355.887 97.5367L353.404 98.4682ZM354.125 102.81C354.125 104.243 353.918 105.436 353.542 106.415L356.018 107.368C356.536 106.019 356.778 104.491 356.778 102.81H354.125ZM353.536 106.432C353.158 107.455 352.649 108.31 352.018 109.016L353.996 110.783C354.87 109.806 355.542 108.655 356.024 107.351L353.536 106.432ZM352.017 109.017C351.379 109.733 350.63 110.343 349.762 110.848L351.096 113.141C352.198 112.5 353.167 111.713 353.997 110.782L352.017 109.017ZM349.762 110.848C348.853 111.377 347.894 111.815 346.882 112.163L347.746 114.672C348.918 114.268 350.036 113.758 351.096 113.141L349.762 110.848ZM346.293 114.264L358.378 128.846L360.42 127.154L348.335 112.571L346.293 114.264ZM359.399 126.674H347.744V129.326H359.399V126.674ZM348.768 127.158L337.596 113.569L335.547 115.253L346.719 128.842L348.768 127.158ZM336.572 113.085H325.695V115.737H336.572V113.085ZM324.369 114.411V128H327.022V114.411H324.369ZM346.707 102.756C346.707 101.925 346.593 101.142 346.319 100.445L343.85 101.415C343.97 101.72 344.054 102.154 344.054 102.756H346.707ZM346.334 100.484C346.053 99.697 345.54 99.0662 344.844 98.6111L343.392 100.831C343.627 100.985 343.759 101.16 343.836 101.376L346.334 100.484ZM344.873 98.6307C344.202 98.166 343.378 97.882 342.476 97.718L342.001 100.328C342.675 100.45 343.103 100.632 343.363 100.812L344.873 98.6307ZM342.481 97.719C341.603 97.5556 340.548 97.4817 339.338 97.4817V100.134C340.455 100.134 341.334 100.204 341.996 100.327L342.481 97.719ZM339.338 97.4817H325.695V100.134H339.338V97.4817ZM324.369 98.8081V106.704H327.022V98.8081H324.369ZM325.695 108.03H339.338V105.377H325.695V108.03ZM339.338 108.03C340.548 108.03 341.603 107.956 342.481 107.793L341.996 105.185C341.334 105.308 340.455 105.377 339.338 105.377V108.03ZM342.476 107.794C343.367 107.632 344.18 107.362 344.844 106.928L343.392 104.707C343.125 104.882 342.685 105.059 342.001 105.184L342.476 107.794ZM344.873 106.908C345.551 106.438 346.056 105.808 346.334 105.028L343.836 104.136C343.756 104.359 343.616 104.552 343.363 104.727L344.873 106.908ZM346.319 105.067C346.593 104.37 346.707 103.586 346.707 102.756H344.054C344.054 103.358 343.97 103.792 343.85 104.097L346.319 105.067ZM387.221 99.1304V97.804H385.895V99.1304H387.221ZM387.221 128V129.326H388.548V128H387.221ZM377.258 128H375.931V129.326H377.258V128ZM377.258 99.1304H378.584V97.804H377.258V99.1304ZM361.601 99.1304H360.275V100.457H361.601V99.1304ZM361.601 91.1006V89.7742H360.275V91.1006H361.601ZM402.905 91.1006H404.231V89.7742H402.905V91.1006ZM402.905 99.1304V100.457H404.231V99.1304H402.905ZM385.895 99.1304V128H388.548V99.1304H385.895ZM387.221 126.674H377.258V129.326H387.221V126.674ZM378.584 128V99.1304H375.931V128H378.584ZM377.258 97.804H361.601V100.457H377.258V97.804ZM362.927 99.1304V91.1006H360.275V99.1304H362.927ZM361.601 92.4269H402.905V89.7742H361.601V92.4269ZM401.578 91.1006V99.1304H404.231V91.1006H401.578ZM402.905 97.804H387.221V100.457H402.905V97.804ZM419.475 98.9692V97.6429H418.148V98.9692H419.475ZM419.475 105.388H418.148V106.714H419.475V105.388ZM443.457 105.388H444.783V104.061H443.457V105.388ZM443.457 113.256V114.583H444.783V113.256H443.457ZM419.475 113.256V111.93H418.148V113.256H419.475ZM419.475 128V129.326H420.801V128H419.475ZM409.511 128H408.185V129.326H409.511V128ZM409.511 91.1006V89.7742H408.185V91.1006H409.511ZM444.772 91.1006H446.099V89.7742H444.772V91.1006ZM444.772 98.9692V100.296H446.099V98.9692H444.772ZM418.148 98.9692V105.388H420.801V98.9692H418.148ZM419.475 106.714H443.457V104.061H419.475V106.714ZM442.13 105.388V113.256H444.783V105.388H442.13ZM443.457 111.93H419.475V114.583H443.457V111.93ZM418.148 113.256V128H420.801V113.256H418.148ZM419.475 126.674H409.511V129.326H419.475V126.674ZM410.838 128V91.1006H408.185V128H410.838ZM409.511 92.4269H444.772V89.7742H409.511V92.4269ZM443.446 91.1006V98.9692H446.099V91.1006H443.446ZM444.772 97.6429H419.475V100.296H444.772V97.6429ZM499.289 117.983L500.484 118.558L500.486 118.555L499.289 117.983ZM494.294 124.052L493.497 122.992L494.294 124.052ZM486.398 127.758L486.741 129.04L486.746 129.038L486.398 127.758ZM465.559 127.758L465.211 129.038L465.22 129.041L465.559 127.758ZM452.587 117.983L451.394 118.562L451.396 118.565L452.587 117.983ZM452.587 101.198L453.779 101.781L453.781 101.777L452.587 101.198ZM465.559 91.4229L465.899 92.7047L465.904 92.7033L465.559 91.4229ZM486.398 91.4229L486.049 92.7023L486.058 92.7047L486.398 91.4229ZM499.289 101.198L498.092 101.77L498.094 101.774L499.289 101.198ZM490.292 105.468L489.026 105.863L489.029 105.873L489.033 105.883L490.292 105.468ZM487.956 101.762L487.026 102.708L487.033 102.715L487.956 101.762ZM470.715 98.5664L470.975 99.867L470.982 99.8655L470.99 99.864L470.715 98.5664ZM463.974 101.816L464.901 102.765L464.906 102.759L464.912 102.754L463.974 101.816ZM462.175 104.206L463.346 104.829L463.351 104.819L462.175 104.206ZM461.208 106.865L459.91 106.59L459.908 106.6L459.906 106.61L461.208 106.865ZM461.208 112.343L459.906 112.594L459.908 112.606L459.91 112.618L461.208 112.343ZM462.175 115.029L460.998 115.642L461.004 115.652L462.175 115.029ZM466.767 119.326L466.174 120.512L466.182 120.516L466.189 120.52L466.767 119.326ZM470.715 120.615L470.44 121.912L470.447 121.914L470.455 121.915L470.715 120.615ZM487.956 117.392L487.033 116.439L487.026 116.447L487.956 117.392ZM490.292 113.713L489.031 113.303L489.028 113.313L490.292 113.713ZM499.708 109.577C499.708 112.582 499.157 115.183 498.092 117.411L500.486 118.555C501.748 115.913 502.361 112.91 502.361 109.577H499.708ZM498.094 117.408C497.023 119.631 495.495 121.489 493.497 122.992L495.091 125.112C497.425 123.357 499.227 121.168 500.484 118.558L498.094 117.408ZM493.497 122.992C491.487 124.503 489.015 125.673 486.051 126.478L486.746 129.038C489.977 128.161 492.768 126.859 495.091 125.112L493.497 122.992ZM486.056 126.477C483.108 127.265 479.762 127.667 476.005 127.667V130.32C479.947 130.32 483.53 129.899 486.741 129.04L486.056 126.477ZM476.005 127.667C472.249 127.667 468.883 127.265 465.898 126.476L465.22 129.041C468.464 129.898 472.063 130.32 476.005 130.32V127.667ZM465.906 126.478C462.942 125.673 460.459 124.503 458.429 122.989L456.843 125.115C459.182 126.86 461.981 128.161 465.211 129.038L465.906 126.478ZM458.429 122.989C456.412 121.484 454.867 119.625 453.779 117.4L451.396 118.565C452.671 121.175 454.492 123.362 456.843 125.115L458.429 122.989ZM453.781 117.404C452.7 115.178 452.141 112.58 452.141 109.577H449.489C449.489 112.913 450.111 115.918 451.394 118.562L453.781 117.404ZM452.141 109.577C452.141 106.574 452.7 103.987 453.779 101.781L451.396 100.616C450.111 103.244 449.489 106.242 449.489 109.577H452.141ZM453.781 101.777C454.869 99.5349 456.414 97.6684 458.429 96.1652L456.843 94.0389C454.49 95.7942 452.669 97.9918 451.394 100.619L453.781 101.777ZM458.429 96.1652C460.456 94.6531 462.937 93.4923 465.899 92.7047L465.218 90.141C461.985 91.0005 459.185 92.2925 456.843 94.0389L458.429 96.1652ZM465.904 92.7033C468.888 91.8975 472.251 91.487 476.005 91.487V88.8343C472.061 88.8343 468.46 89.2653 465.213 90.1424L465.904 92.7033ZM476.005 91.487C479.76 91.487 483.104 91.8976 486.049 92.7023L486.748 90.1434C483.534 89.2652 479.949 88.8343 476.005 88.8343V91.487ZM486.058 92.7047C489.019 93.4922 491.489 94.6524 493.497 96.1621L495.091 94.042C492.766 92.2933 489.972 91.0006 486.739 90.141L486.058 92.7047ZM493.497 96.1621C495.493 97.6637 497.021 99.5286 498.092 101.77L500.486 100.626C499.23 97.9981 497.427 95.7989 495.091 94.042L493.497 96.1621ZM498.094 101.774C499.157 103.981 499.708 106.572 499.708 109.577H502.361C502.361 106.245 501.749 103.249 500.484 100.623L498.094 101.774ZM492.29 109.577C492.29 108.052 492.042 106.543 491.552 105.054L489.033 105.883C489.438 107.115 489.638 108.345 489.638 109.577H492.29ZM491.559 105.074C491.057 103.465 490.152 102.042 488.879 100.809L487.033 102.715C488.016 103.667 488.668 104.714 489.026 105.863L491.559 105.074ZM488.886 100.817C487.601 99.5519 485.893 98.5778 483.831 97.8523L482.95 100.355C484.756 100.99 486.091 101.788 487.026 102.708L488.886 100.817ZM483.831 97.8523C481.707 97.105 479.083 96.7566 476.005 96.7566V99.4094C478.908 99.4094 481.207 99.7413 482.95 100.355L483.831 97.8523ZM476.005 96.7566C473.933 96.7566 472.074 96.9229 470.44 97.2688L470.99 99.864C472.4 99.5654 474.068 99.4094 476.005 99.4094V96.7566ZM470.455 97.2658C468.845 97.5878 467.412 98.0502 466.174 98.6691L467.36 101.042C468.342 100.551 469.541 100.154 470.975 99.867L470.455 97.2658ZM466.174 98.6691C464.957 99.2775 463.904 100.01 463.036 100.878L464.912 102.754C465.548 102.118 466.357 101.543 467.36 101.042L466.174 98.6691ZM463.048 100.867C462.204 101.691 461.516 102.599 460.998 103.593L463.351 104.819C463.729 104.094 464.241 103.409 464.901 102.765L463.048 100.867ZM461.004 103.583C460.498 104.534 460.133 105.538 459.91 106.59L462.506 107.139C462.677 106.33 462.956 105.561 463.346 104.829L461.004 103.583ZM459.906 106.61C459.712 107.603 459.613 108.593 459.613 109.577H462.266C462.266 108.771 462.346 107.952 462.51 107.12L459.906 106.61ZM459.613 109.577C459.613 110.577 459.711 111.583 459.906 112.594L462.511 112.093C462.347 111.241 462.266 110.403 462.266 109.577H459.613ZM459.91 112.618C460.133 113.669 460.496 114.677 460.998 115.641L463.351 114.416C462.958 113.661 462.677 112.88 462.506 112.069L459.91 112.618ZM461.004 115.652C461.522 116.626 462.208 117.521 463.048 118.341L464.901 116.443C464.237 115.795 463.723 115.115 463.346 114.406L461.004 115.652ZM463.048 118.341C463.914 119.187 464.963 119.906 466.174 120.512L467.36 118.139C466.351 117.635 465.539 117.066 464.901 116.443L463.048 118.341ZM466.189 120.52C467.417 121.114 468.839 121.573 470.44 121.912L470.99 119.317C469.547 119.012 468.337 118.612 467.345 118.132L466.189 120.52ZM470.455 121.915C472.083 122.241 473.937 122.398 476.005 122.398V119.745C474.064 119.745 472.391 119.597 470.975 119.314L470.455 121.915ZM476.005 122.398C479.083 122.398 481.707 122.049 483.831 121.302L482.95 118.8C481.207 119.413 478.908 119.745 476.005 119.745V122.398ZM483.831 121.302C485.893 120.577 487.601 119.602 488.886 118.338L487.026 116.447C486.091 117.366 484.756 118.164 482.95 118.8L483.831 121.302ZM488.879 118.345C490.149 117.115 491.055 115.704 491.557 114.112L489.028 113.313C488.671 114.444 488.019 115.485 487.033 116.439L488.879 118.345ZM491.554 114.122C492.042 112.618 492.29 111.102 492.29 109.577H489.638C489.638 110.81 489.438 112.05 489.031 113.303L491.554 114.122ZM510.112 128H508.785V129.326H510.112V128ZM510.112 91.1006V89.7742H508.785V91.1006H510.112ZM520.075 91.1006H521.402V89.7742H520.075V91.1006ZM520.075 119.917H518.749V121.243H520.075V119.917ZM547.011 119.917H548.338V118.59H547.011V119.917ZM547.011 128V129.326H548.338V128H547.011ZM511.438 128V91.1006H508.785V128H511.438ZM510.112 92.4269H520.075V89.7742H510.112V92.4269ZM518.749 91.1006V119.917H521.402V91.1006H518.749ZM520.075 121.243H547.011V118.59H520.075V121.243ZM545.685 119.917V128H548.338V119.917H545.685ZM547.011 126.674H510.112V129.326H547.011V126.674ZM555.014 128H553.688V129.326H555.014V128ZM555.014 91.1006V89.7742H553.688V91.1006H555.014ZM564.978 91.1006H566.304V89.7742H564.978V91.1006ZM564.978 128V129.326H566.304V128H564.978ZM556.341 128V91.1006H553.688V128H556.341ZM555.014 92.4269H564.978V89.7742H555.014V92.4269ZM563.651 91.1006V128H566.304V91.1006H563.651ZM564.978 126.674H555.014V129.326H564.978V126.674ZM622.556 117.983L623.751 118.558L623.752 118.555L622.556 117.983ZM617.561 124.052L616.763 122.992L617.561 124.052ZM609.665 127.758L610.008 129.04L610.013 129.038L609.665 127.758ZM588.825 127.758L588.477 129.038L588.486 129.041L588.825 127.758ZM575.854 117.983L574.661 118.562L574.662 118.565L575.854 117.983ZM575.854 101.198L577.046 101.781L577.047 101.777L575.854 101.198ZM588.825 91.4229L589.166 92.7047L589.171 92.7033L588.825 91.4229ZM609.665 91.4229L609.315 92.7023L609.324 92.7047L609.665 91.4229ZM622.556 101.198L621.359 101.77L621.361 101.774L622.556 101.198ZM613.559 105.468L612.293 105.863L612.296 105.873L612.299 105.883L613.559 105.468ZM611.223 101.762L610.292 102.708L610.3 102.715L611.223 101.762ZM593.981 98.5664L594.242 99.867L594.249 99.8655L594.256 99.864L593.981 98.5664ZM587.241 101.816L588.167 102.765L588.173 102.759L588.179 102.754L587.241 101.816ZM585.441 104.206L586.612 104.829L586.618 104.819L585.441 104.206ZM584.475 106.865L583.177 106.59L583.175 106.6L583.173 106.61L584.475 106.865ZM584.475 112.343L583.172 112.594L583.174 112.606L583.177 112.618L584.475 112.343ZM585.441 115.029L584.265 115.642L584.27 115.652L585.441 115.029ZM590.034 119.326L589.441 120.512L589.448 120.516L589.456 120.52L590.034 119.326ZM593.981 120.615L593.707 121.912L593.714 121.914L593.721 121.915L593.981 120.615ZM611.223 117.392L610.3 116.439L610.292 116.447L611.223 117.392ZM613.559 113.713L612.298 113.303L612.294 113.313L613.559 113.713ZM622.975 109.577C622.975 112.582 622.424 115.183 621.359 117.411L623.752 118.555C625.015 115.913 625.628 112.91 625.628 109.577H622.975ZM621.361 117.408C620.29 119.631 618.762 121.489 616.763 122.992L618.358 125.112C620.692 123.357 622.494 121.168 623.751 118.558L621.361 117.408ZM616.763 122.992C614.754 124.503 612.282 125.673 609.317 126.478L610.013 129.038C613.243 128.161 616.035 126.859 618.358 125.112L616.763 122.992ZM609.322 126.477C606.375 127.265 603.029 127.667 599.272 127.667V130.32C603.214 130.32 606.796 129.899 610.008 129.04L609.322 126.477ZM599.272 127.667C595.516 127.667 592.15 127.265 589.164 126.476L588.486 129.041C591.731 129.898 595.33 130.32 599.272 130.32V127.667ZM589.173 126.478C586.208 125.673 583.725 124.503 581.696 122.989L580.11 125.115C582.449 126.86 585.247 128.161 588.477 129.038L589.173 126.478ZM581.696 122.989C579.679 121.484 578.133 119.625 577.046 117.4L574.662 118.565C575.938 121.175 577.759 123.362 580.11 125.115L581.696 122.989ZM577.047 117.404C575.967 115.178 575.408 112.58 575.408 109.577H572.755C572.755 112.913 573.378 115.918 574.661 118.562L577.047 117.404ZM575.408 109.577C575.408 106.574 575.967 103.987 577.046 101.781L574.662 100.616C573.378 103.244 572.755 106.242 572.755 109.577H575.408ZM577.047 101.777C578.136 99.5349 579.681 97.6684 581.696 96.1652L580.11 94.0389C577.757 95.7942 575.936 97.9918 574.661 100.619L577.047 101.777ZM581.696 96.1652C583.723 94.6531 586.204 93.4923 589.166 92.7047L588.484 90.141C585.252 91.0005 582.451 92.2925 580.11 94.0389L581.696 96.1652ZM589.171 92.7033C592.154 91.8975 595.518 91.487 599.272 91.487V88.8343C595.328 88.8343 591.727 89.2653 588.479 90.1424L589.171 92.7033ZM599.272 91.487C603.027 91.487 606.37 91.8976 609.315 92.7023L610.015 90.1434C606.801 89.2652 603.216 88.8343 599.272 88.8343V91.487ZM609.324 92.7047C612.286 93.4922 614.756 94.6524 616.763 96.1621L618.358 94.042C616.033 92.2933 613.239 91.0006 610.006 90.141L609.324 92.7047ZM616.763 96.1621C618.76 97.6637 620.288 99.5286 621.359 101.77L623.752 100.626C622.496 97.9981 620.694 95.7989 618.358 94.042L616.763 96.1621ZM621.361 101.774C622.424 103.981 622.975 106.572 622.975 109.577H625.628C625.628 106.245 625.015 103.249 623.751 100.623L621.361 101.774ZM615.557 109.577C615.557 108.052 615.309 106.543 614.819 105.054L612.299 105.883C612.704 107.115 612.904 108.345 612.904 109.577H615.557ZM614.825 105.074C614.324 103.465 613.418 102.042 612.145 100.809L610.3 102.715C611.283 103.667 611.935 104.714 612.293 105.863L614.825 105.074ZM612.153 100.817C610.867 99.5519 609.159 98.5778 607.097 97.8523L606.217 100.355C608.022 100.99 609.358 101.788 610.292 102.708L612.153 100.817ZM607.097 97.8523C604.974 97.105 602.349 96.7566 599.272 96.7566V99.4094C602.174 99.4094 604.474 99.7413 606.217 100.355L607.097 97.8523ZM599.272 96.7566C597.199 96.7566 595.34 96.9229 593.707 97.2688L594.256 99.864C595.666 99.5654 597.334 99.4094 599.272 99.4094V96.7566ZM593.721 97.2658C592.111 97.5878 590.678 98.0502 589.441 98.6691L590.627 101.042C591.609 100.551 592.808 100.154 594.242 99.867L593.721 97.2658ZM589.441 98.6691C588.224 99.2775 587.171 100.01 586.303 100.878L588.179 102.754C588.815 102.118 589.624 101.543 590.627 101.042L589.441 98.6691ZM586.314 100.867C585.47 101.691 584.783 102.599 584.265 103.593L586.618 104.819C586.995 104.094 587.507 103.409 588.167 102.765L586.314 100.867ZM584.27 103.583C583.765 104.534 583.4 105.538 583.177 106.59L585.772 107.139C585.943 106.33 586.223 105.561 586.612 104.829L584.27 103.583ZM583.173 106.61C582.978 107.603 582.88 108.593 582.88 109.577H585.532C585.532 108.771 585.613 107.952 585.776 107.12L583.173 106.61ZM582.88 109.577C582.88 110.577 582.978 111.583 583.172 112.594L585.777 112.093C585.613 111.241 585.532 110.403 585.532 109.577H582.88ZM583.177 112.618C583.399 113.669 583.763 114.677 584.265 115.641L586.618 114.416C586.225 113.661 585.944 112.88 585.772 112.069L583.177 112.618ZM584.27 115.652C584.788 116.626 585.474 117.521 586.314 118.341L588.167 116.443C587.503 115.795 586.99 115.115 586.612 114.406L584.27 115.652ZM586.314 118.341C587.18 119.187 588.229 119.906 589.441 120.512L590.627 118.139C589.618 117.635 588.805 117.066 588.167 116.443L586.314 118.341ZM589.456 120.52C590.684 121.114 592.106 121.573 593.707 121.912L594.256 119.317C592.813 119.012 591.604 118.612 590.611 118.132L589.456 120.52ZM593.721 121.915C595.349 122.241 597.203 122.398 599.272 122.398V119.745C597.33 119.745 595.657 119.597 594.242 119.314L593.721 121.915ZM599.272 122.398C602.349 122.398 604.974 122.049 607.097 121.302L606.217 118.8C604.474 119.413 602.174 119.745 599.272 119.745V122.398ZM607.097 121.302C609.159 120.577 610.867 119.602 612.153 118.338L610.292 116.447C609.358 117.366 608.022 118.164 606.217 118.8L607.097 121.302ZM612.145 118.345C613.415 117.115 614.321 115.704 614.824 114.112L612.294 113.313C611.937 114.444 611.286 115.485 610.3 116.439L612.145 118.345ZM614.821 114.122C615.309 112.618 615.557 111.102 615.557 109.577H612.904C612.904 110.81 612.704 112.05 612.298 113.303L614.821 114.122Z" fill="#EAEAEA" mask="url(#path-9-outside-1_12_2)"/>
</g>
</g>
<defs>
<filter id="filter0_f_12_2" x="302.083" y="-493.887" width="888.015" height="916.93" filterUnits="userSpaceOnUse" color-interpolation-filters="sRGB">
<feFlood flood-opacity="0" result="BackgroundImageFix"/>
<feBlend mode="normal" in="SourceGraphic" in2="BackgroundImageFix" result="shape"/>
<feGaussianBlur stdDeviation="150" result="effect1_foregroundBlur_12_2"/>
</filter>
<filter id="filter1_f_12_2" x="138.087" y="-276.611" width="789.3" height="841.892" filterUnits="userSpaceOnUse" color-interpolation-filters="sRGB">
<feFlood flood-opacity="0" result="BackgroundImageFix"/>
<feBlend mode="normal" in="SourceGraphic" in2="BackgroundImageFix" result="shape"/>
<feGaussianBlur stdDeviation="150" result="effect1_foregroundBlur_12_2"/>
</filter>
<filter id="filter2_f_12_2" x="36.9453" y="-511.229" width="794.198" height="866.029" filterUnits="userSpaceOnUse" color-interpolation-filters="sRGB">
<feFlood flood-opacity="0" result="BackgroundImageFix"/>
<feBlend mode="normal" in="SourceGraphic" in2="BackgroundImageFix" result="shape"/>
<feGaussianBlur stdDeviation="150" result="effect1_foregroundBlur_12_2"/>
</filter>
<filter id="filter3_f_12_2" x="-324" y="-228" width="826" height="786" filterUnits="userSpaceOnUse" color-interpolation-filters="sRGB">
<feFlood flood-opacity="0" result="BackgroundImageFix"/>
<feBlend mode="normal" in="SourceGraphic" in2="BackgroundImageFix" result="shape"/>
<feGaussianBlur stdDeviation="150" result="effect1_foregroundBlur_12_2"/>
</filter>
<filter id="filter4_d_12_2" x="193.253" y="74.2443" width="446.964" height="70.6656" filterUnits="userSpaceOnUse" color-interpolation-filters="sRGB">
<feFlood flood-opacity="0" result="BackgroundImageFix"/>
<feColorMatrix in="SourceAlpha" type="matrix" values="0 0 0 0 0 0 0 0 0 0 0 0 0 0 0 0 0 0 127 0" result="hardAlpha"/>
<feOffset/>
<feGaussianBlur stdDeviation="7.95816"/>
<feComposite in2="hardAlpha" operator="out"/>
<feColorMatrix type="matrix" values="0 0 0 0 0.919287 0 0 0 0 0.919287 0 0 0 0 0.919287 0 0 0 0.3 0"/>
<feBlend mode="normal" in2="BackgroundImageFix" result="effect1_dropShadow_12_2"/>
<feBlend mode="normal" in="SourceGraphic" in2="effect1_dropShadow_12_2" result="shape"/>
</filter>
<linearGradient id="paint0_linear_12_2" x1="-14" y1="43" x2="252" y2="43" gradientUnits="userSpaceOnUse">
<stop stop-color="#476DFE"/>
<stop offset="0.45" stop-color="#991FFE"/>
<stop offset="1" stop-color="#FF12AA"/>
</linearGradient>
<linearGradient id="paint1_linear_12_2" x1="609" y1="164" x2="875" y2="164" gradientUnits="userSpaceOnUse">
<stop stop-color="#476DFE"/>
<stop offset="0.45" stop-color="#991FFE"/>
<stop offset="1" stop-color="#FF12AA"/>
</linearGradient>
<linearGradient id="paint2_linear_12_2" x1="-24" y1="165" x2="202" y2="165" gradientUnits="userSpaceOnUse">
<stop stop-color="#6366F1"/>
<stop offset="0.5" stop-color="#A855F7"/>
<stop offset="1" stop-color="#EC4899"/>
</linearGradient>
<linearGradient id="paint3_linear_12_2" x1="171" y1="95.0769" x2="628.847" y2="245.098" gradientUnits="userSpaceOnUse">
<stop stop-color="#EAEAEA"/>
<stop offset="0.35" stop-color="#FF9ADB"/>
<stop offset="0.59" stop-color="#718EFF"/>
<stop offset="0.785" stop-color="#8590FF"/>
<stop offset="1" stop-color="#CF96FF"/>
</linearGradient>
<clipPath id="clip0_12_2">
<rect width="830" height="200" fill="white"/>
</clipPath>
</defs>
</svg>
