<svg width="70" height="70" viewBox="0 0 70 70" fill="none" xmlns="http://www.w3.org/2000/svg">
<path d="M4.61483 1.64377L2.8323 1.79232V0.5H67.167V1.78944L65.385 1.63915L64.8863 1.59709L64.8447 2.09586L64.6721 4.16677H5.32681L5.15462 2.10052L5.1131 1.60225L4.61483 1.64377ZM2.8323 2.79578L4.1996 2.68184L4.32334 4.16677H2.8323V2.79578ZM0.548046 2.98614L1.8323 2.87912V4.66677V5.16677H2.3323H4.40667L8.634 55.8947L7.89453 55.6482L7.42019 55.4901L7.26207 55.9644L6.6291 57.8634L5.1318 57.9866L0.548046 2.98614ZM6.89417 60.2304L7.36904 58.8058L9.36414 58.6416L9.86295 58.6005L9.82139 58.1017L9.75649 57.323L33.6827 65.2984L33.788 65.6142L34.4726 67.6681L33.9461 69.2477L6.89417 60.2304ZM34.9997 69.2493L35.0826 69.4981C35.0274 69.5006 34.972 69.5006 34.9167 69.4981L34.9997 69.2493ZM36.0532 69.2477L35.5267 67.6681L36.2114 65.6142L36.3166 65.2984L60.2425 57.3231L60.178 58.0971L60.1364 58.5953L60.6347 58.6369L62.6294 58.8031L63.1052 60.2304L36.0532 69.2477ZM64.0318 59.848L63.7141 58.8951L64.7154 58.9775C64.6498 59.1524 64.5574 59.3171 64.4409 59.4655C64.3243 59.614 64.1861 59.7428 64.0318 59.848ZM69.4513 2.98564L64.8676 57.9861L63.3696 57.8613L62.7373 55.9644L62.5792 55.4901L62.1048 55.6482L61.3649 55.8948L65.5923 5.16677H67.667H68.167V4.66677V2.87733L69.4513 2.98564ZM61.216 57.6819L61.2746 56.979L61.9467 56.755L62.2853 57.771L61.216 57.6819ZM67.167 2.79299V4.16677H65.6756L65.7997 2.67767L67.167 2.79299ZM69.4656 1.98329L68.167 1.87378V0.569806C68.2476 0.592684 68.3266 0.621102 68.4036 0.65494C68.6358 0.757003 68.8444 0.906148 69.016 1.09294C69.1876 1.27974 69.3186 1.50012 69.4007 1.74014C69.4279 1.8198 69.4496 1.90105 69.4656 1.98329ZM34.9997 65.7374L35.1046 65.7723L34.9997 66.087L34.8948 65.7723L34.9997 65.7374ZM8.72435 56.9789L8.78328 57.686L7.71293 57.7741L8.05264 56.755L8.72435 56.9789ZM6.2852 58.8951L5.96754 59.848C5.81321 59.7428 5.67505 59.614 5.55846 59.4655C5.44189 59.3171 5.34958 59.1524 5.28396 58.9775L6.2852 58.8951ZM1.8323 0.569805V1.87378L0.533736 1.98329C0.549735 1.90105 0.571392 1.8198 0.598633 1.74014C0.680716 1.50012 0.811715 1.27974 0.983346 1.09294C1.15498 0.906148 1.3635 0.757003 1.59574 0.65494C1.67273 0.621101 1.75178 0.592683 1.8323 0.569805ZM34.9997 50.5822L35.1049 50.8978L34.9997 50.9331L34.8945 50.8978L34.9997 50.5822ZM36.0532 50.5807L35.5267 49.0011L36.2114 46.9471L36.3166 46.6313L46.1666 43.348V44.3343V44.8343H46.6666H48.6396L49.1049 46.2301L36.0532 50.5807ZM19.166 43.8343V37.8341H22.8328V41.9605L21.8948 41.6479L21.4205 41.4898L21.2624 41.9641L20.639 43.8343H19.166ZM19.166 44.8343H20.3057L19.9458 45.9139L19.166 45.654V44.8343ZM20.8945 46.2301L21.3597 44.8343H23.3328H23.8328V44.3343V43.348L33.6827 46.6313L33.788 46.9471L34.4726 49.0011L33.9461 50.5807L20.8945 46.2301ZM34.9997 47.4199L34.8948 47.1052L34.9997 47.0703L35.1046 47.1052L34.9997 47.4199ZM22.0529 42.7547L22.8328 43.0146V43.8343H21.6931L22.0529 42.7547ZM50.0536 45.9139L49.6937 44.8343H50.8334V45.6539L50.0536 45.9139ZM50.8334 43.8343H49.3604L48.737 41.9641L48.5788 41.4898L48.1045 41.6479L47.1666 41.9605V33.1674H49H49.5V32.6674V30.834H50.8334V43.8343ZM50.8334 18.1671H23.8328V16.3337V15.8337H23.3328H21.4994V14.5003H50.8334V18.1671ZM21.4994 16.8337H22.8328V18.1671H21.4994V16.8337ZM20.9994 19.1671H22.8328V27.5006H20.9994H20.4994V28.0006V29.834H19.166V16.8337H20.4994V18.6671V19.1671H20.9994ZM21.4994 29.834V28.5006H22.8328V29.834H21.4994ZM23.8328 30.334V28.5006H48.5V29.834H46.6666H46.1666V30.334V32.1674H21.4994V30.834H23.3328H23.8328V30.334ZM49.5 29.834V28.5006H50.8334V29.834H49.5ZM20.4994 30.834V32.1674H19.166V30.834H20.4994ZM48.5 30.834V32.1674H47.1666V30.834H48.5ZM47.1666 43.8343V43.0146L47.9464 42.7547L48.3063 43.8343H47.1666ZM20.4994 15.8337H19.166V14.5003H20.4994V15.8337Z" fill="#EAEAEA" stroke="#EAEAEA"/>
</svg>
