<svg width="76" height="76" viewBox="0 0 76 76" fill="none" xmlns="http://www.w3.org/2000/svg">
<path d="M62.7356 40.5V39.665C62.7356 35.985 59.7506 33 56.0706 33H50.2356C48.2465 33 46.3388 33.7902 44.9323 35.1967C43.5258 36.6032 42.7356 38.5109 42.7356 40.5C42.7356 42.4891 43.5258 44.3968 44.9323 45.8033C46.3388 47.2098 48.2465 48 50.2356 48H55.2356C57.2247 48 59.1324 48.7902 60.5389 50.1967C61.9455 51.6032 62.7356 53.5109 62.7356 55.5C62.7356 57.4891 61.9455 59.3968 60.5389 60.8033C59.1324 62.2098 57.2247 63 55.2356 63H50.2356C48.2465 63 46.3388 62.2098 44.9323 60.8033C43.5258 59.3968 42.7356 57.4891 42.7356 55.5M32.7356 30.5V55.5C32.7356 57.4891 31.9455 59.3968 30.5389 60.8033C29.1324 62.2098 27.2247 63 25.2356 63C23.2465 63 21.3388 62.2098 19.9323 60.8033C18.5258 59.3968 17.7356 57.4891 17.7356 55.5M2.73563 3H72.7356V73H2.73563V3Z" stroke="#EAEAEA" stroke-width="5"/>
</svg>
