<svg width="66" height="66" viewBox="0 0 66 66" fill="none" xmlns="http://www.w3.org/2000/svg">
<path d="M20.4762 26.5714V48M46.1905 48V37.2857C46.1905 35.0124 45.2874 32.8323 43.68 31.2248C42.0725 29.6173 39.8923 28.7143 37.6191 28.7143C35.3458 28.7143 33.1656 29.6173 31.5581 31.2248C29.9507 32.8323 29.0476 35.0124 29.0476 37.2857V48V26.5714M18.3333 20.1429H22.6191M7.61906 3H59.0476C60.1843 3 61.2744 3.45153 62.0781 4.25526C62.8818 5.05898 63.3333 6.14907 63.3333 7.28571V58.7143C63.3333 59.8509 62.8818 60.941 62.0781 61.7447C61.2744 62.5485 60.1843 63 59.0476 63H7.61906C6.48242 63 5.39233 62.5485 4.5886 61.7447C3.78487 60.941 3.33334 59.8509 3.33334 58.7143V7.28571C3.33334 6.14907 3.78487 5.05898 4.5886 4.25526C5.39233 3.45153 6.48242 3 7.61906 3Z" stroke="#EAEAEA" stroke-width="5"/>
</svg>
