<svg width="389" height="271" viewBox="0 0 389 271" fill="none" xmlns="http://www.w3.org/2000/svg">
<g clip-path="url(#clip0_2_31)">
<mask id="mask0_2_31" style="mask-type:luminance" maskUnits="userSpaceOnUse" x="0" y="0" width="389" height="271">
<path d="M389 0H0V271H389V0Z" fill="white"/>
</mask>
<g mask="url(#mask0_2_31)">
<path d="M389 0H0V271H389V0Z" fill="url(#paint0_linear_2_31)"/>
<path d="M391.836 0H0V271H391.836V0Z" fill="black" fill-opacity="0.8"/>
<path d="M90.5329 132.082H98.5233V135.546H90.5329V132.082ZM90.8174 140H99.8511V143.574H87V124.33H99.5429V127.904H90.8174V140ZM115.924 143.904C114.628 143.904 113.419 143.656 112.297 143.162C111.19 142.667 110.226 141.97 109.404 141.072C108.598 140.174 107.966 139.12 107.507 137.911C107.065 136.701 106.843 135.381 106.843 133.952C106.843 132.522 107.065 131.203 107.507 129.993C107.966 128.784 108.606 127.73 109.428 126.832C110.25 125.933 111.214 125.237 112.32 124.742C113.427 124.247 114.628 124 115.924 124C117.236 124 118.438 124.247 119.528 124.742C120.635 125.237 121.591 125.933 122.397 126.832C123.219 127.711 123.859 128.756 124.318 129.966C124.776 131.175 125.005 132.504 125.005 133.952C125.005 135.381 124.776 136.71 124.318 137.938C123.859 139.148 123.219 140.202 122.397 141.1C121.591 141.979 120.635 142.667 119.528 143.162C118.438 143.656 117.236 143.904 115.924 143.904ZM121.354 148C120.706 148 120.09 147.918 119.505 147.753C118.936 147.588 118.366 147.322 117.797 146.955C117.244 146.589 116.659 146.094 116.043 145.471C115.442 144.848 114.786 144.078 114.075 143.162L118.106 141.979C118.532 142.658 118.928 143.198 119.291 143.601C119.655 144.005 120.002 144.289 120.334 144.454C120.682 144.619 121.046 144.701 121.425 144.701C122.437 144.701 123.338 144.225 124.128 143.271L125.835 145.636C124.713 147.212 123.219 148 121.354 148ZM115.924 140.11C116.667 140.11 117.347 139.963 117.963 139.67C118.596 139.377 119.149 138.955 119.623 138.406C120.097 137.856 120.461 137.205 120.714 136.454C120.983 135.684 121.117 134.85 121.117 133.952C121.117 133.036 120.983 132.202 120.714 131.45C120.461 130.699 120.097 130.048 119.623 129.498C119.149 128.948 118.596 128.527 117.963 128.234C117.347 127.94 116.667 127.794 115.924 127.794C115.181 127.794 114.494 127.94 113.861 128.234C113.229 128.527 112.676 128.948 112.202 129.498C111.743 130.048 111.38 130.699 111.111 131.45C110.858 132.202 110.732 133.036 110.732 133.952C110.732 134.85 110.858 135.684 111.111 136.454C111.38 137.205 111.743 137.856 112.202 138.406C112.676 138.955 113.229 139.377 113.861 139.67C114.494 139.963 115.181 140.11 115.924 140.11ZM140.245 143.904C137.89 143.904 136.049 143.143 134.721 141.622C133.393 140.101 132.729 137.929 132.729 135.107V124.33H136.57V134.942C136.57 136.774 136.894 138.094 137.542 138.9C138.191 139.707 139.099 140.11 140.269 140.11C141.439 140.11 142.348 139.707 142.996 138.9C143.644 138.094 143.968 136.774 143.968 134.942V124.33H147.762V135.107C147.762 137.929 147.098 140.101 145.77 141.622C144.442 143.143 142.601 143.904 140.245 143.904ZM156.537 143.574V124.33H160.378V143.574H156.537ZM169.296 143.574V124.33H173.137V139.945H181.459V143.574H169.296ZM188.585 143.574V124.33H192.426V143.574H188.585ZM201.344 143.574V124.33H209.453C211.539 124.33 213.104 124.788 214.148 125.704C215.207 126.621 215.736 127.83 215.736 129.333C215.736 130.341 215.523 131.221 215.096 131.973C214.669 132.706 214.084 133.274 213.341 133.677C212.599 134.08 211.746 134.282 210.781 134.282L211.231 133.155C212.275 133.155 213.199 133.356 214.005 133.759C214.812 134.144 215.435 134.722 215.879 135.491C216.336 136.261 216.566 137.205 216.566 138.323C216.566 139.973 216.004 141.265 214.883 142.199C213.761 143.116 212.109 143.574 209.927 143.574H201.344ZM205.161 140.22H209.643C210.638 140.22 211.39 140.037 211.895 139.67C212.417 139.285 212.678 138.68 212.678 137.856C212.678 137.049 212.417 136.454 211.895 136.069C211.39 135.665 210.638 135.464 209.643 135.464H204.877V132.22H208.979C209.911 132.22 210.622 132.037 211.113 131.67C211.618 131.285 211.871 130.708 211.871 129.938C211.871 129.187 211.618 128.628 211.113 128.261C210.622 127.876 209.911 127.684 208.979 127.684H205.161V140.22ZM224.455 143.574V124.33H231.639C233.123 124.33 234.404 124.614 235.48 125.182C236.554 125.732 237.384 126.529 237.97 127.574C238.553 128.619 238.847 129.865 238.847 131.313C238.847 132.742 238.553 133.979 237.97 135.024C237.384 136.05 236.554 136.838 235.48 137.388C234.404 137.938 233.123 138.213 231.639 138.213H226.589L228.296 136.261V143.574H224.455ZM235.006 143.574L230.856 136.591H234.958L239.155 143.574H235.006ZM228.296 136.756L226.589 134.667H231.426C232.611 134.667 233.495 134.373 234.081 133.787C234.664 133.182 234.958 132.357 234.958 131.313C234.958 130.25 234.664 129.425 234.081 128.838C233.495 128.252 232.611 127.959 231.426 127.959H226.589L228.296 125.842V136.756ZM246.868 143.574V124.33H250.709V143.574H246.868ZM267.001 143.904C264.646 143.904 262.804 143.143 261.476 141.622C260.148 140.101 259.485 137.929 259.485 135.107V124.33H263.326V134.942C263.326 136.774 263.651 138.094 264.298 138.9C264.948 139.707 265.856 140.11 267.025 140.11C268.196 140.11 269.104 139.707 269.751 138.9C270.401 138.094 270.723 136.774 270.723 134.942V124.33H274.517V135.107C274.517 137.929 273.853 140.101 272.525 141.622C271.198 143.143 269.358 143.904 267.001 143.904ZM283.292 143.574V124.33H286.47L293.535 137.911H291.852L298.799 124.33H301.953L302 143.574H298.396L298.372 130.735H299.036L293.488 141.54H291.757L286.09 130.735H286.896V143.574H283.292Z" fill="#97CADB"/>
</g>
</g>
<defs>
<linearGradient id="paint0_linear_2_31" x1="194.5" y1="0" x2="194.5" y2="271" gradientUnits="userSpaceOnUse">
<stop stop-color="#001B48"/>
<stop offset="1" stop-color="#97CADB"/>
</linearGradient>
<clipPath id="clip0_2_31">
<rect width="389" height="271" fill="white"/>
</clipPath>
</defs>
</svg>
