<svg width="69" height="74" viewBox="0 0 69 74" fill="none" xmlns="http://www.w3.org/2000/svg">
<path d="M3.1207 1V22.7241C3.1207 25.2848 4.13794 27.7407 5.94863 29.5514C7.75933 31.3621 10.2152 32.3793 12.7759 32.3793C15.3366 32.3793 17.7924 31.3621 19.6031 29.5514C21.4138 27.7407 22.431 25.2848 22.431 22.7241V8.24138C22.431 6.96102 21.9224 5.73311 21.0171 4.82776C20.1117 3.92241 18.8838 3.41379 17.6035 3.41379C16.3231 3.41379 15.0952 3.92241 14.1898 4.82776C13.2845 5.73311 12.7759 6.96102 12.7759 8.24138V25.1379M29.6724 3.41379H61.0517C62.3321 3.41379 63.56 3.92241 64.4654 4.82776C65.3707 5.73311 65.8793 6.96102 65.8793 8.24138V66.1724C65.8793 67.4528 65.3707 68.6807 64.4654 69.586C63.56 70.4914 62.3321 71 61.0517 71H12.7759C11.4955 71 10.2676 70.4914 9.36225 69.586C8.4569 68.6807 7.94828 67.4528 7.94828 66.1724V39.6207M53.8104 22.7241H34.5M53.8104 37.2069H34.5M53.8104 51.6897H20.0173" stroke="#EAEAEA" stroke-width="5"/>
</svg>
