<svg width="83" height="74" viewBox="0 0 83 74" fill="none" xmlns="http://www.w3.org/2000/svg">
<path d="M80.3815 36.9999C80.3815 46.1758 63.0265 53.6129 41.6178 53.6129C20.2092 53.6129 2.85413 46.1758 2.85413 36.9999C2.85413 27.8239 20.2092 20.3868 41.6178 20.3868C63.0265 20.3868 80.3815 27.8239 80.3815 36.9999Z" stroke="#EAEAEA" stroke-width="4"/>
<path d="M23.1552 71.0844C31.2236 75.4591 46.0258 63.7359 56.2262 44.9133C66.421 26.0852 68.1488 7.28485 60.0804 2.91563C52.012 -1.45914 37.2098 10.2641 27.0094 29.0867C16.8146 47.9148 15.0868 66.7151 23.1552 71.0844Z" stroke="#EAEAEA" stroke-width="4"/>
<path d="M60.0804 71.0844C52.012 75.4591 37.2098 63.7359 27.0094 44.9133C16.8146 26.0852 15.0868 7.28485 23.1552 2.91563C31.2236 -1.45914 46.0258 10.2641 56.2262 29.0867C66.421 47.9148 68.1488 66.7151 60.0804 71.0844Z" stroke="#EAEAEA" stroke-width="4"/>
<path d="M36.0802 36.9998C36.0802 38.4685 36.6636 39.877 37.7021 40.9156C38.7407 41.9541 40.1492 42.5375 41.6179 42.5375C43.0866 42.5375 44.4951 41.9541 45.5336 40.9156C46.5721 39.877 47.1555 38.4685 47.1555 36.9998C47.1555 35.5311 46.5721 34.1226 45.5336 33.0841C44.4951 32.0456 43.0866 31.4622 41.6179 31.4622C40.1492 31.4622 38.7407 32.0456 37.7021 33.0841C36.6636 34.1226 36.0802 35.5311 36.0802 36.9998Z" stroke="#EAEAEA" stroke-width="4"/>
</svg>
